<?xml version="1.0" encoding="UTF-8"?>
<svg version="1.1" xmlns="http://www.w3.org/2000/svg" width="2555" height="2561">
<path d="M0 0 C1.04457241 -0.00282738 2.08914482 -0.00565475 3.16537094 -0.00856781 C8.72141506 -0.02344912 14.27743408 -0.03274152 19.83349609 -0.03710938 C24.30233161 -0.04144026 28.77096817 -0.0551361 33.23974609 -0.078125 C65.43529229 -0.24031411 97.38252224 0.83013332 129.4921875 3.203125 C130.28861538 3.26195862 131.08504326 3.32079224 131.90560532 3.38140869 C174.65430534 6.56611709 217.37897901 12.21743778 259.4921875 20.203125 C260.46265015 20.38659485 261.43311279 20.5700647 262.4329834 20.75909424 C304.33597913 28.70276244 345.47776454 38.53743333 386.4921875 50.203125 C387.17200684 50.39585999 387.85182617 50.58859497 388.55224609 50.78717041 C419.26324784 59.50491576 449.64606973 69.8749145 479.4921875 81.203125 C480.44416016 81.5630957 481.39613281 81.92306641 482.37695312 82.29394531 C498.81680196 88.54652945 515.03655871 95.30882285 531.2421875 102.140625 C532.23670929 102.55921783 533.23123108 102.97781067 534.25588989 103.40908813 C537.12254211 104.61703658 539.98738329 105.82916972 542.8515625 107.04296875 C543.70574265 107.40303009 544.55992279 107.76309143 545.43998718 108.13406372 C549.92765529 110.0430635 554.31730041 112.06746468 558.66323853 114.27998352 C561.31979862 115.62085243 564.02251232 116.85279042 566.73046875 118.0859375 C579.83568237 124.08956213 592.74568265 130.2862342 605.44384766 137.11816406 C608.5732918 138.77576237 611.75077173 140.33072487 614.9296875 141.890625 C637.51128595 153.06775846 659.91644224 165.16849595 681.11328125 178.796875 C685.10488924 181.35878541 689.15299841 183.718876 693.31640625 185.98730469 C697.13346026 188.1202635 700.80660781 190.47749498 704.4921875 192.828125 C705.71723999 193.60591309 705.71723999 193.60591309 706.96704102 194.39941406 C722.66673548 204.3839287 738.29256685 214.4678738 753.4921875 225.203125 C754.73676077 226.07453076 755.98157124 226.9455978 757.2265625 227.81640625 C768.10846399 235.44277327 778.82894322 243.27451651 789.4921875 251.203125 C790.53439453 251.9765625 790.53439453 251.9765625 791.59765625 252.765625 C806.15624895 263.57897045 820.52010427 274.64002164 834.4921875 286.203125 C836.26286868 287.64081241 838.03370642 289.07830702 839.8046875 290.515625 C845.85029582 295.46203181 851.76852754 300.55120138 857.68505859 305.65039062 C859.47642894 307.18958482 861.27414637 308.72099619 863.07421875 310.25 C869.91133315 316.0653472 876.60560914 321.99227169 883.1640625 328.12109375 C885.304389 330.2187594 885.304389 330.2187594 887.4921875 331.203125 C887.4921875 331.863125 887.4921875 332.523125 887.4921875 333.203125 C888.06453125 333.44675781 888.636875 333.69039063 889.2265625 333.94140625 C891.89652288 335.42829798 893.63047757 337.18396408 895.7421875 339.390625 C898.45010402 342.16426765 901.1503636 344.83417915 904.1171875 347.328125 C909.06380962 351.55523845 913.57152451 356.23272039 918.12548828 360.87353516 C921.43702019 364.22982913 924.77750759 367.28730099 928.4921875 370.203125 C929.83955723 371.85846495 931.17553086 373.52325273 932.4921875 375.203125 C933.1521875 375.533125 933.8121875 375.863125 934.4921875 376.203125 C934.4921875 376.863125 934.4921875 377.523125 934.4921875 378.203125 C935.1521875 378.203125 935.8121875 378.203125 936.4921875 378.203125 C937.9375 379.671875 937.9375 379.671875 939.6171875 381.703125 C943.3617888 386.10671411 947.36768846 390.15763935 951.4921875 394.203125 C956.17974316 398.80088074 960.69204497 403.45650871 964.95532227 408.45361328 C966.383406 410.07929208 967.86823542 411.58181291 969.4296875 413.078125 C971.4921875 415.203125 971.4921875 415.203125 971.4921875 417.203125 C972.1521875 417.203125 972.8121875 417.203125 973.4921875 417.203125 C974.796875 418.4609375 974.796875 418.4609375 976.3671875 420.328125 C976.9859375 421.05515625 977.6046875 421.7821875 978.2421875 422.53125 C978.9846875 423.41296875 979.7271875 424.2946875 980.4921875 425.203125 C982.44653007 427.49821029 984.40676113 429.78823595 986.3671875 432.078125 C986.88627686 432.6858374 987.40536621 433.2935498 987.94018555 433.91967773 C990.96962674 437.45804613 994.04300365 440.94631542 997.1796875 444.390625 C1001.33535015 448.97669557 1005.24783451 453.73014841 1009.13916016 458.54101562 C1010.67801866 460.43140695 1012.23053345 462.31005207 1013.78515625 464.1875 C1021.15681949 473.09064687 1028.40791385 482.06979419 1035.4921875 491.203125 C1036.68521484 492.73259766 1036.68521484 492.73259766 1037.90234375 494.29296875 C1045.27492515 503.79940298 1052.39571493 513.48956952 1059.4921875 523.203125 C1060.03246582 523.94191895 1060.57274414 524.68071289 1061.12939453 525.44189453 C1074.56720733 543.84594551 1087.61893336 562.50811515 1099.89453125 581.70947266 C1101.50126534 584.21729387 1103.12079192 586.71648212 1104.7421875 589.21484375 C1124.62129279 619.98434249 1142.6735754 651.90925655 1159.90234375 684.22314453 C1161.33338974 686.90547673 1162.77134457 689.58396848 1164.2109375 692.26171875 C1170.70124892 704.39028279 1176.66650392 716.74354076 1182.4921875 729.203125 C1183.12674171 730.55552413 1183.76134698 731.90789931 1184.39599609 733.26025391 C1200.66396904 767.97274102 1215.32446981 803.20010641 1228.4921875 839.203125 C1228.9053421 840.3317395 1228.9053421 840.3317395 1229.32684326 841.4831543 C1238.57345856 866.7916871 1246.79994977 892.38194508 1254.4921875 918.203125 C1254.81382874 919.28086182 1254.81382874 919.28086182 1255.14196777 920.38037109 C1278.35709992 998.3448689 1292.84451125 1079.13902389 1300.45703125 1160.078125 C1300.55112022 1161.07416748 1300.55112022 1161.07416748 1300.64710999 1162.09033203 C1301.30972433 1169.39064162 1301.81633825 1176.70390565 1302.33615685 1184.01549149 C1302.48022851 1186.0354536 1302.62734382 1188.05519801 1302.7747345 1190.07492065 C1304.65444102 1216.59177397 1304.83554166 1243.07677903 1304.80786133 1269.65161133 C1304.80324898 1274.45444147 1304.81010039 1279.25701717 1304.82836914 1284.05981445 C1305.00258399 1330.33135871 1302.81224527 1376.23130364 1297.4921875 1422.203125 C1297.38648437 1423.11837952 1297.28078125 1424.03363403 1297.171875 1424.97662354 C1293.85215771 1453.54999164 1289.75565644 1481.92297002 1284.4921875 1510.203125 C1284.31943298 1511.13842041 1284.14667847 1512.07371582 1283.96868896 1513.03735352 C1270.28702057 1587.0025625 1250.2434506 1659.87754025 1223.4921875 1730.203125 C1222.79066945 1732.06835791 1222.08915368 1733.93359169 1221.3878479 1735.79890442 C1210.33814336 1765.12670703 1197.89562692 1793.87664374 1184.4921875 1822.203125 C1184.01749023 1823.20891602 1183.54279297 1824.21470703 1183.05371094 1825.25097656 C1171.2274827 1850.25477352 1159.00764083 1875.06461341 1145.4921875 1899.203125 C1144.96915039 1900.1420459 1144.44611328 1901.0809668 1143.90722656 1902.04833984 C1123.36508436 1938.89465077 1100.97789132 1974.77091249 1076.79248047 2009.34033203 C1075.27179479 2011.51885846 1073.75917473 2013.70290403 1072.24609375 2015.88671875 C1065.33984262 2025.83195046 1058.28262187 2035.62864706 1050.95556641 2045.26757812 C1049.47015789 2047.23226259 1048.00056893 2049.20786508 1046.53515625 2051.1875 C1040.95300262 2058.71768329 1035.22510831 2066.09200831 1029.27978516 2073.33935547 C1025.76662052 2077.6222407 1022.32664487 2081.95270623 1018.9296875 2086.328125 C1014.71589913 2091.73992865 1010.32673006 2096.97424347 1005.83618164 2102.15795898 C1002.78136231 2105.68603918 999.79810129 2109.25794312 996.8671875 2112.890625 C993.02574223 2117.62284018 988.98164874 2122.13282374 984.859375 2126.62109375 C982.71320019 2128.96205341 980.59178704 2131.32038444 978.4921875 2133.703125 C977.6878125 2134.61578125 977.6878125 2134.61578125 976.8671875 2135.546875 C975.30735343 2137.36696759 975.30735343 2137.36696759 973.4921875 2140.203125 C972.8321875 2140.203125 972.1721875 2140.203125 971.4921875 2140.203125 C971.09580078 2141.09257812 971.09580078 2141.09257812 970.69140625 2142 C969.44848325 2144.28341554 968.18817104 2145.67739223 966.3046875 2147.453125 C963.77622161 2149.90339092 961.40462874 2152.40144551 959.1171875 2155.078125 C955.76947735 2158.96993251 952.16718461 2162.55129961 948.5078125 2166.1484375 C946.33409159 2168.29347449 946.33409159 2168.29347449 944.0546875 2171.265625 C943.5390625 2171.905 943.0234375 2172.544375 942.4921875 2173.203125 C941.8321875 2173.203125 941.1721875 2173.203125 940.4921875 2173.203125 C940.27304688 2173.74678711 940.05390625 2174.29044922 939.828125 2174.85058594 C938.05113835 2177.97979707 935.65113775 2180.32997899 933.1171875 2182.84375 C932.59205566 2183.37079529 932.06692383 2183.89784058 931.52587891 2184.44085693 C930.41879867 2185.54929428 929.3092042 2186.65522546 928.19726562 2187.75878906 C926.49111775 2189.45418801 924.79594703 2191.1600411 923.1015625 2192.8671875 C922.02407858 2193.94335058 920.94597483 2195.01889351 919.8671875 2196.09375 C919.35881348 2196.60617249 918.85043945 2197.11859497 918.32666016 2197.64654541 C914.72212841 2201.203125 914.72212841 2201.203125 912.4921875 2201.203125 C911.9971875 2202.688125 911.9971875 2202.688125 911.4921875 2204.203125 C909.9609375 2205.7109375 909.9609375 2205.7109375 907.9921875 2207.328125 C904.84112515 2209.99527421 901.88629339 2212.75877422 898.9921875 2215.703125 C895.53426556 2219.20890745 891.96657152 2222.5027238 888.21875 2225.6953125 C886.4617758 2227.18108598 886.4617758 2227.18108598 884.890625 2228.8984375 C883.4921875 2230.203125 883.4921875 2230.203125 881.4921875 2230.203125 C881.4921875 2230.863125 881.4921875 2231.523125 881.4921875 2232.203125 C880.234375 2233.5078125 880.234375 2233.5078125 878.3671875 2235.078125 C877.26697266 2236.01398437 877.26697266 2236.01398437 876.14453125 2236.96875 C875.26925781 2237.70609375 874.39398437 2238.4434375 873.4921875 2239.203125 C871.88721228 2240.574225 870.28519012 2241.94872577 868.68334961 2243.32348633 C867.49875339 2244.33986758 866.31334825 2245.35530668 865.12719727 2246.36987305 C861.30881082 2249.63678773 857.50877695 2252.92380368 853.71923828 2256.22412109 C847.07353868 2262.00881193 840.34510712 2267.66421394 833.4921875 2273.203125 C832.23255537 2274.23243988 830.97347927 2275.26243546 829.71484375 2276.29296875 C822.43088049 2282.24914449 815.09854789 2288.12285631 807.61328125 2293.82421875 C804.51781745 2296.18358978 801.44275865 2298.56790904 798.3671875 2300.953125 C784.92796309 2311.31308686 771.1659598 2321.23874862 757.26220703 2330.96337891 C755.75103829 2332.02182234 754.24420391 2333.08644956 752.73828125 2334.15234375 C739.91530251 2343.21504207 726.71065406 2351.73252777 713.4921875 2360.203125 C712.42653564 2360.88665039 712.42653564 2360.88665039 711.33935547 2361.58398438 C689.89606265 2375.30846608 668.13224409 2388.4674236 645.89111328 2400.85742188 C643.15982626 2402.3895666 640.45104811 2403.95754425 637.74487305 2405.53344727 C632.05133287 2408.84200022 626.25710728 2411.88499182 620.35009766 2414.7890625 C614.82756825 2417.51087132 609.3671893 2420.34256377 603.91162109 2423.19604492 C569.69709462 2441.0757859 534.44458187 2457.13041698 498.4921875 2471.203125 C497.5565094 2471.57056824 497.5565094 2471.57056824 496.60192871 2471.94543457 C463.33925828 2485.00426587 429.71632159 2496.91425369 395.4921875 2507.203125 C394.42258789 2507.52474609 393.35298828 2507.84636719 392.25097656 2508.17773438 C385.34698891 2510.24210811 378.42395491 2512.23436529 371.4921875 2514.203125 C370.42629395 2514.50927734 369.36040039 2514.81542969 368.26220703 2515.13085938 C287.92232469 2538.15516514 204.78535712 2551.97979665 121.4921875 2558.203125 C120.25231079 2558.29636551 119.01243408 2558.38960602 117.73498535 2558.485672 C90.57997096 2560.44071014 63.4397248 2560.54601282 36.22485352 2560.51879883 C31.2143452 2560.51418077 26.20408043 2560.52105786 21.19360352 2560.53930664 C-67.2003903 2560.85806003 -154.80606772 2551.3303611 -241.215271 2532.69732666 C-243.44332987 2532.21702548 -245.67207642 2531.74002009 -247.90087891 2531.26318359 C-273.0260941 2525.86384491 -297.78073061 2519.1844569 -322.5078125 2512.203125 C-323.52524536 2511.91662079 -323.52524536 2511.91662079 -324.56323242 2511.62432861 C-398.53754797 2490.76772134 -469.46869278 2461.81878401 -538.5078125 2428.203125 C-539.38872559 2427.77435059 -540.26963867 2427.34557617 -541.17724609 2426.90380859 C-553.56111906 2420.85235647 -565.6811576 2414.37699106 -577.74755859 2407.71777344 C-580.43707753 2406.24193977 -583.13611724 2404.78555278 -585.83984375 2403.3359375 C-632.3306118 2378.35906166 -676.88877265 2349.30760975 -719.5078125 2318.203125 C-720.28560059 2317.6369043 -721.06338867 2317.07068359 -721.86474609 2316.48730469 C-737.03616567 2305.43254885 -751.92145517 2294.02047279 -766.5078125 2282.203125 C-767.09771973 2281.72520508 -767.68762695 2281.24728516 -768.29541016 2280.75488281 C-772.41586738 2277.415069 -776.53099787 2274.06877355 -780.64355469 2270.71923828 C-782.2440758 2269.41760967 -783.84824444 2268.12046843 -785.453125 2266.82421875 C-796.00518687 2258.27232383 -806.2195448 2249.31994477 -816.2890625 2240.20703125 C-818.49648756 2238.21335334 -820.71482626 2236.2334634 -822.9453125 2234.265625 C-823.56277344 2233.72035156 -824.18023438 2233.17507812 -824.81640625 2232.61328125 C-826.66398756 2231.02190461 -826.66398756 2231.02190461 -829.5078125 2229.203125 C-829.5078125 2228.543125 -829.5078125 2227.883125 -829.5078125 2227.203125 C-830.08015625 2226.95949219 -830.6525 2226.71585938 -831.2421875 2226.46484375 C-833.91214788 2224.97795202 -835.64610257 2223.22228592 -837.7578125 2221.015625 C-840.38133621 2218.28198989 -843.05539868 2215.71486313 -845.94018555 2213.26416016 C-851.61261531 2208.31803747 -856.88632666 2202.96888416 -862.19921875 2197.64453125 C-863.31430261 2196.53012282 -864.42953472 2195.41586271 -865.54490662 2194.30174255 C-867.87035012 2191.97776479 -870.19399761 2189.65201036 -872.51635742 2187.32495117 C-875.47369153 2184.36192049 -878.43549378 2181.4034033 -881.39866734 2178.44621372 C-883.69891848 2176.14959868 -885.99675481 2173.85057934 -888.29389763 2171.55085564 C-889.38426547 2170.45982694 -890.4753593 2169.36952323 -891.56723213 2168.28000069 C-896.91586016 2162.94036494 -902.20785104 2157.59384118 -907.09605408 2151.82286072 C-908.4778321 2150.23752205 -909.92818546 2148.7831412 -911.4453125 2147.328125 C-913.5078125 2145.203125 -913.5078125 2145.203125 -913.5078125 2143.203125 C-914.1678125 2143.203125 -914.8278125 2143.203125 -915.5078125 2143.203125 C-916.8125 2141.9453125 -916.8125 2141.9453125 -918.3828125 2140.078125 C-919.0015625 2139.35109375 -919.6203125 2138.6240625 -920.2578125 2137.875 C-921.0003125 2136.99328125 -921.7428125 2136.1115625 -922.5078125 2135.203125 C-924.46215507 2132.90803971 -926.42238613 2130.61801405 -928.3828125 2128.328125 C-928.90190186 2127.7204126 -929.42099121 2127.1127002 -929.95581055 2126.48657227 C-932.98525174 2122.94820387 -936.05862865 2119.45993458 -939.1953125 2116.015625 C-942.99606185 2111.82593002 -946.58488338 2107.49619476 -950.140625 2103.09765625 C-952.19202381 2100.58926265 -954.282778 2098.12152048 -956.39550781 2095.66479492 C-961.77325473 2089.40135814 -966.83314997 2082.93933473 -971.8137207 2076.35644531 C-974.77958073 2072.44191546 -977.7923028 2068.59535736 -980.9453125 2064.828125 C-991.55409861 2052.00836701 -1001.03408132 2038.1919173 -1010.73144531 2024.67724609 C-1012.06603765 2022.81842824 -1013.40459919 2020.96245917 -1014.74511719 2019.10791016 C-1021.1161482 2010.2702281 -1027.23134764 2001.27850799 -1033.2578125 1992.203125 C-1033.97531174 1991.12430054 -1033.97531174 1991.12430054 -1034.70730591 1990.02368164 C-1052.66259164 1963.01557715 -1069.58524003 1935.46057838 -1085.5078125 1907.203125 C-1085.90178223 1906.50896484 -1086.29575195 1905.81480469 -1086.70166016 1905.09960938 C-1098.95957329 1883.49707521 -1110.85576154 1861.52275652 -1121.26953125 1838.96875 C-1123.0566113 1835.10640538 -1124.95414681 1831.30731456 -1126.87109375 1827.5078125 C-1130.42619833 1820.44404028 -1133.76172054 1813.28924675 -1137.0078125 1806.078125 C-1137.44951782 1805.09818573 -1137.44951782 1805.09818573 -1137.90014648 1804.09844971 C-1150.58842159 1775.89056877 -1162.05067036 1747.23193438 -1172.76092529 1718.21984863 C-1173.4451763 1716.37225348 -1174.13653887 1714.52729611 -1174.82861328 1712.68261719 C-1210.19246747 1618.40744498 -1231.63461919 1518.34388402 -1245.4765625 1393.34375 C-1245.53904175 1392.6900946 -1245.601521 1392.03643921 -1245.66589355 1391.36297607 C-1248.93672931 1355.70869298 -1249.84397678 1320.03910317 -1249.76855469 1284.25146484 C-1249.75716126 1278.79675969 -1249.76394919 1273.34224982 -1249.77543354 1267.88755131 C-1249.82295357 1241.26467323 -1249.28098972 1214.7693923 -1247.5078125 1188.203125 C-1247.4345575 1187.09777405 -1247.36130249 1185.9924231 -1247.28582764 1184.85357666 C-1246.87307449 1178.81667655 -1246.37794863 1172.7907481 -1245.8203125 1166.765625 C-1245.73955475 1165.874198 -1245.658797 1164.982771 -1245.57559204 1164.06433105 C-1242.04889002 1125.46878505 -1237.17326335 1086.94859462 -1230.00531006 1048.85467529 C-1229.48716388 1046.09307249 -1228.97689446 1043.33008454 -1228.46728516 1040.56689453 C-1210.16851302 941.85385448 -1179.99516772 845.34919791 -1136.98144531 750.45898438 C-1135.63210008 747.47772724 -1134.29651388 744.49091817 -1132.96875 741.5 C-1128.77820601 732.06885144 -1124.39370365 722.78180436 -1119.7109375 713.5859375 C-1118.30405198 710.79957331 -1116.92101913 708.00193616 -1115.5390625 705.203125 C-1108.52055221 691.01216644 -1101.21185755 677.0329641 -1093.5078125 663.203125 C-1092.93885254 662.17767578 -1092.36989258 661.15222656 -1091.78369141 660.09570312 C-1084.53096948 647.02852097 -1077.20373932 634.01495297 -1069.5078125 621.203125 C-1068.72736572 619.90109131 -1068.72736572 619.90109131 -1067.93115234 618.57275391 C-1059.73669299 604.92792731 -1051.28051541 591.48316077 -1042.5078125 578.203125 C-1042.12431641 577.62030762 -1041.74082031 577.03749023 -1041.34570312 576.43701172 C-1035.53101339 567.60315615 -1029.52992856 558.89626454 -1023.5078125 550.203125 C-1022.69884521 549.03402588 -1022.69884521 549.03402588 -1021.87353516 547.84130859 C-1009.4572049 529.92175655 -996.58982864 512.3985569 -983.12011719 495.25634766 C-981.62295718 493.34975837 -980.13082866 491.43937203 -978.640625 489.52734375 C-968.84481623 476.97668351 -958.82359916 464.62538747 -948.4140625 452.578125 C-946.00757016 449.79199884 -943.63211206 446.98133727 -941.26513672 444.16162109 C-936.55272784 438.55034227 -931.72196533 433.07492942 -926.765625 427.67578125 C-924.85600099 425.58444561 -922.98449998 423.47053636 -921.1328125 421.328125 C-916.05723154 415.49886148 -910.77167782 409.86159239 -905.5078125 404.203125 C-904.93621902 403.58796524 -904.36462555 402.97280548 -903.77571106 402.33900452 C-893.83938581 391.66148806 -883.6867535 381.22363138 -873.359375 370.92431641 C-870.97797761 368.54835825 -868.60208007 366.16699169 -866.2265625 363.78515625 C-864.68521691 362.24447038 -863.14356174 360.70409416 -861.6015625 359.1640625 C-860.9055896 358.46606537 -860.2096167 357.76806824 -859.49255371 357.04891968 C-855.51995842 353.09505627 -851.44552089 349.31988733 -847.19299316 345.66812134 C-845.19979084 343.9353492 -843.34190734 342.10272323 -841.5078125 340.203125 C-831.19095203 329.76417151 -831.19095203 329.76417151 -826.5078125 328.203125 C-826.5078125 327.543125 -826.5078125 326.883125 -826.5078125 326.203125 C-824.97585978 324.83100199 -823.37860169 323.5315804 -821.7578125 322.265625 C-817.5219398 318.88235745 -813.46951033 315.40187542 -809.5078125 311.703125 C-804.92932495 307.44699359 -800.21487409 303.42983505 -795.34375 299.5078125 C-792.2519306 296.9951769 -789.22357016 294.4165037 -786.1953125 291.828125 C-780.02222233 286.57255715 -773.6788235 281.55695809 -767.27832031 276.58251953 C-764.91364185 274.74020937 -762.55994925 272.88413181 -760.20605469 271.02807617 C-722.3135216 241.16905433 -682.68448659 213.6446412 -641.60546875 188.3515625 C-638.39433612 186.37316241 -635.19277014 184.38128161 -632.00390625 182.3671875 C-631.30402588 181.92576416 -630.60414551 181.48434082 -629.88305664 181.02954102 C-628.6187939 180.23067757 -627.35605392 179.42939459 -626.09545898 178.62475586 C-621.64607541 175.81745838 -617.06733654 173.29462441 -612.43945312 170.79418945 C-607.45326898 168.08808002 -602.51590036 165.29500874 -597.5703125 162.515625 C-565.5798405 144.58499277 -565.5798405 144.58499277 -550.67480469 137.27490234 C-548.31170205 136.10613031 -545.9600545 134.91621126 -543.609375 133.72265625 C-501.21025964 112.23760253 -457.12419769 92.55615491 -412.1875 76.92578125 C-410.88292847 76.47091843 -410.88292847 76.47091843 -409.55200195 76.00686646 C-407.74912191 75.37829069 -405.94612269 74.75005666 -404.14300537 74.12216187 C-401.67898404 73.26282194 -399.21641022 72.39949033 -396.75439453 71.53442383 C-306.29982609 39.78488045 -212.49159492 18.03361879 -42.5078125 1.203125 C-41.75750417 1.15793858 -41.00719584 1.11275215 -40.23415089 1.06619644 C-26.81821034 0.27838802 -13.43720954 0.02526176 0 0 Z M-63.5078125 204.203125 C-65.45556183 204.38188578 -67.40331587 204.5605953 -69.35107422 204.73925781 C-124.37162662 209.85755931 -178.91300721 218.66272178 -232.5078125 232.203125 C-233.1904718 232.37459045 -233.8731311 232.54605591 -234.57647705 232.72271729 C-302.50266206 249.79592177 -371.41530792 272.22352705 -433.8203125 304.34375 C-436.77168187 305.85304937 -439.75812248 307.27675469 -442.7578125 308.6875 C-453.21777409 313.60713417 -463.4887766 318.70435983 -473.57397461 324.35620117 C-478.22702737 326.96204183 -482.89927877 329.43315757 -487.6953125 331.765625 C-495.22772746 335.46529171 -502.38201235 339.74179771 -509.57568359 344.05126953 C-512.18432625 345.60643456 -514.81452825 347.12328471 -517.4453125 348.640625 C-540.79910688 362.26631236 -563.79849069 376.71151044 -585.74609375 392.5078125 C-588.35666417 394.38444048 -590.97986941 396.24150053 -593.61328125 398.0859375 C-603.39285647 404.93580455 -613.00972193 411.96803595 -622.5078125 419.203125 C-623.36584473 419.85643799 -623.36584473 419.85643799 -624.24121094 420.52294922 C-628.01081045 423.39823612 -631.7628252 426.29586186 -635.5078125 429.203125 C-636.07209961 429.63979492 -636.63638672 430.07646484 -637.21777344 430.52636719 C-644.42785403 436.11186743 -651.51459962 441.80570004 -658.421875 447.76342773 C-662.30928187 451.10385969 -662.30928187 451.10385969 -664.5078125 452.203125 C-664.5078125 452.863125 -664.5078125 453.523125 -664.5078125 454.203125 C-665.03246094 454.4196875 -665.55710937 454.63625 -666.09765625 454.859375 C-669.44262568 456.72431744 -672.19996118 459.19538143 -675.0703125 461.703125 C-675.99577881 462.50399536 -675.99577881 462.50399536 -676.93994141 463.32104492 C-681.70734395 467.46284122 -686.39101166 471.69029431 -691.046875 475.95703125 C-695.13817226 479.69115177 -699.28439093 483.36583199 -703.5546875 486.89453125 C-704.52148438 487.69697266 -704.52148438 487.69697266 -705.5078125 488.515625 C-706.0853125 488.98613281 -706.6628125 489.45664062 -707.2578125 489.94140625 C-708.74241251 491.14391227 -708.74241251 491.14391227 -708.5078125 493.203125 C-709.07364548 493.4439682 -709.63947845 493.6848114 -710.22245789 493.93295288 C-712.97555054 495.46308808 -714.84725477 497.29561728 -717.07348633 499.52587891 C-717.97154495 500.4208609 -718.86960358 501.3158429 -719.7948761 502.23794556 C-720.76837674 503.2183494 -721.74169467 504.1989347 -722.71484375 505.1796875 C-723.72332321 506.18936061 -724.73217432 507.19866264 -725.74137878 508.20761108 C-727.8568232 510.32461882 -729.96887088 512.44493854 -732.07836914 514.56787109 C-734.7628799 517.26927321 -737.45382663 519.96414546 -740.14717579 522.65673256 C-742.23316932 524.74300024 -744.31652908 526.83188176 -746.39905357 528.92161179 C-747.38909164 529.91480151 -748.3797096 530.90741356 -749.3709507 531.89940262 C-754.42598777 536.96242646 -759.38870084 542.05175871 -764.0358429 547.49427795 C-766.55740131 550.42161941 -769.23203429 553.20579198 -771.8828125 556.015625 C-776.58485454 561.03521803 -781.02783178 566.18325897 -785.328125 571.5546875 C-787.6545207 574.38138335 -790.0895318 577.07371402 -792.5703125 579.765625 C-796.31559566 583.84407752 -799.84611963 588.01384131 -803.265625 592.3671875 C-805.4929059 595.18427101 -807.76081417 597.9636999 -810.03759766 600.74072266 C-822.38700754 615.82555411 -834.06048449 631.42574011 -845.5078125 647.203125 C-846.24555908 648.21963135 -846.98330566 649.2361377 -847.7434082 650.28344727 C-854.49108378 659.63002731 -860.93646722 669.16794746 -867.3203125 678.765625 C-867.84561554 679.55415863 -868.37091858 680.34269226 -868.91213989 681.15512085 C-877.03345291 693.35476386 -884.95236849 705.6431958 -892.5078125 718.203125 C-893.25575697 719.43014709 -894.00441388 720.65673529 -894.75390625 721.8828125 C-897.0391874 725.63642193 -899.2791337 729.41568299 -901.5078125 733.203125 C-902.04631836 734.11626465 -902.58482422 735.0294043 -903.13964844 735.97021484 C-911.9114714 750.88612564 -920.18273372 765.98462982 -928.05712891 781.39160156 C-929.37435276 783.94447095 -930.7180085 786.47971731 -932.08203125 789.0078125 C-939.51043085 802.78349704 -946.0416661 816.95558557 -952.5078125 831.203125 C-953.28608398 832.91459717 -953.28608398 832.91459717 -954.08007812 834.66064453 C-991.03817943 916.17274662 -1017.70059087 1002.20199304 -1042.5078125 1156.203125 C-1042.6413916 1157.33637207 -1042.7749707 1158.46961914 -1042.91259766 1159.63720703 C-1043.852288 1167.73754637 -1044.63216556 1175.84715161 -1045.31774902 1183.97253418 C-1045.51486968 1186.28594831 -1045.7208669 1188.59848409 -1045.92675781 1190.91113281 C-1051.0470988 1249.69681566 -1051.03553949 1310.4516221 -1045.5078125 1369.203125 C-1045.32906826 1371.1577118 -1045.15035827 1373.11230173 -1044.97167969 1375.06689453 C-1040.28382679 1425.62438121 -1032.26283998 1475.79462609 -1020.5078125 1525.203125 C-1020.20013813 1526.50926387 -1019.89252342 1527.8154168 -1019.58496094 1529.12158203 C-1004.59577866 1592.50431618 -983.76705053 1655.00973246 -956.5078125 1714.203125 C-955.72494873 1715.90879639 -955.72494873 1715.90879639 -954.92626953 1717.64892578 C-951.63961793 1724.79780277 -948.32078937 1731.93091892 -944.97998047 1739.0546875 C-943.67802605 1741.83909947 -942.38872341 1744.62881239 -941.10546875 1747.421875 C-936.29250238 1757.8360461 -930.96143779 1767.90095694 -925.40625 1777.9375 C-923.27566305 1781.78835917 -921.20408007 1785.66323056 -919.17651367 1789.5690918 C-913.05087908 1801.36040105 -906.27226398 1812.77030313 -899.5078125 1824.203125 C-898.74380127 1825.5010498 -898.74380127 1825.5010498 -897.96435547 1826.82519531 C-885.61219896 1847.79619188 -872.44222912 1868.24964721 -858.5078125 1888.203125 C-858.01361816 1888.91339844 -857.51942383 1889.62367187 -857.01025391 1890.35546875 C-845.19762019 1907.31400777 -832.89839372 1923.88732477 -820.12890625 1940.13671875 C-818.60335291 1942.08133976 -817.08544482 1944.03162954 -815.5703125 1945.984375 C-810.24597637 1952.83141712 -804.76708425 1959.5153697 -799.1328125 1966.109375 C-796.66865286 1968.9986382 -794.2712025 1971.93830958 -791.8828125 1974.890625 C-788.15903164 1979.474774 -784.25983277 1983.86456134 -780.2578125 1988.20703125 C-778.5078125 1990.203125 -778.5078125 1990.203125 -777.5078125 1992.203125 C-776.8478125 1992.203125 -776.1878125 1992.203125 -775.5078125 1992.203125 C-775.24299072 1992.79013184 -774.97816895 1993.37713867 -774.70532227 1993.98193359 C-773.46768675 1996.27755192 -772.14675273 1997.86268881 -770.34765625 1999.7421875 C-769.72375 2000.39968994 -769.09984375 2001.05719238 -768.45703125 2001.73461914 C-767.46123047 2002.77090454 -767.46123047 2002.77090454 -766.4453125 2003.828125 C-765.06817772 2005.27655249 -763.69187145 2006.72576818 -762.31640625 2008.17578125 C-761.65366699 2008.8733252 -760.99092773 2009.57086914 -760.30810547 2010.28955078 C-758.15949168 2012.57336348 -756.07735029 2014.91008583 -754.0078125 2017.265625 C-749.4659781 2022.37193213 -744.61049905 2027.15524337 -739.734375 2031.93969727 C-736.41641999 2035.21219491 -733.34269427 2038.49030112 -730.5078125 2042.203125 C-728.98773408 2043.97589759 -728.98773408 2043.97589759 -727.5078125 2045.203125 C-726.8478125 2045.203125 -726.1878125 2045.203125 -725.5078125 2045.203125 C-725.5078125 2045.863125 -725.5078125 2046.523125 -725.5078125 2047.203125 C-724.22550169 2048.49900547 -724.22550169 2048.49900547 -722.4453125 2049.890625 C-718.0595383 2053.60407018 -714.04333548 2057.61929924 -710.0078125 2061.703125 C-705.6746387 2066.07479949 -701.35658444 2070.3725304 -696.6484375 2074.34375 C-693.58516816 2077.004546 -690.65228098 2079.80030708 -687.6953125 2082.578125 C-682.66995046 2087.28364271 -677.51806599 2091.73163569 -672.140625 2096.03515625 C-669.39812096 2098.29344963 -666.7984366 2100.66093834 -664.1953125 2103.078125 C-659.60853365 2107.30004644 -654.83599784 2111.15413488 -649.90649414 2114.95874023 C-645.6950493 2118.22479363 -641.64550018 2121.63443172 -637.6328125 2125.140625 C-630.91900449 2130.97427202 -623.88418964 2136.28965572 -616.72509766 2141.56103516 C-614.35406061 2143.31699146 -611.99803169 2145.09170829 -609.64453125 2146.87109375 C-599.07439024 2154.85930929 -588.39202305 2162.64873416 -577.5078125 2170.203125 C-576.54045166 2170.87649902 -575.57309082 2171.54987305 -574.57641602 2172.24365234 C-566.87287268 2177.59473445 -559.12321382 2182.87258743 -551.3203125 2188.078125 C-550.7375354 2188.46708954 -550.1547583 2188.85605408 -549.55432129 2189.25680542 C-540.32490263 2195.40823151 -530.99794177 2201.36177934 -521.46630859 2207.03564453 C-519.55429497 2208.1754163 -517.64925772 2209.32599242 -515.74609375 2210.48046875 C-507.96166264 2215.1937508 -500.10419125 2219.77508098 -492.21875 2224.31713867 C-488.13839888 2226.66942442 -484.08402903 2229.05060938 -480.0703125 2231.515625 C-475.737947 2234.14198129 -471.24283305 2236.350768 -466.6953125 2238.578125 C-463.31152293 2240.30319419 -460.04056503 2242.16815989 -456.7578125 2244.078125 C-451.92789196 2246.87277622 -447.06078751 2249.49389004 -442.05859375 2251.96484375 C-441.36745987 2252.30810196 -440.67632599 2252.65136017 -439.96424866 2253.00502014 C-438.52292311 2253.72040436 -437.08112205 2254.4348313 -435.63885498 2255.14831543 C-433.61205217 2256.15152913 -431.58726446 2257.15869216 -429.56298828 2258.16699219 C-397.84420144 2273.94160261 -365.45702922 2288.19275139 -332.5078125 2301.203125 C-331.61642578 2301.55632813 -330.72503906 2301.90953125 -329.80664062 2302.2734375 C-313.24474016 2308.80348704 -296.39453807 2314.57421648 -279.5078125 2320.203125 C-279.50422997 2318.44834146 -279.50422997 2318.44834146 -279.50057507 2316.65810776 C-279.44296271 2288.76090749 -279.3700562 2260.86377869 -279.27882622 2232.96666752 C-279.26756079 2229.51781776 -279.25642189 2226.06896761 -279.24536133 2222.62011719 C-279.24315764 2221.93363925 -279.24095396 2221.24716132 -279.2386835 2220.53988102 C-279.20350622 2209.48811517 -279.17853241 2198.43634937 -279.15746548 2187.38454863 C-279.1355461 2176.00740104 -279.10213159 2164.63033838 -279.05911094 2153.25324845 C-279.0353578 2146.87849423 -279.01651259 2140.50381801 -279.01019859 2134.12902069 C-278.95376043 2083.86825129 -276.052608 2034.9081008 -255.5078125 1988.203125 C-255.17056152 1987.42308105 -254.83331055 1986.64303711 -254.48583984 1985.83935547 C-244.68248745 1963.36190154 -231.38771752 1943.11941117 -214.39038086 1925.46289062 C-212.40860492 1923.38728502 -210.67979399 1921.55695071 -209.41796875 1918.9609375 C-208.20225121 1916.61298517 -206.87344319 1916.33996519 -204.5078125 1915.203125 C-202.68139401 1913.57461564 -200.89419099 1911.90176947 -199.1328125 1910.203125 C-194.04169098 1905.38088941 -188.65760569 1901.2515745 -182.87744141 1897.2890625 C-181.40757753 1896.27954289 -179.95563213 1895.24401308 -178.5078125 1894.203125 C-178.5078125 1893.873125 -178.5078125 1893.543125 -178.5078125 1893.203125 C-179.07551865 1893.13319336 -179.64322479 1893.06326172 -180.22813416 1892.99121094 C-225.61336734 1887.38596102 -270.8369093 1881.10711941 -315.5078125 1871.203125 C-316.75369141 1870.93177734 -317.99957031 1870.66042969 -319.28320312 1870.38085938 C-365.40076448 1860.29038512 -410.09384529 1845.68805831 -453.5078125 1827.203125 C-455.19028076 1826.48745361 -455.19028076 1826.48745361 -456.90673828 1825.75732422 C-470.03242833 1820.11397265 -482.57864405 1813.59258499 -495.02880859 1806.59326172 C-497.27099558 1805.33592346 -499.5214341 1804.0957704 -501.77734375 1802.86328125 C-518.39721866 1793.73736247 -534.18865224 1783.36167286 -549.5078125 1772.203125 C-550.07612793 1771.78933594 -550.64444336 1771.37554688 -551.22998047 1770.94921875 C-558.52679275 1765.61041013 -565.56644308 1759.9939912 -572.5078125 1754.203125 C-573.50296875 1753.38328125 -574.498125 1752.5634375 -575.5234375 1751.71875 C-590.32819273 1739.4409617 -605.05085903 1726.18452054 -617.53125 1711.515625 C-619.09910941 1709.68129146 -620.68795905 1707.87601117 -622.296875 1706.078125 C-635.61315581 1691.10456875 -647.47658985 1674.92107823 -658.5078125 1658.203125 C-658.98283203 1657.48366699 -659.45785156 1656.76420898 -659.94726562 1656.02294922 C-671.43143114 1638.50543588 -681.4998248 1620.10995276 -690.5078125 1601.203125 C-690.88083496 1600.42130859 -691.25385742 1599.63949219 -691.63818359 1598.83398438 C-730.20631273 1517.37557176 -745.76948737 1427.35566153 -725.5078125 1119.203125 C-716.04105549 1093.23297444 -705.06753031 1068.30178362 -691.5078125 1044.203125 C-690.76520364 1042.86742168 -690.02297226 1041.53150836 -689.28125 1040.1953125 C-684.69016728 1031.98063376 -679.71748531 1024.0353826 -674.5078125 1016.203125 C-673.88350342 1015.26364014 -673.88350342 1015.26364014 -673.24658203 1014.30517578 C-661.63161787 996.91988694 -648.70460297 980.59498421 -635.1328125 964.703125 C-634.62032959 964.10282471 -634.10784668 963.50252441 -633.57983398 962.8840332 C-629.69827422 958.36446179 -629.69827422 958.36446179 -627.80908203 956.76416016 C-627.37966309 956.24901855 -626.95024414 955.73387695 -626.5078125 955.203125 C-627.39912443 949.12052332 -629.34007307 943.38386147 -631.22338867 937.54272461 C-652.71048034 870.7689375 -653.8682764 799.96769269 -642.5078125 731.203125 C-642.3020459 729.95128418 -642.0962793 728.69944336 -641.88427734 727.40966797 C-637.93906673 704.19904444 -631.42405388 681.67588513 -624.5078125 659.203125 C-624.25908386 658.39043152 -624.01035522 657.57773804 -623.75408936 656.74041748 C-622.36559483 652.2214739 -620.93545952 647.71998824 -619.43392944 643.23727417 C-618.98771374 641.89480034 -618.55178172 640.54885893 -618.12686157 639.19949341 C-614.94126304 629.16605361 -614.94126304 629.16605361 -611.71679688 627 C-609.58667249 626.41005457 -607.71488605 626.25822045 -605.5078125 626.203125 C-604.06856268 626.00319712 -602.62976554 625.79998711 -601.19140625 625.59375 C-549.61777742 620.61377131 -496.14970031 637.64161848 -449.11816406 657.12451172 C-446.25014276 658.30959572 -443.37521563 659.47701669 -440.5 660.64453125 C-429.55591173 665.11463973 -418.83396422 669.79289063 -408.34814453 675.25292969 C-405.87440463 676.53016445 -403.37896483 677.76144117 -400.8828125 678.99414062 C-382.21483702 688.23403575 -363.99760899 698.0860219 -346.07226562 708.69628906 C-342.80325438 710.61711327 -339.5027991 712.47439414 -336.1953125 714.328125 C-328.20007146 718.87596613 -320.4645152 723.83361015 -312.71777344 728.78955078 C-310.78824205 730.0237517 -308.85579004 731.2531553 -306.921875 732.48046875 C-305.29378906 733.51880859 -305.29378906 733.51880859 -303.6328125 734.578125 C-302.5396875 735.27421875 -301.4465625 735.9703125 -300.3203125 736.6875 C-297.24333212 738.6838341 -294.25083592 740.78636965 -291.2578125 742.90625 C-290.32952637 743.55287598 -289.40124023 744.19950195 -288.44482422 744.86572266 C-286.60551329 746.14931193 -284.77832477 747.45049488 -282.96533203 748.77099609 C-279.06304506 751.47440104 -276.59278192 753.16104547 -271.78125 753.34765625 C-270.34488187 753.01368367 -268.92116269 752.62399591 -267.5078125 752.203125 C-266.00565186 751.81205566 -266.00565186 751.81205566 -264.47314453 751.41308594 C-261.34865069 750.58669419 -258.23582082 749.7250242 -255.12368774 748.85348511 C-186.90811731 729.90094399 -115.73855217 720.33430711 -45.23626709 715.39453125 C-43.48226341 715.27148457 -41.72838479 715.14663466 -39.97467041 715.01953125 C9.48046983 711.43519414 60.0455556 711.58856369 109.4921875 715.203125 C110.86751648 715.30140594 110.86751648 715.30140594 112.27062988 715.40167236 C184.74291177 720.59348472 257.0741902 730.74705172 327.18847656 750.20654297 C327.92407303 750.40918259 328.65966949 750.6118222 329.41755676 750.82060242 C331.36740517 751.36024142 333.31456428 751.90957204 335.26147461 752.4597168 C338.99726366 753.31934633 342.0182106 754.00578569 345.46484375 752.12890625 C346.15449219 751.59652344 346.84414062 751.06414063 347.5546875 750.515625 C352.566195 746.82763135 357.7058066 743.39631127 362.9296875 740.015625 C363.7961792 739.45464111 364.6626709 738.89365723 365.55541992 738.31567383 C368.19879458 736.60802419 370.84486917 734.9046535 373.4921875 733.203125 C374.28866699 732.69056152 375.08514648 732.17799805 375.90576172 731.64990234 C386.89712485 724.59306526 398.05047969 717.84827924 409.3203125 711.24609375 C413.12118131 709.0182619 416.8936088 706.74978056 420.65209961 704.45141602 C427.01619406 700.56642217 433.48259851 697.1339467 440.1875 693.87109375 C443.23932335 692.33075265 446.13463962 690.66498837 449.0546875 688.890625 C456.25295686 684.60249934 463.83694037 681.15332003 471.41796875 677.6015625 C475.3433757 675.75997806 479.2068361 673.8276422 483.0546875 671.828125 C541.9129406 642.22486161 613.82413559 617.05798667 680.4921875 627.203125 C680.57339844 627.97140625 680.65460938 628.7396875 680.73828125 629.53125 C681.77427223 634.57700918 683.67813577 639.16671566 685.5546875 643.953125 C700.76518369 683.74753241 710.36299236 725.81511007 714.4921875 768.203125 C714.59515137 769.18748535 714.69811523 770.1718457 714.80419922 771.18603516 C719.13077682 813.25567996 716.63279403 855.75474356 708.4921875 897.203125 C708.27723633 898.29850586 708.06228516 899.39388672 707.84082031 900.52246094 C704.1360223 918.86924095 698.47818068 936.50092677 692.4921875 954.203125 C693.16113037 954.93337891 693.83007324 955.66363281 694.51928711 956.41601562 C695.40624268 957.38732422 696.29319824 958.35863281 697.20703125 959.359375 C698.08222412 960.31650391 698.95741699 961.27363281 699.85913086 962.25976562 C703.11974388 965.90463819 706.21562811 969.66275013 709.28515625 973.46875 C710.73208157 975.26140084 712.19263324 977.04315688 713.66796875 978.8125 C736.40636039 1006.11472513 754.45566441 1036.60531693 770.4921875 1068.203125 C770.91854492 1069.0290918 771.34490234 1069.85505859 771.78417969 1070.70605469 C802.81866229 1131.07686025 817.61358733 1202.80224879 817.66015625 1270.3125 C817.66424171 1271.80164645 817.66852444 1273.29079238 817.67298889 1274.77993774 C817.68445901 1279.50434673 817.68317756 1284.22870665 817.6796875 1288.953125 C817.67942062 1289.75917427 817.67915375 1290.56522354 817.67887878 1291.39569855 C817.6692024 1314.64320647 817.61598635 1337.84196897 815.67254639 1361.02331543 C815.4791812 1363.36031859 815.29778883 1365.69807243 815.11767578 1368.03613281 C809.41566022 1441.11551163 794.88188267 1514.77309809 765.4921875 1582.203125 C765.08871094 1583.13415039 764.68523437 1584.06517578 764.26953125 1585.02441406 C744.87805981 1629.55120039 719.68761681 1671.67709026 686.828125 1707.62109375 C685.56294659 1709.01956019 684.3038585 1710.42416155 683.08081055 1711.85961914 C678.0503165 1717.74436237 672.63097756 1723.21663468 667.1496582 1728.67602539 C665.55759784 1730.26272446 663.9709576 1731.85470242 662.38476562 1733.44726562 C656.92756752 1738.90872534 651.40629321 1744.23308434 645.4921875 1749.203125 C644.85966064 1749.74235596 644.22713379 1750.28158691 643.57543945 1750.8371582 C633.61016368 1759.29311069 623.32751047 1767.18856147 612.6328125 1774.69775391 C610.64043717 1776.09887004 608.65934464 1777.51459788 606.6796875 1778.93359375 C594.73293111 1787.40947017 582.11988585 1794.79769971 569.4921875 1802.203125 C568.72874023 1802.65461914 567.96529297 1803.10611328 567.17871094 1803.57128906 C509.28613046 1837.71875747 442.78423431 1857.82165681 377.4921875 1872.203125 C376.40212402 1872.44981934 375.31206055 1872.69651367 374.18896484 1872.95068359 C331.83461706 1882.50922758 288.5244496 1887.76090401 245.4921875 1893.203125 C248.18826313 1895.93233321 250.9049728 1898.40400122 253.9296875 1900.765625 C309.28663625 1944.7422906 337.06967356 2005.87886629 345.10556889 2075.56123257 C346.55905697 2089.25288387 346.65962907 2102.89738109 346.69750977 2116.65209961 C346.70710781 2118.88088657 346.71711896 2121.10967179 346.72750854 2123.3384552 C346.75435517 2129.34562854 346.77547328 2135.35280957 346.79551053 2141.36000896 C346.81749616 2147.65404683 346.84482286 2153.94806155 346.87156677 2160.24208069 C346.91568294 2170.79215481 346.95654601 2181.34223758 346.99487305 2191.89233398 C347.03433153 2202.75139291 347.07578194 2213.61044127 347.11987305 2224.46948242 C347.12259732 2225.14060257 347.12532159 2225.81172272 347.12812842 2226.50317984 C347.1418096 2229.87052056 347.15552953 2233.23786112 347.16926873 2236.6052016 C347.28282901 2264.47115433 347.38972378 2292.33712941 347.4921875 2320.203125 C351.33642005 2318.76319555 355.18043563 2317.32268775 359.02441406 2315.88208008 C360.10639069 2315.47681343 361.18836731 2315.07154678 362.3031311 2314.65399933 C384.28412056 2306.41491811 405.98533303 2297.61293554 427.4921875 2288.203125 C428.6786084 2287.68540527 429.8650293 2287.16768555 431.08740234 2286.63427734 C443.70586173 2281.11744108 456.25002316 2275.53497891 468.49316406 2269.22460938 C471.56350504 2267.65569063 474.65543747 2266.1307413 477.74462891 2264.59936523 C507.02969345 2250.05737295 535.504125 2234.09323539 563.4921875 2217.203125 C564.87132324 2216.37264648 564.87132324 2216.37264648 566.27832031 2215.52539062 C580.58294795 2206.88201473 594.47814755 2197.6479999 608.34057617 2188.31933594 C611.48630044 2186.20707798 614.64074015 2184.1083807 617.796875 2182.01171875 C622.42662639 2178.92686268 627.01564249 2175.79478916 631.5546875 2172.578125 C632.26310791 2172.07651855 632.97152832 2171.57491211 633.70141602 2171.05810547 C651.29435878 2158.55345896 668.47827534 2145.52332168 685.28515625 2131.98046875 C686.80338393 2130.75782522 688.32715893 2129.54204844 689.85546875 2128.33203125 C696.28752971 2123.23357144 702.55763998 2117.9556951 708.80566406 2112.63525391 C710.48581594 2111.20853548 712.17155314 2109.78872681 713.859375 2108.37109375 C719.7442066 2103.42428639 725.54708601 2098.41267948 731.23828125 2093.2421875 C733.2610144 2091.41226253 735.30588185 2089.61430772 737.3671875 2087.828125 C753.74045898 2073.54228255 769.43864767 2058.4436961 784.79833984 2043.08227539 C787.04116588 2040.84169567 789.29196989 2038.60931869 791.54296875 2036.37695312 C792.97444361 2034.94840278 794.40545233 2033.51938513 795.8359375 2032.08984375 C796.50757935 2031.42538742 797.17922119 2030.76093109 797.87121582 2030.07633972 C798.48025757 2029.46422134 799.08929932 2028.85210297 799.71679688 2028.22143555 C800.52377014 2027.41659981 800.52377014 2027.41659981 801.3470459 2026.59550476 C802.70392195 2025.24614256 802.70392195 2025.24614256 802.4921875 2023.203125 C803.4821875 2022.873125 804.4721875 2022.543125 805.4921875 2022.203125 C807.12037744 2020.61588985 807.12037744 2020.61588985 808.70703125 2018.64453125 C812.95850076 2013.63367134 817.45483174 2008.88330091 821.97460938 2004.11523438 C825.01413581 2000.89415024 828.02731082 1997.65364154 830.95703125 1994.33203125 C831.44679443 1993.77717041 831.93655762 1993.22230957 832.44116211 1992.65063477 C833.68803639 1991.23153446 833.68803639 1991.23153446 833.4921875 1989.203125 C834.1521875 1989.203125 834.8121875 1989.203125 835.4921875 1989.203125 C836.84600899 1987.71574265 838.12358636 1986.15881949 839.3671875 1984.578125 C842.94655143 1980.09818392 846.60807836 1975.72036193 850.3671875 1971.390625 C854.8221124 1966.23281038 859.10437006 1960.97051852 863.28125 1955.58569336 C866.20548977 1951.82052637 869.19370067 1948.11819844 872.22851562 1944.44165039 C878.53951919 1936.78325884 884.43384882 1928.89987795 890.1875 1920.81640625 C892.37588746 1917.74422195 894.59800282 1914.70245384 896.859375 1911.68359375 C905.5878214 1900.02867494 913.72458637 1888.04296749 921.7265625 1875.87939453 C923.65225666 1872.96049804 925.60026365 1870.05741029 927.55395508 1867.15722656 C940.95571376 1847.23219557 953.22658371 1826.63718055 965.05175781 1805.74755859 C965.95292412 1804.15570177 966.85566361 1802.56473335 967.76074219 1800.97509766 C975.79250998 1786.85536828 983.20992136 1772.41422227 990.59838867 1757.9510498 C991.43930484 1756.30654304 992.28303507 1754.66347611 993.12695312 1753.02050781 C1013.73449419 1712.83973048 1030.75456539 1670.86196495 1045.4921875 1628.203125 C1045.74957703 1627.45911438 1046.00696655 1626.71510376 1046.27215576 1625.94854736 C1073.59293748 1546.83918012 1091.14869839 1465.12973887 1100.1171875 1373.515625 C1100.28383911 1371.74082764 1100.28383911 1371.74082764 1100.45385742 1369.93017578 C1100.75463903 1366.55271906 1101.03072632 1363.17500752 1101.29006958 1359.79418945 C1101.43481681 1357.93859242 1101.58600706 1356.08349358 1101.74142456 1354.22875977 C1103.64888343 1331.11938577 1103.83550476 1308.06978974 1103.80786133 1284.89355469 C1103.80325576 1280.70822324 1103.81007412 1276.52318424 1103.82836914 1272.33789062 C1103.98951369 1235.06834557 1102.45737402 1197.99723274 1098.1796875 1160.953125 C1098.07547485 1160.02684296 1097.97126221 1159.10056091 1097.8638916 1158.14620972 C1087.75750341 1068.47318713 1067.02638118 980.09944844 991.4921875 797.203125 C990.71149902 795.60887695 990.71149902 795.60887695 989.91503906 793.98242188 C985.21840689 784.40676406 980.51713531 774.89933229 975.01953125 765.75390625 C973.53021312 763.2666307 972.12401528 760.75148161 970.7421875 758.203125 C970.24847656 757.29433594 969.75476562 756.38554688 969.24609375 755.44921875 C968.30566215 753.70868721 967.36621341 751.96761328 966.43310547 750.22314453 C953.47742703 726.03522453 938.92264139 702.94529684 923.54394531 680.24194336 C921.45361956 677.14600278 919.38321775 674.0374591 917.31640625 670.92578125 C914.22690737 666.2864185 911.08996113 661.6882911 907.8671875 657.140625 C907.36558105 656.43220459 906.86397461 655.72378418 906.34716797 654.99389648 C889.65709364 631.51242325 872.06668021 608.70646365 853.37207031 586.78393555 C850.54472798 583.46557741 847.78571044 580.10096862 845.0546875 576.703125 C840.67533872 571.31739086 835.99173912 566.25495701 831.2578125 561.18359375 C829.16307826 558.93713811 827.11889081 556.65839072 825.1171875 554.328125 C821.07122757 549.64122093 816.80298119 545.15816488 812.55322266 540.65673828 C809.05808042 536.94005241 805.72513614 533.14999228 802.4921875 529.203125 C800.93116259 527.38758341 800.93116259 527.38758341 799.4921875 526.203125 C798.8321875 526.203125 798.1721875 526.203125 797.4921875 526.203125 C797.1621875 525.213125 796.8321875 524.223125 796.4921875 523.203125 C795.8321875 523.203125 795.1721875 523.203125 794.4921875 523.203125 C794.2653125 522.65140625 794.0384375 522.0996875 793.8046875 521.53125 C792.10492824 518.51620083 789.94413934 516.39082131 787.4921875 513.953125 C786.6053125 513.06109375 785.7184375 512.1690625 784.8046875 511.25 C782.75729647 508.98219427 782.75729647 508.98219427 780.4921875 509.203125 C780.4921875 508.543125 780.4921875 507.883125 780.4921875 507.203125 C779.14281413 505.8390022 779.14281413 505.8390022 777.3046875 504.390625 C773.32238279 501.01662971 769.65345282 497.415571 765.9921875 493.703125 C761.99387552 489.66337091 757.97353534 485.74585274 753.63671875 482.06640625 C751.3303409 480.06250418 749.09989765 477.9904571 746.86767578 475.90478516 C741.53600996 470.92475943 736.10908273 466.16866675 730.41796875 461.59765625 C726.98290863 458.78631866 723.64501799 455.8756984 720.3046875 452.953125 C709.01239798 443.10486227 697.34823571 433.73304788 685.41699219 424.67138672 C683.17734723 422.96296145 680.94819223 421.2412484 678.71875 419.51953125 C666.8731431 410.39554322 654.82810198 401.65045336 642.4921875 393.203125 C641.40421875 392.45595215 640.31625 391.7087793 639.1953125 390.93896484 C624.81262061 381.06760166 610.38288694 371.29830481 595.4921875 362.203125 C594.54843262 361.62643066 593.60467773 361.04973633 592.63232422 360.45556641 C578.55658037 351.88213831 564.32217237 343.62714671 549.93945312 335.58105469 C547.78624084 334.36869135 545.64374836 333.14090278 543.5078125 331.8984375 C535.6381818 327.32265675 527.62640554 323.17929905 519.45849609 319.17236328 C517.04843319 317.9843884 514.65070936 316.77235073 512.25292969 315.55981445 C508.67504641 313.75602086 505.08405798 311.97886631 501.4921875 310.203125 C500.42081543 309.67299805 499.34944336 309.14287109 498.24560547 308.59667969 C479.23535293 299.20887226 460.04683396 290.39801696 440.4921875 282.203125 C439.62255371 281.83703125 438.75291992 281.4709375 437.85693359 281.09375 C410.96790022 269.84488275 383.27117976 260.00059596 355.4921875 251.203125 C353.64173828 250.616521 353.64173828 250.616521 351.75390625 250.01806641 C277.15081368 226.4847875 200.30628796 211.46302032 122.42315674 204.46740723 C119.6433569 204.21675578 116.86442611 203.95782852 114.08544922 203.69824219 C55.63699141 198.35880562 -5.09132265 198.68591724 -63.5078125 204.203125 Z " fill="#FFFFFF" transform="translate(1250.5078125,0.796875)"/>
</svg>
