<?xml version="1.0" encoding="UTF-8"?>
<svg version="1.1" xmlns="http://www.w3.org/2000/svg" width="64" height="64">
<path d="M0 0 C6.72301752 4.29561422 10.58961837 9.76687866 13.06640625 17.3203125 C13.06640625 17.9803125 13.06640625 18.6403125 13.06640625 19.3203125 C10.44140625 19.9453125 10.44140625 19.9453125 7.06640625 19.3203125 C5.28157846 16.9315956 3.93308861 14.43839362 2.5234375 11.8125 C0.8197419 8.89840405 -1.10794065 7.14867627 -3.93359375 5.3203125 C-4.38734375 6.1246875 -4.84109375 6.9290625 -5.30859375 7.7578125 C-6.93359375 10.3203125 -6.93359375 10.3203125 -8.93359375 11.3203125 C-11.26658035 11.36053641 -13.60066041 11.36351497 -15.93359375 11.3203125 C-15.91296875 12.1246875 -15.89234375 12.9290625 -15.87109375 13.7578125 C-15.93359375 16.3203125 -15.93359375 16.3203125 -16.93359375 17.3203125 C-18.5997649 17.36095082 -20.2674747 17.3630335 -21.93359375 17.3203125 C-21.93359375 19.3003125 -21.93359375 21.2803125 -21.93359375 23.3203125 C-20.94359375 23.3203125 -19.95359375 23.3203125 -18.93359375 23.3203125 C-18.93359375 25.6303125 -18.93359375 27.9403125 -18.93359375 30.3203125 C-23.34870149 29.83318152 -25.2380602 28.46978053 -28.24609375 25.2578125 C-28.94347656 24.52433594 -29.64085937 23.79085937 -30.359375 23.03515625 C-31.13861328 22.18630859 -31.13861328 22.18630859 -31.93359375 21.3203125 C-32.39151037 27.84562432 -31.44273243 30.83728331 -27.93359375 36.3203125 C-27.93359375 36.9803125 -27.93359375 37.6403125 -27.93359375 38.3203125 C-26.81984375 38.7534375 -26.81984375 38.7534375 -25.68359375 39.1953125 C-22.93359375 40.3203125 -22.93359375 40.3203125 -20.99609375 41.3828125 C-18.35853804 42.58170146 -15.79155281 42.93059081 -12.93359375 43.3203125 C-12.93359375 45.3003125 -12.93359375 47.2803125 -12.93359375 49.3203125 C-21.15422379 48.73312464 -27.0225517 46.69065473 -32.74609375 40.5703125 C-37.64798668 34.50449978 -39.56532411 28.71381098 -39.27734375 20.90234375 C-38.31726471 13.690841 -35.39259396 7.67091269 -29.97265625 2.79296875 C-21.00355798 -3.68471333 -9.94743169 -5.08938366 0 0 Z " fill="#E7E9EC" transform="translate(44.93359375,8.6796875)"/>
<path d="M0 0 C2.89468864 1.58094533 5.00897757 3.36838775 7 6 C8.0325616 9.67850071 8.39115888 11.88240321 7.125 15.5 C6.71978762 18.07098589 6.71978762 18.07098589 8.48828125 19.86328125 C10.27256593 21.64756593 12.09219472 23.34910616 14 25 C13.01 26.32 12.02 27.64 11 29 C8.4342812 27.90040623 7.09695444 27.12678658 5.375 24.875 C2.05060655 22.25047885 -0.48606974 22.87773522 -4.59375 23.046875 C-7.80678925 22.98428333 -9.53577241 22.01618621 -12 20 C-12.5775 19.5875 -13.155 19.175 -13.75 18.75 C-15.74959383 15.95056863 -15.82497819 13.383755 -16 10 C-15.13165756 5.94773528 -13.07015265 3.48258012 -9.76953125 0.9609375 C-6.50459004 -0.81207693 -3.48788713 -0.93904653 0 0 Z M-8.875 7.1875 C-10.40659584 9.65507108 -10.42822025 11.14519831 -10 14 C-8.98029682 15.93654948 -8.98029682 15.93654948 -7 17 C-3.85514075 17.39310741 -1.86718329 17.47555213 0.9375 15.9375 C2.64787795 12.81857551 1.80513863 10.34442199 1 7 C-2.3146051 5.34269745 -5.70112148 5.17737694 -8.875 7.1875 Z " fill="#E8EAED" transform="translate(44,27)"/>
</svg>
