<svg version="1.1" id="Layer_1" xmlns="http://www.w3.org/2000/svg" xmlns:xlink="http://www.w3.org/1999/xlink" x="0px" y="0px"
	 width="100%" viewBox="0 0 512 512" enable-background="new 0 0 512 512" xml:space="preserve">
<path fill="#0077F0" opacity="1.000000" stroke="none" 
	d="
M288.000000,513.000000 
	C267.645782,513.000000 247.291550,513.000000 226.738861,512.649780 
	C224.438950,511.816742 222.337494,511.334015 220.206451,510.393250 
	C220.106857,484.943024 220.036865,459.950836 220.044678,434.499023 
	C220.090332,428.584381 220.058182,423.129425 220.006836,417.267426 
	C220.310028,409.946198 220.632446,403.032013 220.968781,395.637573 
	C220.988464,385.687531 221.047882,376.217224 220.955093,366.748352 
	C220.936356,364.835785 220.341415,362.928802 220.009521,360.549377 
	C220.005264,340.262207 219.956985,320.444702 220.022186,300.627594 
	C220.053452,291.119965 222.601379,282.600677 230.245224,276.213348 
	C232.257080,274.532196 234.061798,272.603180 236.273438,270.579468 
	C240.388885,269.526062 244.192551,268.681244 248.408539,267.884583 
	C254.606339,267.011322 260.391815,266.089905 266.631531,265.234589 
	C279.712708,265.257202 292.339691,265.213715 305.311707,265.364716 
	C313.446136,266.686707 321.235443,267.814209 329.376648,269.106628 
	C339.175079,271.145782 348.664001,272.831116 358.058685,274.936981 
	C373.552277,278.410034 383.601349,288.056335 387.925385,303.203979 
	C389.406464,308.392578 389.321564,314.028137 389.918518,319.889771 
	C389.783691,327.548401 389.682404,334.776794 389.283875,341.893555 
	C388.472046,341.146484 387.884186,340.556854 387.454132,339.868622 
	C382.431793,331.831177 373.340637,328.127106 364.705353,330.627625 
	C356.153198,333.104126 351.006958,340.485962 351.001617,350.311096 
	C350.994934,362.629517 350.957733,374.948212 351.044128,387.266022 
	C351.057556,389.183075 351.658508,391.096069 351.919495,393.421814 
	C351.882507,401.884796 351.913849,409.936890 351.698914,418.322693 
	C351.309326,419.298981 351.041473,419.941406 351.040710,420.584137 
	C351.012817,443.841980 350.993164,467.099915 351.050110,490.357635 
	C351.053131,491.588593 351.733398,492.817902 351.918945,494.372131 
	C331.854858,502.502411 311.585693,508.846375 290.209564,511.081879 
	C289.414886,511.164978 288.733948,512.335938 288.000000,513.000000 
z"/>
<path fill="#000000" opacity="1.000000" stroke="none" 
	d="
M288.468628,513.000000 
	C288.733948,512.335938 289.414886,511.164978 290.209564,511.081879 
	C311.585693,508.846375 331.854858,502.502411 352.292969,494.339325 
	C365.235443,487.373260 377.624390,480.764130 390.368164,474.080170 
	C398.403503,468.252258 406.123566,462.551056 413.756592,456.735687 
	C431.833252,442.963623 446.232727,425.786865 459.245941,407.346130 
	C470.425171,391.504272 479.326569,374.413330 486.160950,356.319031 
	C494.223328,334.973572 500.229004,313.089935 501.461426,289.851868 
	C501.555328,274.211792 501.457031,258.799713 500.951721,243.400970 
	C500.437653,227.735703 496.706635,212.620575 492.268158,197.669907 
	C484.525421,171.589005 472.997864,147.289673 456.762390,125.464523 
	C448.785645,114.741516 439.580200,104.932541 431.126953,94.444588 
	C442.071808,85.769142 450.921265,75.785660 457.164581,63.545364 
	C462.720703,52.652306 466.881561,41.416103 466.872253,28.551521 
	C468.409210,18.435347 470.493073,8.591973 460.492554,1.696018 
	C460.661682,1.464006 460.830841,1.231999 461.000000,0.999996 
	C478.323730,1.000000 495.647461,1.000000 512.978394,0.999999 
	C512.985596,171.562424 512.985596,342.124847 512.985596,513.000000 
	C438.312744,513.000000 363.625031,513.000000 288.468628,513.000000 
z"/>
<path fill="#000000" opacity="1.000000" stroke="none" 
	d="
M220.236053,510.851288 
	C222.337494,511.334015 224.438950,511.816742 226.270203,512.649780 
	C151.040222,513.000000 76.080452,513.000000 1.060336,513.000000 
	C1.060336,342.333344 1.060336,171.666672 1.060336,1.000000 
	C27.090536,1.000000 53.076611,1.000000 79.854019,1.276518 
	C79.030342,2.585057 77.504784,3.806777 75.785461,4.617610 
	C66.252586,9.113295 60.141876,16.581564 57.048904,26.478786 
	C54.108524,35.887730 54.546925,45.467327 55.932339,55.145622 
	C58.032188,69.814857 66.692360,78.888504 79.895897,84.780067 
	C79.895897,85.985359 79.895897,87.464783 79.484253,88.971359 
	C74.032333,90.051811 68.992043,91.105118 63.542244,92.092834 
	C58.000134,93.015724 52.886337,94.118034 47.731075,94.969208 
	C36.675301,96.794609 28.017267,106.810486 28.002056,118.007835 
	C27.974009,138.654037 27.965284,159.300293 27.634869,180.149231 
	C24.293367,190.539963 21.265505,200.727997 18.148647,211.317810 
	C14.157854,227.405823 11.867346,243.313416 12.041268,259.493958 
	C12.174574,271.895721 12.251736,284.324402 13.160601,296.681793 
	C13.720436,304.293579 15.796249,311.793854 17.119633,319.725159 
	C19.775160,329.586182 22.502464,339.066284 25.202526,348.934570 
	C30.111937,360.248627 35.048588,371.174500 40.020119,382.461914 
	C41.984646,386.374451 43.666218,390.090332 45.894569,393.442749 
	C50.824295,400.859192 56.028938,408.092896 61.076477,415.759399 
	C62.858700,418.478302 64.707886,420.822449 66.496201,423.212158 
	C66.899673,423.751312 67.329430,424.443726 67.343811,425.074799 
	C67.522797,432.928375 69.207474,434.720062 77.098351,435.463440 
	C87.126389,444.657074 96.694679,453.957153 107.005936,462.343750 
	C124.702469,476.737183 144.618774,487.492737 165.746490,496.007355 
	C183.323441,503.091003 201.518799,507.937134 220.236053,510.851288 
z"/>
<path fill="#000000" opacity="1.000000" stroke="none" 
	d="
M105.000000,1.000000 
	C180.354233,1.000000 255.708450,1.000000 331.757629,1.328672 
	C330.507507,2.807815 328.576965,3.983677 326.614960,5.104415 
	C317.527954,10.295078 311.076202,17.524483 308.425354,28.001232 
	C297.463226,26.323763 286.929382,23.553110 276.322784,23.239166 
	C256.401093,22.649502 236.458282,22.379614 216.576538,25.822275 
	C192.510208,29.989527 169.606812,37.256653 147.761642,48.039684 
	C141.849655,50.957920 135.997711,53.997799 130.064484,56.515358 
	C129.673538,46.657845 130.028519,37.176788 128.821884,27.898825 
	C127.351349,16.591761 114.432892,4.459357 104.936417,2.578135 
	C104.844826,1.803941 104.922417,1.401970 105.000000,1.000000 
z"/>
<path fill="#000000" opacity="1.000000" stroke="none" 
	d="
M356.000000,0.999995 
	C386.687561,1.000000 417.375122,1.000000 448.844482,1.270775 
	C445.395996,4.910152 442.156067,8.813418 442.659760,13.040392 
	C440.070404,15.564201 437.340454,17.017199 436.930420,18.959848 
	C436.509003,20.956512 438.181030,23.518133 439.269562,25.663797 
	C439.914398,26.934832 441.202637,27.879454 442.121399,29.384281 
	C441.448212,32.657623 440.985504,35.551926 440.240814,38.371761 
	C435.861847,54.953178 425.576447,67.262230 411.680542,77.018951 
	C401.280060,69.905579 391.203064,62.939663 381.243225,55.571533 
	C382.434052,45.185059 383.286438,35.079918 379.876282,25.468166 
	C375.981873,14.491277 368.814240,6.278701 356.940002,2.648169 
	C356.520630,1.903084 356.260315,1.451537 356.000000,0.999995 
z"/>
<path fill="#FEBFAB" opacity="1.000000" stroke="none" 
	d="
M104.531349,1.000000 
	C104.922417,1.401970 104.844826,1.803941 104.613777,2.728723 
	C103.421219,3.776793 102.363762,4.268880 101.345818,4.832339 
	C88.505867,11.939587 80.477180,22.028643 80.970482,37.486626 
	C81.113655,41.973225 80.987839,46.468243 80.994453,50.959389 
	C81.017647,66.714256 89.819641,78.858429 104.888161,84.412567 
	C104.876900,86.505119 104.911087,88.180511 104.861603,90.295547 
	C104.689217,92.887764 104.745461,95.058029 104.485184,97.189651 
	C103.632607,104.171928 98.699303,108.795952 92.391701,108.669380 
	C85.886078,108.538826 81.076569,103.371246 80.708008,96.262001 
	C80.581169,93.815277 80.174652,91.383057 79.895905,88.944206 
	C79.895897,87.464783 79.895897,85.985359 79.895897,84.780067 
	C66.692360,78.888504 58.032188,69.814857 55.932339,55.145622 
	C54.546925,45.467327 54.108524,35.887730 57.048904,26.478786 
	C60.141876,16.581564 66.252586,9.113295 75.785461,4.617610 
	C77.504784,3.806777 79.030342,2.585057 80.322678,1.276518 
	C88.020897,1.000000 96.041801,1.000000 104.531349,1.000000 
z"/>
<path fill="#BB5D4C" opacity="1.000000" stroke="none" 
	d="
M355.531372,0.999995 
	C356.260315,1.451537 356.520630,1.903084 356.618347,2.801036 
	C355.118958,3.920048 353.759491,4.551364 352.448975,5.271692 
	C339.998260,12.115150 332.700562,22.128096 332.978912,36.843647 
	C333.066956,41.497974 332.988007,46.155376 332.994110,50.811359 
	C333.014496,66.392288 341.895416,78.746536 356.774109,84.396568 
	C356.797394,86.500496 356.877380,88.185295 356.904175,90.310989 
	C356.598328,93.554588 356.606232,96.411263 356.039337,99.148926 
	C354.810883,105.081619 349.397125,109.148529 343.812592,108.652580 
	C337.847015,108.122795 333.185791,103.218452 332.847809,97.096107 
	C332.710846,94.615196 332.607849,92.132416 332.516907,89.268951 
	C333.243347,85.622826 331.948517,83.978462 328.842407,82.464798 
	C316.569885,76.484146 309.141968,66.557686 308.136597,52.878067 
	C307.532074,44.652206 308.538391,36.307964 308.820801,28.016924 
	C311.076202,17.524483 317.527954,10.295078 326.614960,5.104415 
	C328.576965,3.983677 330.507507,2.807815 332.226257,1.328672 
	C339.687592,1.000000 347.375153,1.000000 355.531372,0.999995 
z"/>
<path fill="#C96E59" opacity="1.000000" stroke="none" 
	d="
M442.201599,28.970856 
	C441.202637,27.879454 439.914398,26.934832 439.269562,25.663797 
	C438.181030,23.518133 436.509003,20.956512 436.930420,18.959848 
	C437.340454,17.017199 440.070404,15.564201 442.659760,13.040392 
	C442.156067,8.813418 445.395996,4.910152 449.313171,1.270775 
	C452.692902,1.000000 456.385834,1.000000 460.539368,0.999996 
	C460.830841,1.231999 460.661682,1.464006 460.492554,1.696018 
	C470.493073,8.591973 468.409210,18.435347 466.556274,28.646259 
	C458.712067,36.827290 453.060272,37.117905 444.772003,30.327406 
	C444.037628,29.725756 443.064056,29.416124 442.201599,28.970856 
z"/>
<path fill="#93D0FD" opacity="1.000000" stroke="none" 
	d="
M308.425354,28.001232 
	C308.538391,36.307964 307.532074,44.652206 308.136597,52.878067 
	C309.141968,66.557686 316.569885,76.484146 328.842407,82.464798 
	C331.948517,83.978462 333.243347,85.622826 332.126221,89.333801 
	C325.137970,90.927452 318.567871,92.074715 311.597504,93.207336 
	C308.106323,93.797073 305.020477,94.429108 301.923584,95.001030 
	C288.503113,97.479477 280.740509,106.348900 279.688904,120.188416 
	C278.688446,120.518997 278.055359,120.738106 277.403839,120.843040 
	C252.528076,124.849091 235.883270,138.871231 227.080292,162.331329 
	C222.569290,174.353210 224.544922,186.962494 223.852982,199.345093 
	C223.243530,210.251724 226.477249,219.612778 233.246399,228.219696 
	C233.494171,228.719254 233.729477,228.921173 234.032227,229.020691 
	C234.035919,228.992599 233.981323,228.978271 233.992126,229.335037 
	C238.717407,235.406235 243.431870,241.120667 248.085754,247.315460 
	C248.015533,254.476013 248.005875,261.156219 247.996216,267.836426 
	C244.192551,268.681244 240.388885,269.526062 235.851440,270.589966 
	C222.584595,273.260925 209.619415,274.170441 198.014450,280.981262 
	C195.749832,278.865326 193.814880,276.879852 191.913727,274.433411 
	C191.953598,252.977524 191.959702,231.982605 192.362457,210.868317 
	C201.392593,210.287231 201.995636,209.649185 201.998657,200.962723 
	C202.000107,196.797226 202.012924,192.631668 201.995422,188.466248 
	C201.966965,181.690857 200.972931,180.713226 194.135239,180.659012 
	C181.812561,180.561310 169.489899,180.462814 157.132111,179.949799 
	C157.018509,166.319427 156.940018,153.103928 156.920151,139.430023 
	C156.992111,132.342194 157.139801,125.709709 156.988403,119.084053 
	C156.738678,108.155602 149.726471,98.537758 139.109558,96.062775 
	C127.850983,93.438210 116.343857,91.879890 104.945282,89.855911 
	C104.911087,88.180511 104.876900,86.505119 105.251114,84.366348 
	C116.437210,79.702644 123.778267,72.146858 127.836876,61.326202 
	C128.406830,59.806637 129.348557,58.426514 130.118195,56.981842 
	C135.997711,53.997799 141.849655,50.957920 147.761642,48.039684 
	C169.606812,37.256653 192.510208,29.989527 216.576538,25.822275 
	C236.458282,22.379614 256.401093,22.649502 276.322784,23.239166 
	C286.929382,23.553110 297.463226,26.323763 308.425354,28.001232 
z"/>
<path fill="#955B50" opacity="1.000000" stroke="none" 
	d="
M389.952118,319.459503 
	C389.321564,314.028137 389.406464,308.392578 387.925385,303.203979 
	C383.601349,288.056335 373.552277,278.410034 358.058685,274.936981 
	C348.664001,272.831116 339.175079,271.145782 329.372894,268.641846 
	C329.016022,264.886810 329.115570,261.757355 328.991211,258.636871 
	C328.771088,253.113373 328.414886,247.595291 328.261353,241.778259 
	C330.949005,237.654373 333.490906,233.827209 336.012817,229.998093 
	C335.992828,229.996140 335.998566,230.037476 336.287720,229.990692 
	C336.819611,229.639801 337.062408,229.335693 337.527039,228.792969 
	C340.825653,222.694839 343.902435,216.835373 347.449677,210.978683 
	C378.602081,210.983810 409.283997,210.986145 439.979187,211.457672 
	C440.050201,237.962784 440.107971,263.998688 440.101685,290.495728 
	C440.025146,297.109467 440.006287,303.262146 440.001617,309.414795 
	C439.994568,318.704834 439.906647,318.811401 430.423462,319.964508 
	C425.293701,319.968079 420.622498,319.968658 415.580353,319.811981 
	C406.790314,319.589630 398.371216,319.524567 389.952118,319.459503 
z"/>
<path fill="#0167ED" opacity="1.000000" stroke="none" 
	d="
M198.344116,281.111725 
	C209.619415,274.170441 222.584595,273.260925 235.539642,270.798523 
	C234.061798,272.603180 232.257080,274.532196 230.245224,276.213348 
	C222.601379,282.600677 220.053452,291.119965 220.022186,300.627594 
	C219.956985,320.444702 220.005264,340.262207 220.005707,361.015747 
	C219.980988,372.326996 219.957443,382.701996 219.657318,392.888428 
	C217.895966,390.929626 216.398270,389.170044 214.928741,387.387238 
	C209.745407,381.098846 202.665985,380.962250 195.772720,382.460846 
	C188.575485,384.025482 184.063324,389.281921 182.487259,396.467590 
	C181.755234,399.805023 182.028839,403.384460 182.017609,406.854767 
	C181.974930,420.050812 185.869232,425.601440 197.532501,429.863129 
	C193.393158,429.992676 189.707993,430.053314 185.558533,430.034668 
	C168.407730,429.973816 151.721252,429.992279 134.781677,429.786102 
	C133.186325,429.386383 131.844055,429.211334 130.406708,428.572449 
	C130.215973,416.065186 130.120300,404.021790 130.148361,391.779846 
	C130.272095,391.581299 130.373672,391.124573 130.657074,391.149750 
	C131.313751,391.206268 131.687027,391.237610 132.272888,391.428894 
	C133.298981,391.482208 134.112503,391.375549 135.389832,391.190918 
	C140.249069,391.038086 144.644516,390.963165 149.500610,390.964355 
	C160.549194,391.040466 171.137100,391.040466 181.842148,391.040466 
	C181.842148,379.644409 181.842148,368.850769 181.908264,357.592529 
	C181.927826,352.729614 181.881256,348.331268 181.910919,343.473999 
	C182.001740,333.684845 182.086166,324.354065 182.014526,315.024506 
	C181.907028,301.022064 188.211899,290.157745 198.344116,281.111725 
z"/>
<path fill="#65BEFC" opacity="1.000000" stroke="none" 
	d="
M220.206451,510.393250 
	C201.518799,507.937134 183.323441,503.091003 165.746490,496.007355 
	C144.618774,487.492737 124.702469,476.737183 107.005936,462.343750 
	C96.694679,453.957153 87.126389,444.657074 77.556206,435.368164 
	C86.710304,435.440735 95.218201,434.402039 103.353661,429.822540 
	C104.731613,429.959045 105.733322,430.031158 106.900085,430.401428 
	C119.260422,442.927032 131.415482,455.195007 143.671021,467.361786 
	C148.497147,472.152924 153.563675,472.155823 158.665604,467.687531 
	C160.896210,465.733948 163.107971,463.758820 165.658035,461.852173 
	C168.163376,463.943848 170.292725,466.029266 172.524307,467.998840 
	C176.943161,471.898712 182.204651,472.117096 186.398529,468.037384 
	C194.119064,460.526978 201.563324,452.732544 209.411041,444.895844 
	C213.121872,441.476379 216.544388,438.217529 219.966888,434.958679 
	C220.036865,459.950836 220.106857,484.943024 220.206451,510.393250 
z"/>
<path fill="#0167ED" opacity="1.000000" stroke="none" 
	d="
M390.013336,474.155029 
	C377.624390,480.764130 365.235443,487.373260 352.472473,494.015198 
	C351.733398,492.817902 351.053131,491.588593 351.050110,490.357635 
	C350.993164,467.099915 351.012817,443.841980 351.040710,420.584137 
	C351.041473,419.941406 351.309326,419.298981 351.959167,418.539856 
	C357.936981,427.503021 366.296722,431.706940 374.681946,429.567719 
	C382.471405,427.580566 386.973480,422.225372 389.667236,415.413086 
	C389.841400,435.304535 389.927368,454.729797 390.013336,474.155029 
z"/>
<path fill="#0167ED" opacity="1.000000" stroke="none" 
	d="
M351.987793,393.010925 
	C351.658508,391.096069 351.057556,389.183075 351.044128,387.266022 
	C350.957733,374.948212 350.994934,362.629517 351.001617,350.311096 
	C351.006958,340.485962 356.153198,333.104126 364.705353,330.627625 
	C373.340637,328.127106 382.431793,331.831177 387.454132,339.868622 
	C387.884186,340.556854 388.472046,341.146484 389.403290,342.065674 
	C389.819977,342.349426 389.968231,342.739288 389.906311,343.220154 
	C389.903778,348.364105 389.963165,353.027222 389.962616,358.175476 
	C389.819946,371.455292 389.737213,384.250000 389.478271,396.755066 
	C385.553619,385.833344 379.956146,381.899323 368.958038,381.960846 
	C360.882721,382.006012 355.872437,386.607483 351.987793,393.010925 
z"/>
<path fill="#F4A86D" opacity="1.000000" stroke="none" 
	d="
M336.032837,230.000046 
	C333.490906,233.827209 330.949005,237.654373 327.978851,241.956512 
	C321.027649,246.776947 314.443726,251.035599 308.031525,255.538803 
	C306.695770,256.476898 305.594269,258.197632 305.112610,259.779266 
	C304.607697,261.437317 304.978546,263.362061 304.966675,265.170227 
	C292.339691,265.213715 279.712708,265.257202 266.620575,264.775208 
	C265.478363,261.414062 265.738647,257.352509 263.943146,255.979675 
	C259.149384,252.314346 253.472305,249.804306 248.146317,246.835098 
	C243.431870,241.120667 238.717407,235.406235 234.339020,229.375854 
	C241.247009,234.232712 248.651215,237.552658 257.039703,237.749847 
	C267.340118,237.992004 277.653320,237.691055 288.426880,237.714935 
	C304.999969,237.582047 321.623962,240.480515 336.032837,230.000046 
z"/>
<path fill="#0055CA" opacity="1.000000" stroke="none" 
	d="
M351.919495,393.421814 
	C355.872437,386.607483 360.882721,382.006012 368.958038,381.960846 
	C379.956146,381.899323 385.553619,385.833344 389.563232,397.213165 
	C389.742584,403.622894 389.660797,409.284912 389.579010,414.946899 
	C386.973480,422.225372 382.471405,427.580566 374.681946,429.567719 
	C366.296722,431.706940 357.936981,427.503021 352.205444,418.206116 
	C351.913849,409.936890 351.882507,401.884796 351.919495,393.421814 
z"/>
<path fill="#0055CA" opacity="1.000000" stroke="none" 
	d="
M197.986694,429.794250 
	C185.869232,425.601440 181.974930,420.050812 182.017609,406.854767 
	C182.028839,403.384460 181.755234,399.805023 182.487259,396.467590 
	C184.063324,389.281921 188.575485,384.025482 195.772720,382.460846 
	C202.665985,380.962250 209.745407,381.098846 214.928741,387.387238 
	C216.398270,389.170044 217.895966,390.929626 219.680313,393.217499 
	C220.304886,394.529358 220.629868,395.323578 220.954865,396.117798 
	C220.632446,403.032013 220.310028,409.946198 219.723907,417.486389 
	C215.082108,427.115997 207.865158,430.901306 197.986694,429.794250 
z"/>
<path fill="#65BBF8" opacity="1.000000" stroke="none" 
	d="
M389.968231,342.739288 
	C389.968231,342.739288 389.819977,342.349426 389.700562,342.177307 
	C389.682404,334.776794 389.783691,327.548401 389.918518,319.889771 
	C398.371216,319.524567 406.790314,319.589630 415.566711,320.283569 
	C415.923981,327.999146 415.923981,335.085876 415.923981,342.739288 
	C406.843414,342.739288 398.405823,342.739288 389.968231,342.739288 
z"/>
<path fill="#FEEDE6" opacity="1.000000" stroke="none" 
	d="
M197.532501,429.863129 
	C207.865158,430.901306 215.082108,427.115997 219.743134,417.893402 
	C220.058182,423.129425 220.090332,428.584381 220.044693,434.499023 
	C216.544388,438.217529 213.121872,441.476379 208.964478,444.879974 
	C204.831238,444.187073 200.752792,444.250916 198.184265,442.313232 
	C193.645737,438.889343 190.026718,434.246582 186.022827,430.113983 
	C189.707993,430.053314 193.393158,429.992676 197.532501,429.863129 
z"/>
<path fill="#7E4D44" opacity="1.000000" stroke="none" 
	d="
M305.311737,265.364746 
	C304.978546,263.362061 304.607697,261.437317 305.112610,259.779266 
	C305.594269,258.197632 306.695770,256.476898 308.031525,255.538803 
	C314.443726,251.035599 321.027649,246.776947 327.833130,242.253204 
	C328.414886,247.595291 328.771088,253.113373 328.991211,258.636871 
	C329.115570,261.757355 329.016022,264.886810 329.021057,268.476959 
	C321.235443,267.814209 313.446136,266.686707 305.311737,265.364746 
z"/>
<path fill="#7E4E44" opacity="1.000000" stroke="none" 
	d="
M248.085754,247.315460 
	C253.472305,249.804306 259.149384,252.314346 263.943146,255.979675 
	C265.738647,257.352509 265.478363,261.414062 266.166351,264.709106 
	C260.391815,266.089905 254.606339,267.011322 248.408539,267.884583 
	C248.005875,261.156219 248.015533,254.476013 248.085754,247.315460 
z"/>
<path fill="#137CEF" opacity="1.000000" stroke="none" 
	d="
M220.968781,395.637573 
	C220.629868,395.323578 220.304886,394.529358 219.956894,393.406067 
	C219.957443,382.701996 219.980988,372.326996 220.008316,361.485596 
	C220.341415,362.928802 220.936356,364.835785 220.955093,366.748352 
	C221.047882,376.217224 220.988464,385.687531 220.968781,395.637573 
z"/>
<path fill="#93D0FD" opacity="1.000000" stroke="none" 
	d="
M440.165741,290.034607 
	C440.107971,263.998688 440.050201,237.962784 440.376038,211.338776 
	C449.379211,210.289673 449.995941,209.641510 449.999390,201.029846 
	C450.001007,197.047073 450.005402,193.064285 449.998322,189.081528 
	C449.984863,181.540756 449.161591,180.675705 441.810150,180.663208 
	C430.525665,180.644043 419.240631,180.720428 407.956787,180.635132 
	C400.506287,180.578827 393.057404,180.310165 385.617157,179.659821 
	C385.626495,157.580597 385.626495,135.978134 385.626495,115.836884 
	C396.498749,111.343361 406.262756,107.307877 416.377380,103.185303 
	C421.462280,100.302109 426.196533,97.506020 430.930786,94.709915 
	C439.580200,104.932541 448.785645,114.741516 456.762390,125.464523 
	C472.997864,147.289673 484.525421,171.589005 492.268158,197.669907 
	C496.706635,212.620575 500.437653,227.735703 500.951721,243.400970 
	C501.457031,258.799713 501.555328,274.211792 500.988983,289.833801 
	C480.152405,290.044617 460.159088,290.039612 440.165741,290.034607 
z"/>
<path fill="#65BEFC" opacity="1.000000" stroke="none" 
	d="
M440.101685,290.495728 
	C460.159088,290.039612 480.152405,290.044617 500.618195,290.067657 
	C500.229004,313.089935 494.223328,334.973572 486.160950,356.319031 
	C479.326569,374.413330 470.425171,391.504272 459.245941,407.346130 
	C446.232727,425.786865 431.833252,442.963623 413.756592,456.735687 
	C406.123566,462.551056 398.403503,468.252258 390.368164,474.080200 
	C389.927368,454.729797 389.841400,435.304535 389.667236,415.413086 
	C389.660797,409.284912 389.742584,403.622894 389.739410,397.502808 
	C389.737213,384.250000 389.819946,371.455292 390.431091,358.178833 
	C399.178131,357.697083 407.396759,357.697083 415.903839,357.697083 
	C415.903839,376.737122 415.804443,394.840759 415.942963,412.942566 
	C416.019897,422.997284 413.472839,422.420563 425.965149,422.583893 
	C429.989532,422.636505 430.998688,421.009521 430.983734,417.224609 
	C430.855469,384.803955 430.893616,352.382660 430.881989,319.961548 
	C439.906647,318.811401 439.994568,318.704834 440.001617,309.414795 
	C440.006287,303.262146 440.025146,297.109467 440.101685,290.495728 
z"/>
<path fill="#BB5D4C" opacity="1.000000" stroke="none" 
	d="
M431.126953,94.444595 
	C426.196533,97.506020 421.462280,100.302109 416.131165,102.928391 
	C411.649658,96.230927 407.764984,89.703270 404.155334,82.956909 
	C406.954926,80.880920 409.479492,79.023659 412.004059,77.166397 
	C425.576447,67.262230 435.861847,54.953178 440.240814,38.371761 
	C440.985504,35.551926 441.448212,32.657623 442.121368,29.384291 
	C443.064056,29.416124 444.037628,29.725756 444.772003,30.327406 
	C453.060272,37.117905 458.712067,36.827290 466.488892,29.068884 
	C466.881561,41.416103 462.720703,52.652306 457.164581,63.545364 
	C450.921265,75.785660 442.071808,85.769142 431.126953,94.444595 
z"/>
<path fill="#4BCD5C" opacity="1.000000" stroke="none" 
	d="
M104.861603,90.295547 
	C116.343857,91.879890 127.850983,93.438210 139.109558,96.062775 
	C149.726471,98.537758 156.738678,108.155602 156.988403,119.084053 
	C157.139801,125.709709 156.992111,132.342194 156.703674,139.190826 
	C156.288193,139.109863 156.164322,138.800598 156.004913,138.510895 
	C153.086731,133.207397 147.769913,130.357605 142.991516,131.530670 
	C136.549667,133.112091 134.002441,136.577545 133.972473,143.813538 
	C133.960754,146.639236 133.769592,149.481064 134.004044,152.286804 
	C134.322083,156.092896 132.667114,157.179306 129.061768,157.074036 
	C123.589935,156.914276 118.104843,157.208542 112.335365,157.152893 
	C110.377327,155.425461 108.802116,153.739075 107.019295,152.312088 
	C104.418373,150.230301 100.879745,150.171204 99.965309,153.162231 
	C98.683380,157.355255 95.843193,157.021591 92.548225,157.362274 
	C91.069946,156.733322 89.521286,156.521729 88.946655,155.660355 
	C84.888428,149.576965 83.344879,149.356277 78.092911,154.452377 
	C77.153145,155.364258 76.106544,156.166000 74.633774,157.020325 
	C68.340569,157.013535 62.515446,156.823914 56.707851,157.061935 
	C53.003750,157.213760 51.794792,155.917053 51.847118,152.211914 
	C52.027157,139.464066 52.371262,126.690437 51.768471,113.968536 
	C51.286179,103.789665 54.804043,96.590981 63.951759,92.158424 
	C68.992043,91.105118 74.032333,90.051811 79.484261,88.971359 
	C80.174652,91.383057 80.581169,93.815277 80.708008,96.262001 
	C81.076569,103.371246 85.886078,108.538826 92.391701,108.669380 
	C98.699303,108.795952 103.632607,104.171928 104.485184,97.189651 
	C104.745461,95.058029 104.689217,92.887764 104.861603,90.295547 
z"/>
<path fill="#AC695D" opacity="1.000000" stroke="none" 
	d="
M157.167221,180.364655 
	C169.489899,180.462814 181.812561,180.561310 194.135239,180.659012 
	C200.972931,180.713226 201.966965,181.690857 201.995422,188.466248 
	C202.012924,192.631668 202.000107,196.797226 201.998657,200.962723 
	C201.995636,209.649185 201.392593,210.287231 191.896057,210.866898 
	C143.684616,210.994019 96.336220,211.003189 48.520195,210.994232 
	C38.114258,210.956100 28.175951,210.936050 18.237644,210.916016 
	C21.265505,200.727997 24.293367,190.539963 27.977428,180.382050 
	C44.355289,180.344742 60.076954,180.277313 76.224136,180.188080 
	C81.448570,180.143723 86.247482,180.121124 91.344948,180.135895 
	C92.043678,180.156647 92.443855,180.140060 92.984756,180.243622 
	C93.125473,180.363770 93.471497,180.477737 93.471497,180.477737 
	C93.471497,180.477737 93.821007,180.375656 94.291183,180.468079 
	C99.927551,180.477768 105.093727,180.395035 110.403442,180.426224 
	C110.546974,180.540146 110.908722,180.598923 111.380280,180.645737 
	C126.956970,180.583252 142.062088,180.473953 157.167221,180.364655 
z"/>
<path fill="#7E4C42" opacity="1.000000" stroke="none" 
	d="
M18.148647,211.317810 
	C28.175951,210.936050 38.114258,210.956100 48.518768,211.461533 
	C48.984592,244.176376 48.952351,276.405884 49.028259,308.635162 
	C49.036774,312.249847 49.657921,315.863068 49.533081,319.521973 
	C46.224110,319.695587 43.377029,319.824219 40.092060,319.966492 
	C35.006992,319.990662 30.359814,320.001221 25.383381,319.850891 
	C22.433222,319.574768 19.812315,319.459503 17.191410,319.344208 
	C15.796249,311.793854 13.720436,304.293579 13.160601,296.681793 
	C12.251736,284.324402 12.174574,271.895721 12.041268,259.493958 
	C11.867346,243.313416 14.157854,227.405823 18.148647,211.317810 
z"/>
<path fill="#F5A96D" opacity="1.000000" stroke="none" 
	d="
M102.977417,429.758148 
	C95.218201,434.402039 86.710304,435.440735 77.430733,435.063599 
	C69.207474,434.720062 67.522797,432.928375 67.343811,425.074799 
	C67.329430,424.443726 66.899673,423.751312 66.496201,423.212158 
	C64.707886,420.822449 62.858700,418.478302 61.283283,415.408936 
	C61.582779,414.541199 61.699390,414.367157 61.668346,414.225403 
	C60.378925,408.340637 60.165245,401.898651 57.500362,396.717987 
	C54.149124,390.202972 53.667843,387.900208 60.005547,383.421600 
	C63.692928,383.253998 66.985664,383.252472 70.264153,383.035614 
	C71.467613,382.955994 72.637360,382.366913 73.822479,382.010223 
	C73.338455,380.724854 73.190048,379.112427 72.311806,378.211243 
	C68.684349,374.489258 68.051407,370.587555 71.192276,366.049316 
	C76.020447,362.740814 79.787819,363.970306 83.242798,367.812469 
	C88.540726,373.704071 93.812469,379.628052 99.338600,385.301300 
	C101.570053,387.592102 104.442764,389.258240 107.031738,391.567017 
	C107.211189,392.556458 107.262863,393.254120 107.571396,393.808868 
	C114.958885,407.091583 114.115326,415.849487 104.379364,427.199310 
	C103.759766,427.921631 103.437828,428.899261 102.977417,429.758148 
z"/>
<path fill="#02C43C" opacity="1.000000" stroke="none" 
	d="
M75.798615,180.209869 
	C60.076954,180.277313 44.355289,180.344742 28.291069,180.179352 
	C27.965284,159.300293 27.974009,138.654037 28.002056,118.007835 
	C28.017267,106.810486 36.675301,96.794609 47.731075,94.969208 
	C52.886337,94.118034 58.000134,93.015724 63.542244,92.092834 
	C54.804043,96.590981 51.286179,103.789665 51.768471,113.968536 
	C52.371262,126.690437 52.027157,139.464066 51.847118,152.211914 
	C51.794792,155.917053 53.003750,157.213760 56.707851,157.061935 
	C62.515446,156.823914 68.340569,157.013535 74.512390,157.340820 
	C66.203392,166.632507 66.510071,174.051987 75.798615,180.209869 
z"/>
<path fill="#704740" opacity="1.000000" stroke="none" 
	d="
M25.712631,320.011780 
	C30.359814,320.001221 35.006992,319.990662 40.121380,320.438538 
	C40.647583,324.117371 40.706577,327.337738 40.571854,330.765991 
	C37.527634,333.952240 34.651054,336.906189 31.832346,339.914368 
	C26.828562,345.254456 26.850756,350.322998 31.846985,355.578613 
	C34.801708,358.686768 37.753296,361.797882 40.674927,365.379639 
	C40.424129,371.267883 40.204681,376.684113 39.985237,382.100372 
	C35.048588,371.174500 30.111937,360.248627 25.328588,348.588287 
	C25.558804,338.573151 25.635717,329.292480 25.712631,320.011780 
z"/>
<path fill="#65BCFA" opacity="1.000000" stroke="none" 
	d="
M40.020115,382.461914 
	C40.204681,376.684113 40.424129,371.267883 40.981430,365.562775 
	C47.414608,371.350098 53.509926,377.426239 59.605247,383.502380 
	C53.667843,387.900208 54.149124,390.202972 57.500362,396.717987 
	C60.165245,401.898651 60.378925,408.340637 61.668346,414.225403 
	C61.699390,414.367157 61.582779,414.541199 61.328239,415.050659 
	C56.028938,408.092896 50.824295,400.859192 45.894569,393.442749 
	C43.666218,390.090332 41.984646,386.374451 40.020115,382.461914 
z"/>
<path fill="#67B0E7" opacity="1.000000" stroke="none" 
	d="
M25.383381,319.850922 
	C25.635717,329.292480 25.558804,338.573151 25.355827,348.200104 
	C22.502464,339.066284 19.775160,329.586182 17.119633,319.725159 
	C19.812315,319.459503 22.433222,319.574768 25.383381,319.850922 
z"/>
<path fill="#FFCEBF" opacity="1.000000" stroke="none" 
	d="
M130.064484,56.515362 
	C129.348557,58.426514 128.406830,59.806637 127.836876,61.326202 
	C123.778267,72.146858 116.437210,79.702644 105.296570,83.949203 
	C89.819641,78.858429 81.017647,66.714256 80.994453,50.959389 
	C80.987839,46.468243 81.113655,41.973225 80.970482,37.486626 
	C80.477180,22.028643 88.505867,11.939587 101.345818,4.832339 
	C102.363762,4.268880 103.421219,3.776793 104.782959,3.100947 
	C114.432892,4.459357 127.351349,16.591761 128.821884,27.898825 
	C130.028519,37.176788 129.673538,46.657845 130.064484,56.515362 
z"/>
<path fill="#C96E59" opacity="1.000000" stroke="none" 
	d="
M356.830811,83.977440 
	C341.895416,78.746536 333.014496,66.392288 332.994110,50.811359 
	C332.988007,46.155376 333.066956,41.497974 332.978912,36.843647 
	C332.700562,22.128096 339.998260,12.115150 352.448975,5.271692 
	C353.759491,4.551364 355.118958,3.920048 356.777374,3.094573 
	C368.814240,6.278701 375.981873,14.491277 379.876282,25.468166 
	C383.286438,35.079918 382.434052,45.185059 381.105835,55.921440 
	C377.543365,69.908699 369.636292,79.097740 356.830811,83.977440 
z"/>
<path fill="#94CFFA" opacity="1.000000" stroke="none" 
	d="
M356.774109,84.396568 
	C369.636292,79.097740 377.543365,69.908699 380.988678,56.323650 
	C391.203064,62.939663 401.280060,69.905579 411.680542,77.018944 
	C409.479492,79.023659 406.954926,80.880920 403.816284,83.014374 
	C388.512970,90.584549 373.238220,93.763069 356.957336,89.870094 
	C356.877380,88.185295 356.797394,86.500496 356.774109,84.396568 
z"/>
<path fill="#FEB50A" opacity="1.000000" stroke="none" 
	d="
M356.904175,90.310989 
	C373.238220,93.763069 388.512970,90.584549 403.541260,83.233086 
	C407.764984,89.703270 411.649658,96.230927 415.780579,103.015488 
	C406.262756,107.307877 396.498749,111.343361 385.626495,115.836884 
	C385.626495,135.978134 385.626495,157.580597 385.251892,179.779999 
	C375.664520,180.525146 366.451752,180.673355 357.246948,180.499329 
	C357.510529,179.772507 357.704926,179.308685 358.030670,178.971939 
	C366.398682,170.321014 363.922302,160.670059 352.508270,157.027390 
	C351.189575,156.606537 349.944580,155.295242 349.127502,154.084869 
	C346.612274,150.358948 344.576538,150.035080 340.515015,152.890259 
	C331.916626,138.737656 320.589569,128.386688 304.659790,123.179535 
	C304.287628,122.971542 304.138763,122.888298 303.992371,122.350296 
	C303.996155,118.745422 304.209442,115.577858 303.952148,112.448997 
	C303.496307,106.905251 304.627258,101.921738 308.259155,97.615082 
	C309.498779,96.145172 310.751190,94.686035 311.997772,93.221970 
	C318.567871,92.074715 325.137970,90.927452 332.098755,89.715332 
	C332.607849,92.132416 332.710846,94.615196 332.847809,97.096107 
	C333.185791,103.218452 337.847015,108.122795 343.812592,108.652580 
	C349.397125,109.148529 354.810883,105.081619 356.039337,99.148926 
	C356.606232,96.411263 356.598328,93.554588 356.904175,90.310989 
z"/>
<path fill="#955B51" opacity="1.000000" stroke="none" 
	d="
M49.994965,319.476990 
	C49.657921,315.863068 49.036774,312.249847 49.028259,308.635162 
	C48.952351,276.405884 48.984592,244.176376 48.986401,211.479645 
	C96.336220,211.003189 143.684616,210.994019 191.499405,210.986267 
	C191.959702,231.982605 191.953598,252.977524 191.614288,274.314697 
	C183.302612,266.697327 175.334778,258.726990 167.342407,250.781403 
	C160.579086,244.057693 156.037323,244.115845 149.151779,250.913422 
	C147.505966,252.538193 145.770813,254.072464 143.813675,255.391846 
	C141.907745,253.511932 140.275604,251.877487 138.620102,250.267105 
	C132.504425,244.317993 127.531738,244.280670 121.513924,250.211014 
	C117.285172,254.378235 113.126991,258.617065 108.624420,262.674438 
	C102.287552,258.850891 98.601479,259.143890 93.704659,263.933197 
	C88.027557,269.485657 82.450241,275.140228 76.837257,280.758118 
	C69.472244,288.129608 69.141838,289.775024 72.837173,299.113098 
	C65.478210,306.129486 58.421169,312.988403 51.022385,319.752747 
	C50.452084,319.597748 50.223522,319.537384 49.994965,319.476990 
z"/>
<path fill="#FEEDE6" opacity="1.000000" stroke="none" 
	d="
M144.076752,255.648346 
	C145.770813,254.072464 147.505966,252.538193 149.151779,250.913422 
	C156.037323,244.115845 160.579086,244.057693 167.342407,250.781403 
	C175.334778,258.726990 183.302612,266.697327 191.580505,274.775696 
	C193.814880,276.879852 195.749832,278.865326 198.014450,280.981262 
	C188.211899,290.157745 181.907028,301.022064 182.014526,315.024506 
	C182.086166,324.354065 182.001740,333.684845 181.625061,343.295532 
	C174.905731,338.280243 170.101410,338.455994 164.265213,344.204681 
	C153.505722,354.802826 142.748489,365.403229 131.701233,375.840363 
	C126.580711,371.107269 121.749313,366.536499 116.993904,361.631409 
	C119.266487,358.827698 121.349136,356.244812 123.677834,353.907013 
	C141.188080,336.328125 158.778458,318.829010 176.272141,301.233734 
	C181.940353,295.532623 180.555679,287.131409 173.585571,283.798981 
	C169.245743,281.724091 163.746353,282.804901 159.889160,286.650482 
	C145.148361,301.346863 130.460541,316.096436 115.712654,330.785736 
	C110.882568,335.596619 105.930099,340.284668 100.740662,344.865997 
	C96.300217,340.637115 92.346977,336.345001 87.950577,332.568787 
	C83.553658,328.792175 81.471466,324.311127 81.995522,318.314758 
	C83.775620,316.258209 85.412209,314.486908 87.427490,312.806946 
	C94.482208,316.608643 97.946320,316.186523 103.346535,310.847565 
	C109.376572,304.885956 115.374680,298.891418 121.335632,292.860779 
	C126.916969,287.214142 127.268135,283.717133 123.324600,276.780731 
	C130.401810,269.589264 137.239273,262.618805 144.076752,255.648346 
z"/>
<path fill="#929298" opacity="1.000000" stroke="none" 
	d="
M303.989929,122.805046 
	C304.138763,122.888298 304.287628,122.971542 304.389526,123.365799 
	C283.280090,131.886963 269.182220,146.710449 264.840424,168.951508 
	C262.638763,180.229599 263.000061,192.114944 263.137421,203.714691 
	C263.297058,217.197189 269.434448,227.575516 281.730103,233.900589 
	C283.877441,235.005219 285.887512,236.376648 287.960999,237.624863 
	C277.653320,237.691055 267.340118,237.992004 257.039703,237.749847 
	C248.651215,237.552658 241.247009,234.232712 234.328201,229.019073 
	C233.981323,228.978271 234.035919,228.992599 233.924683,228.818451 
	C233.644409,228.383270 233.429993,228.167297 233.170181,227.996384 
	C226.477249,219.612778 223.243530,210.251724 223.852982,199.345093 
	C224.544922,186.962494 222.569290,174.353210 227.080292,162.331329 
	C235.883270,138.871231 252.528076,124.849091 277.403839,120.843040 
	C278.055359,120.738106 278.688446,120.518997 280.141174,120.252121 
	C288.631439,121.035751 296.310699,121.920395 303.989929,122.805046 
z"/>
<path fill="#76D27A" opacity="1.000000" stroke="none" 
	d="
M157.132111,179.949799 
	C142.062088,180.473953 126.956970,180.583252 111.459015,180.505447 
	C111.066185,180.318344 111.196838,180.019806 111.534561,179.984772 
	C120.184608,174.509232 121.233284,167.288208 114.784401,160.014450 
	C114.020157,159.152451 113.342934,158.213303 112.625381,157.309921 
	C118.104843,157.208542 123.589935,156.914276 129.061768,157.074036 
	C132.667114,157.179306 134.322083,156.092896 134.004044,152.286804 
	C133.769592,149.481064 133.960754,146.639236 133.972473,143.813538 
	C134.002441,136.577545 136.549667,133.112091 142.991516,131.530670 
	C147.769913,130.357605 153.086731,133.207397 156.004913,138.510895 
	C156.164322,138.800598 156.288193,139.109863 156.645050,139.649231 
	C156.940018,153.103928 157.018509,166.319427 157.132111,179.949799 
z"/>
<path fill="#FEAB03" opacity="1.000000" stroke="none" 
	d="
M303.992371,122.350296 
	C296.310699,121.920395 288.631439,121.035751 280.499939,120.087402 
	C280.740509,106.348900 288.503113,97.479477 301.923584,95.001030 
	C305.020477,94.429108 308.106323,93.797073 311.597504,93.207336 
	C310.751190,94.686035 309.498779,96.145172 308.259155,97.615082 
	C304.627258,101.921738 303.496307,106.905251 303.952148,112.448997 
	C304.209442,115.577858 303.996155,118.745422 303.992371,122.350296 
z"/>
<path fill="#F4A86D" opacity="1.000000" stroke="none" 
	d="
M233.246399,228.219696 
	C233.429993,228.167297 233.644409,228.383270 233.920990,228.846527 
	C233.729477,228.921173 233.494171,228.719254 233.246399,228.219696 
z"/>
<path fill="#A1A1A7" opacity="1.000000" stroke="none" 
	d="
M288.426880,237.714935 
	C285.887512,236.376648 283.877441,235.005219 281.730103,233.900589 
	C269.434448,227.575516 263.297058,217.197189 263.137421,203.714691 
	C263.000061,192.114944 262.638763,180.229599 264.840424,168.951508 
	C269.182220,146.710449 283.280090,131.886963 304.612854,123.490562 
	C320.589569,128.386688 331.916626,138.737656 340.574310,153.264252 
	C343.064941,162.874466 345.225464,171.917633 347.316284,181.426468 
	C347.157440,191.586716 347.068329,201.281311 346.979187,210.975891 
	C343.902435,216.835373 340.825653,222.694839 337.241028,228.865143 
	C336.488281,229.463150 336.243439,229.750305 335.998566,230.037476 
	C335.998566,230.037476 335.992828,229.996140 336.012817,229.998093 
	C321.623962,240.480515 304.999969,237.582047 288.426880,237.714935 
z"/>
<path fill="#AC695D" opacity="1.000000" stroke="none" 
	d="
M347.449677,210.978683 
	C347.068329,201.281311 347.157440,191.586716 347.735504,181.430145 
	C351.229309,180.919296 354.234131,180.870438 357.238983,180.821564 
	C366.451752,180.673355 375.664520,180.525146 385.242554,180.256760 
	C393.057404,180.310165 400.506287,180.578827 407.956787,180.635132 
	C419.240631,180.720428 430.525665,180.644043 441.810150,180.663208 
	C449.161591,180.675705 449.984863,181.540756 449.998322,189.081528 
	C450.005402,193.064285 450.001007,197.047073 449.999390,201.029846 
	C449.995941,209.641510 449.379211,210.289673 440.362793,210.869568 
	C409.283997,210.986145 378.602081,210.983810 347.449677,210.978683 
z"/>
<path fill="#72463E" opacity="1.000000" stroke="none" 
	d="
M430.423462,319.964508 
	C430.893616,352.382660 430.855469,384.803955 430.983734,417.224609 
	C430.998688,421.009521 429.989532,422.636505 425.965149,422.583893 
	C413.472839,422.420563 416.019897,422.997284 415.942963,412.942566 
	C415.804443,394.840759 415.903839,376.737122 415.903839,357.697083 
	C407.396759,357.697083 399.178131,357.697083 390.491028,357.693726 
	C389.963165,353.027222 389.903778,348.364105 389.906311,343.220154 
	C398.405823,342.739288 406.843414,342.739288 415.923981,342.739288 
	C415.923981,335.085876 415.923981,327.999146 415.937622,320.440826 
	C420.622498,319.968658 425.293701,319.968079 430.423462,319.964508 
z"/>
<path fill="#F4A86D" opacity="1.000000" stroke="none" 
	d="
M336.287720,229.990692 
	C336.243439,229.750305 336.488281,229.463150 337.019165,229.103790 
	C337.062408,229.335693 336.819611,229.639801 336.287720,229.990692 
z"/>
<path fill="#EBECF1" opacity="1.000000" stroke="none" 
	d="
M185.558533,430.034668 
	C190.026718,434.246582 193.645737,438.889343 198.184265,442.313232 
	C200.752792,444.250916 204.831238,444.187073 208.676178,445.040619 
	C201.563324,452.732544 194.119064,460.526978 186.398529,468.037384 
	C182.204651,472.117096 176.943161,471.898712 172.524307,467.998840 
	C170.292725,466.029266 168.163376,463.943848 165.564529,461.529266 
	C163.468292,459.316406 161.843979,457.437714 160.114044,455.661896 
	C151.769897,447.096313 143.397278,438.558441 135.034760,430.010742 
	C151.721252,429.992279 168.407730,429.973816 185.558533,430.034668 
z"/>
<path fill="#D4D4DA" opacity="1.000000" stroke="none" 
	d="
M131.990341,376.002716 
	C142.748489,365.403229 153.505722,354.802826 164.265213,344.204681 
	C170.101410,338.455994 174.905731,338.280243 181.548828,343.754456 
	C181.881256,348.331268 181.927826,352.729614 181.629730,357.754150 
	C170.536697,369.216309 159.788315,380.052277 149.039948,390.888245 
	C144.644516,390.963165 140.249069,391.038086 135.035507,391.118225 
	C133.498367,391.171936 132.779343,391.220428 132.060318,391.268921 
	C131.687027,391.237610 131.313751,391.206268 130.321335,391.148315 
	C129.479568,391.145813 129.256912,391.169983 128.613403,391.149109 
	C126.784721,391.028931 125.376907,390.953827 123.975281,390.472351 
	C124.985695,387.210114 125.662529,384.174957 127.097298,381.554810 
	C128.253189,379.443939 130.324951,377.834595 131.990341,376.002716 
z"/>
<path fill="#0457CA" opacity="1.000000" stroke="none" 
	d="
M134.781677,429.786072 
	C143.397278,438.558441 151.769897,447.096313 160.114044,455.661896 
	C161.843979,457.437714 163.468292,459.316406 165.234787,461.470581 
	C163.107971,463.758820 160.896210,465.733948 158.665604,467.687531 
	C153.563675,472.155823 148.497147,472.152924 143.671021,467.361786 
	C131.415482,455.195007 119.260422,442.927032 107.388863,430.325684 
	C109.674034,429.940155 111.638489,429.993988 113.596359,429.904266 
	C119.232925,429.646027 124.866821,429.329773 130.501770,429.036285 
	C131.844055,429.211334 133.186325,429.386383 134.781677,429.786072 
z"/>
<path fill="#E99B59" opacity="1.000000" stroke="none" 
	d="
M130.406708,428.572449 
	C124.866821,429.329773 119.232925,429.646027 113.596359,429.904266 
	C111.638489,429.993988 109.674034,429.940155 107.223808,430.027588 
	C105.733322,430.031158 104.731613,429.959045 103.353661,429.822540 
	C103.437828,428.899261 103.759766,427.921631 104.379364,427.199310 
	C114.115326,415.849487 114.958885,407.091583 107.571396,393.808868 
	C107.262863,393.254120 107.211189,392.556458 107.495560,391.515564 
	C113.290543,391.030090 118.629822,390.954407 123.969093,390.878723 
	C125.376907,390.953827 126.784721,391.028931 128.749634,391.312683 
	C129.516495,391.720093 129.755783,391.872437 130.024628,391.978394 
	C130.120300,404.021790 130.215973,416.065186 130.406708,428.572449 
z"/>
<path fill="#FFEEE6" opacity="1.000000" stroke="none" 
	d="
M149.500610,390.964355 
	C159.788315,380.052277 170.536697,369.216309 181.563614,358.218750 
	C181.842148,368.850769 181.842148,379.644409 181.842148,391.040466 
	C171.137100,391.040466 160.549194,391.040466 149.500610,390.964355 
z"/>
<path fill="#0457CA" opacity="1.000000" stroke="none" 
	d="
M132.272888,391.428894 
	C132.779343,391.220428 133.498367,391.171936 134.571716,391.196136 
	C134.112503,391.375549 133.298981,391.482208 132.272888,391.428894 
z"/>
<path fill="#F5A96D" opacity="1.000000" stroke="none" 
	d="
M130.148361,391.779846 
	C129.755783,391.872437 129.516495,391.720093 129.170502,391.357727 
	C129.256912,391.169983 129.479568,391.145813 130.037933,391.123108 
	C130.373672,391.124573 130.272095,391.581299 130.148361,391.779846 
z"/>
<path fill="#FDBEAA" opacity="1.000000" stroke="none" 
	d="
M112.335365,157.152893 
	C113.342934,158.213303 114.020157,159.152451 114.784401,160.014450 
	C121.233284,167.288208 120.184608,174.509232 111.365173,180.004333 
	C110.640182,180.099838 110.440796,180.184296 110.259911,180.312302 
	C105.093727,180.395035 99.927551,180.477768 94.144165,180.388428 
	C93.307503,180.125732 93.079857,180.094772 92.844032,180.123474 
	C92.443855,180.140060 92.043678,180.156647 91.181801,179.829193 
	C86.320969,174.989304 82.923935,170.074677 86.800186,163.725479 
	C88.280914,161.300110 90.853615,159.541412 92.928680,157.478897 
	C95.843193,157.021591 98.683380,157.355255 99.965309,153.162231 
	C100.879745,150.171204 104.418373,150.230301 107.019295,152.312088 
	C108.802116,153.739075 110.377327,155.425461 112.335365,157.152893 
z"/>
<path fill="#FBA78E" opacity="1.000000" stroke="none" 
	d="
M92.548225,157.362274 
	C90.853615,159.541412 88.280914,161.300110 86.800186,163.725479 
	C82.923935,170.074677 86.320969,174.989304 90.883247,179.791855 
	C86.247482,180.121124 81.448570,180.143723 76.224136,180.188080 
	C66.510071,174.051987 66.203392,166.632507 74.987885,157.339111 
	C76.106544,156.166000 77.153145,155.364258 78.092911,154.452377 
	C83.344879,149.356277 84.888428,149.576965 88.946655,155.660355 
	C89.521286,156.521729 91.069946,156.733322 92.548225,157.362274 
z"/>
<path fill="#FBA78E" opacity="1.000000" stroke="none" 
	d="
M110.403442,180.426224 
	C110.440796,180.184296 110.640182,180.099838 111.027451,180.039368 
	C111.196838,180.019806 111.066185,180.318344 110.987457,180.458633 
	C110.908722,180.598923 110.546974,180.540146 110.403442,180.426224 
z"/>
<path fill="#FBA78E" opacity="1.000000" stroke="none" 
	d="
M92.984756,180.243622 
	C93.079857,180.094772 93.307503,180.125732 93.673988,180.296005 
	C93.821007,180.375656 93.471497,180.477737 93.471497,180.477737 
	C93.471497,180.477737 93.125473,180.363770 92.984756,180.243622 
z"/>
<path fill="#65BEFC" opacity="1.000000" stroke="none" 
	d="
M49.533081,319.521973 
	C50.223522,319.537384 50.452084,319.597748 50.850143,320.073456 
	C47.601624,323.845215 44.183605,327.201660 40.765579,330.558105 
	C40.706577,327.337738 40.647583,324.117371 40.559265,320.424927 
	C43.377029,319.824219 46.224110,319.695587 49.533081,319.521973 
z"/>
<path fill="#0356CA" opacity="1.000000" stroke="none" 
	d="
M40.571861,330.765991 
	C44.183605,327.201660 47.601624,323.845215 51.191887,320.168030 
	C58.421169,312.988403 65.478210,306.129486 73.165588,299.178253 
	C78.213554,303.629181 82.631180,308.172394 87.048798,312.715637 
	C85.412209,314.486908 83.775620,316.258209 81.685562,318.469757 
	C74.410286,325.709747 67.554863,332.476135 60.776814,339.319183 
	C54.885124,345.267365 54.952240,350.426208 60.944511,356.452179 
	C64.217125,359.743195 67.578377,362.946075 70.899658,366.188721 
	C68.051407,370.587555 68.684349,374.489258 72.311806,378.211243 
	C73.190048,379.112427 73.338455,380.724854 73.822479,382.010223 
	C72.637360,382.366913 71.467613,382.955994 70.264153,383.035614 
	C66.985664,383.252472 63.692928,383.253998 60.005539,383.421600 
	C53.509926,377.426239 47.414608,371.350098 41.012787,365.090820 
	C37.753296,361.797882 34.801708,358.686768 31.846985,355.578613 
	C26.850756,350.322998 26.828562,345.254456 31.832346,339.914368 
	C34.651054,336.906189 37.527634,333.952240 40.571861,330.765991 
z"/>
<path fill="#ECECF1" opacity="1.000000" stroke="none" 
	d="
M71.192276,366.049316 
	C67.578377,362.946075 64.217125,359.743195 60.944511,356.452179 
	C54.952240,350.426208 54.885124,345.267365 60.776814,339.319183 
	C67.554863,332.476135 74.410286,325.709747 81.542061,318.755066 
	C81.471466,324.311127 83.553658,328.792175 87.950577,332.568787 
	C92.346977,336.345001 96.300217,340.637115 100.571793,345.153320 
	C98.822052,347.698120 96.676376,349.610687 95.128685,351.923462 
	C91.430557,357.449677 92.372505,362.804962 97.427567,366.887665 
	C101.674278,370.317505 107.379929,369.797943 111.840347,365.734222 
	C113.390572,364.321899 115.217415,363.213165 116.917923,361.965759 
	C121.749313,366.536499 126.580711,371.107269 131.701233,375.840363 
	C130.324951,377.834595 128.253189,379.443939 127.097298,381.554810 
	C125.662529,384.174957 124.985695,387.210114 123.975281,390.472351 
	C118.629822,390.954407 113.290543,391.030090 107.487457,391.157227 
	C104.442764,389.258240 101.570053,387.592102 99.338600,385.301300 
	C93.812469,379.628052 88.540726,373.704071 83.242798,367.812469 
	C79.787819,363.970306 76.020447,362.740814 71.192276,366.049316 
z"/>
<path fill="#CB7C5A" opacity="1.000000" stroke="none" 
	d="
M357.246948,180.499329 
	C354.234131,180.870438 351.229309,180.919296 347.805237,180.964478 
	C345.225464,171.917633 343.064941,162.874466 340.845154,153.457306 
	C344.576538,150.035080 346.612274,150.358948 349.127502,154.084869 
	C349.944580,155.295242 351.189575,156.606537 352.508270,157.027390 
	C363.922302,160.670059 366.398682,170.321014 358.030670,178.971939 
	C357.704926,179.308685 357.510529,179.772507 357.246948,180.499329 
z"/>
<path fill="#0278EF" opacity="1.000000" stroke="none" 
	d="
M87.427498,312.806946 
	C82.631180,308.172394 78.213554,303.629181 73.467514,299.020752 
	C69.141838,289.775024 69.472244,288.129608 76.837257,280.758118 
	C82.450241,275.140228 88.027557,269.485657 93.704659,263.933197 
	C98.601479,259.143890 102.287552,258.850891 108.785248,262.979401 
	C113.867584,267.956451 118.476212,272.479095 123.084839,277.001709 
	C127.268135,283.717133 126.916969,287.214142 121.335632,292.860779 
	C115.374680,298.891418 109.376572,304.885956 103.346535,310.847565 
	C97.946320,316.186523 94.482208,316.608643 87.427498,312.806946 
z"/>
<path fill="#0658C9" opacity="1.000000" stroke="none" 
	d="
M123.324600,276.780731 
	C118.476212,272.479095 113.867584,267.956451 109.098137,263.128906 
	C113.126991,258.617065 117.285172,254.378235 121.513924,250.211014 
	C127.531738,244.280670 132.504425,244.317993 138.620102,250.267105 
	C140.275604,251.877487 141.907745,253.511932 143.813660,255.391846 
	C137.239273,262.618805 130.401810,269.589264 123.324600,276.780731 
z"/>
<path fill="#D4D4DA" opacity="1.000000" stroke="none" 
	d="
M116.993912,361.631409 
	C115.217415,363.213165 113.390572,364.321899 111.840347,365.734222 
	C107.379929,369.797943 101.674278,370.317505 97.427567,366.887665 
	C92.372505,362.804962 91.430557,357.449677 95.128685,351.923462 
	C96.676376,349.610687 98.822052,347.698120 100.864731,345.316223 
	C105.930099,340.284668 110.882568,335.596619 115.712654,330.785736 
	C130.460541,316.096436 145.148361,301.346863 159.889160,286.650482 
	C163.746353,282.804901 169.245743,281.724091 173.585571,283.798981 
	C180.555679,287.131409 181.940353,295.532623 176.272141,301.233734 
	C158.778458,318.829010 141.188080,336.328125 123.677834,353.907013 
	C121.349136,356.244812 119.266487,358.827698 116.993912,361.631409 
z"/>
</svg>