<?xml version="1.0" encoding="UTF-8"?>
<svg version="1.1" xmlns="http://www.w3.org/2000/svg" width="64" height="64">
<path d="M0 0 C1.59134766 -0.02513672 1.59134766 -0.02513672 3.21484375 -0.05078125 C6.0625 0.3125 6.0625 0.3125 7.875 1.53125 C10.250156 5.093984 10.529654 9.12757878 10.0625 13.3125 C8.3377839 15.98896493 6.62478354 17.32542297 4.0625 19.3125 C6.54331841 26.54822035 10.91063686 30.17182289 17.0625 34.3125 C19.66995632 33.19501872 20.96665058 32.44152806 22.6875 30.125 C26.08224802 27.53427125 28.61210292 28.20892258 32.72265625 28.66015625 C35.46149107 29.42373791 36.48625352 29.94304562 38.0625 32.3125 C38.42578125 35.16015625 38.42578125 35.16015625 38.375 38.375 C38.37113281 39.43847656 38.36726563 40.50195312 38.36328125 41.59765625 C38.0625 44.3125 38.0625 44.3125 36.0625 46.3125 C26.11726209 47.08513801 16.38815511 42.37377297 8.6875 36.5 C-1.16034985 28.0387274 -6.92970815 17.30914299 -8.08984375 4.2734375 C-7.71484607 -0.55345565 -3.8678127 0.01406477 0 0 Z M-1.9375 6.3125 C-1.2775 8.9525 -0.6175 11.5925 0.0625 14.3125 C1.3825 13.3225 2.7025 12.3325 4.0625 11.3125 C3.7325 9.6625 3.4025 8.0125 3.0625 6.3125 C1.4125 6.3125 -0.2375 6.3125 -1.9375 6.3125 Z M27.0625 34.3125 C25.5775 36.2925 25.5775 36.2925 24.0625 38.3125 C26.7025 38.9725 29.3425 39.6325 32.0625 40.3125 C32.0625 38.6625 32.0625 37.0125 32.0625 35.3125 C30.4125 34.9825 28.7625 34.6525 27.0625 34.3125 Z " fill="#E7E9EC" transform="translate(16.9375,8.6875)"/>
</svg>
