<?xml version="1.0" encoding="UTF-8"?>
<!DOCTYPE svg PUBLIC "-//W3C//DTD SVG 1.1//EN" "http://www.w3.org/Graphics/SVG/1.1/DTD/svg11.dtd">
<svg xmlns="http://www.w3.org/2000/svg" version="1.1" width="512px" height="512px" style="shape-rendering:geometricPrecision; text-rendering:geometricPrecision; image-rendering:optimizeQuality; fill-rule:evenodd; clip-rule:evenodd" xmlns:xlink="http://www.w3.org/1999/xlink">
<g><path style="opacity:0.985" fill="#010100" d="M 122.5,-0.5 C 178.5,-0.5 234.5,-0.5 290.5,-0.5C 310.64,5.31246 322.306,18.6458 325.5,39.5C 332.841,39.6663 340.174,39.4997 347.5,39C 363.026,16.9503 384.026,3.78359 410.5,-0.5C 417.5,-0.5 424.5,-0.5 431.5,-0.5C 468.017,5.84531 492.517,26.512 505,61.5C 513.618,93.8578 506.784,122.358 484.5,147C 481.05,149.009 477.717,148.842 474.5,146.5C 472.903,143.681 472.403,140.681 473,137.5C 496.172,110.458 499.505,81.1249 483,49.5C 462.976,20.877 435.809,10.2103 401.5,17.5C 373.688,26.8151 356.521,45.8151 350,74.5C 346.415,103.435 355.915,126.935 378.5,145C 384.964,149.565 391.964,153.065 399.5,155.5C 418.911,160.633 437.744,158.967 456,150.5C 459.19,151.218 462.023,152.551 464.5,154.5C 464.789,157.649 464.289,160.649 463,163.5C 446.636,172.799 429.136,176.133 410.5,173.5C 410.667,267.501 410.5,361.501 410,455.5C 404.211,485.787 386.378,504.453 356.5,511.5C 256.5,511.5 156.5,511.5 56.5,511.5C 27.1037,504.602 9.27035,486.268 3,456.5C 2.33333,336.167 2.33333,215.833 3,95.5C 8.86143,66.6389 26.0281,48.4722 54.5,41C 65.4602,39.7149 76.4602,39.2149 87.5,39.5C 90.6938,18.6458 102.36,5.31246 122.5,-0.5 Z"/></g>
<g><path style="opacity:1" fill="#eac12d" d="M 137.5,14.5 C 130.672,21.1536 126.172,29.1536 124,38.5C 123.333,56.8333 123.333,75.1667 124,93.5C 126.172,102.846 130.672,110.846 137.5,117.5C 119.726,119.199 108.226,111.532 103,94.5C 102.333,75.5 102.333,56.5 103,37.5C 108.558,20.9683 120.058,13.3016 137.5,14.5 Z"/></g>
<g><path style="opacity:1" fill="#f4e065" d="M 137.5,14.5 C 187.501,14.3333 237.501,14.5 287.5,15C 299,18.5 306.5,26 310,37.5C 310.667,55.8333 310.667,74.1667 310,92.5C 307.392,105.11 299.892,113.277 287.5,117C 237.501,117.5 187.501,117.667 137.5,117.5C 130.672,110.846 126.172,102.846 124,93.5C 123.333,75.1667 123.333,56.8333 124,38.5C 126.172,29.1536 130.672,21.1536 137.5,14.5 Z"/></g>
<g><path style="opacity:1" fill="#7fe09b" d="M 474.5,146.5 C 471.455,149.547 468.122,152.213 464.5,154.5C 462.023,152.551 459.19,151.218 456,150.5C 437.744,158.967 418.911,160.633 399.5,155.5C 368.844,133.055 357.344,103.055 365,65.5C 371.632,45.2099 383.799,29.2099 401.5,17.5C 435.809,10.2103 462.976,20.877 483,49.5C 499.505,81.1249 496.172,110.458 473,137.5C 472.403,140.681 472.903,143.681 474.5,146.5 Z"/></g>
<g><path style="opacity:1" fill="#6cbe84" d="M 401.5,17.5 C 383.799,29.2099 371.632,45.2099 365,65.5C 357.344,103.055 368.844,133.055 399.5,155.5C 391.964,153.065 384.964,149.565 378.5,145C 355.915,126.935 346.415,103.435 350,74.5C 356.521,45.8151 373.688,26.8151 401.5,17.5 Z"/></g>
<g><path style="opacity:1" fill="#030302" d="M 150.5,33.5 C 176.859,32.031 190.026,44.3643 190,70.5C 184.563,90.6473 171.396,99.4807 150.5,97C 128.534,87.7818 121.7,71.9485 130,49.5C 134.99,41.6621 141.823,36.3288 150.5,33.5 Z"/></g>
<g><path style="opacity:1" fill="#030302" d="M 246.5,33.5 C 266.085,31.1994 279.252,39.1994 286,57.5C 288.84,77.6318 280.674,90.7985 261.5,97C 234.734,98.2338 221.9,85.4005 223,58.5C 226.589,46.0799 234.423,37.7466 246.5,33.5 Z"/></g>
<g><path style="opacity:1" fill="#020402" d="M 461.5,44.5 C 471.066,45.2955 473.566,49.9622 469,58.5C 453.085,81.9951 437.418,105.662 422,129.5C 419.347,132.194 416.18,133.027 412.5,132C 400.667,120.167 388.833,108.333 377,96.5C 373.776,90.1619 375.609,86.1619 382.5,84.5C 384.197,84.8988 385.863,85.3988 387.5,86C 396.167,94.6667 404.833,103.333 413.5,112C 414.167,112.667 414.833,112.667 415.5,112C 429.791,90.5857 443.958,69.0857 458,47.5C 459.145,46.3636 460.312,45.3636 461.5,44.5 Z"/></g>
<g><path style="opacity:1" fill="#5f767f" d="M 152.5,48.5 C 171.522,47.6808 178.356,56.3474 173,74.5C 167.269,82.4049 159.769,84.5716 150.5,81C 141.223,74.4181 139.056,65.9181 144,55.5C 146.441,52.5464 149.275,50.2131 152.5,48.5 Z"/></g>
<g><path style="opacity:1" fill="#5f767f" d="M 248.5,48.5 C 266.689,47.5151 273.856,55.8484 270,73.5C 262.253,83.5099 253.086,85.0099 242.5,78C 234.342,66.0339 236.342,56.2005 248.5,48.5 Z"/></g>
<g><path style="opacity:1" fill="#c57c65" d="M 56.5,383.5 C 56.5,388.5 56.5,393.5 56.5,398.5C 52.9103,398.544 50.4103,400.211 49,403.5C 48.0941,414.559 48.4274,425.559 50,436.5C 53.4738,447.974 60.9738,455.474 72.5,459C 160.833,459.667 249.167,459.667 337.5,459C 352.39,456.276 361.057,447.443 363.5,432.5C 364.167,339.5 364.833,246.5 365.5,153.5C 374.306,160.95 384.306,166.283 395.5,169.5C 395.667,263.834 395.5,358.167 395,452.5C 390.464,477.036 375.964,491.536 351.5,496C 254.5,496.667 157.5,496.667 60.5,496C 58.1341,495.56 55.8008,495.06 53.5,494.5C 48.5545,489.382 43.7212,484.049 39,478.5C 34.6179,471.02 31.6179,463.02 30,454.5C 29.3333,335.5 29.3333,216.5 30,97.5C 32.8397,79.7881 41.6731,66.1214 56.5,56.5C 66.7513,55.525 77.0846,55.1917 87.5,55.5C 87.5,67.8333 87.5,80.1667 87.5,92.5C 67.838,90.4096 55.0046,98.7429 49,117.5C 48.3333,204.167 48.3333,290.833 49,377.5C 50.3078,381.062 52.8078,383.062 56.5,383.5 Z"/></g>
<g><path style="opacity:1" fill="#c27a64" d="M 325.5,55.5 C 330.167,55.5 334.833,55.5 339.5,55.5C 337.85,61.0979 336.35,66.7646 335,72.5C 334.5,79.1583 334.334,85.825 334.5,92.5C 331.5,92.5 328.5,92.5 325.5,92.5C 325.5,80.1667 325.5,67.8333 325.5,55.5 Z"/></g>
<g><path style="opacity:1" fill="#a5563b" d="M 56.5,56.5 C 41.6731,66.1214 32.8397,79.7881 30,97.5C 29.3333,216.5 29.3333,335.5 30,454.5C 31.6179,463.02 34.6179,471.02 39,478.5C 43.7212,484.049 48.5545,489.382 53.5,494.5C 33.2654,487.754 21.4321,473.754 18,452.5C 17.3333,334.5 17.3333,216.5 18,98.5C 22.3098,76.69 35.1432,62.69 56.5,56.5 Z"/></g>
<g><path style="opacity:1" fill="#dde8ed" d="M 56.5,398.5 C 56.5,393.5 56.5,388.5 56.5,383.5C 59.1955,383.067 61.3621,381.734 63,379.5C 63.3333,292.833 63.6667,206.167 64,119.5C 65.7425,114.09 69.2425,110.256 74.5,108C 80.5276,107.17 86.5276,107.336 92.5,108.5C 99.3321,121.429 109.999,129.262 124.5,132C 179.167,132.667 233.833,132.667 288.5,132C 302.962,129.275 313.628,121.442 320.5,108.5C 325.802,107.337 331.136,107.171 336.5,108C 339.436,117.707 343.603,126.874 349,135.5C 349.667,234.167 349.667,332.833 349,431.5C 347.983,436.712 345.149,440.545 340.5,443C 251.89,444.659 163.223,444.992 74.5,444C 70,442.167 66.8333,439 65,434.5C 63.7371,423.906 63.0705,413.239 63,402.5C 61.4534,400.113 59.2867,398.78 56.5,398.5 Z"/></g>
<g><path style="opacity:1" fill="#58372d" d="M 365.5,153.5 C 364.833,246.5 364.167,339.5 363.5,432.5C 363.167,339.164 363.5,245.831 364.5,152.5C 365.107,152.624 365.44,152.957 365.5,153.5 Z"/></g>
<g><path style="opacity:1" fill="#030303" d="M 100.5,166.5 C 171.167,166.333 241.834,166.5 312.5,167C 316.212,169.513 317.378,173.013 316,177.5C 314.786,179.049 313.286,180.215 311.5,181C 241.167,181.667 170.833,181.667 100.5,181C 93.8665,176.035 93.8665,171.202 100.5,166.5 Z"/></g>
<g><path style="opacity:1" fill="#080909" d="M 101.5,249.5 C 171.501,249.333 241.501,249.5 311.5,250C 316.224,252.435 317.724,256.269 316,261.5C 315.097,262.701 313.931,263.535 312.5,264C 241.5,264.667 170.5,264.667 99.5,264C 93.9466,258.366 94.6133,253.533 101.5,249.5 Z"/></g>
<g><path style="opacity:1" fill="#070708" d="M 99.5,291.5 C 170.501,291.333 241.501,291.5 312.5,292C 315.683,293.018 317.016,295.185 316.5,298.5C 316.664,302.177 314.997,304.677 311.5,306C 241.5,306.667 171.5,306.667 101.5,306C 94.4516,301.987 93.7849,297.154 99.5,291.5 Z"/></g>
<g><path style="opacity:1" fill="#010101" d="M 100.5,332.5 C 171.167,332.333 241.834,332.5 312.5,333C 315.366,334.393 316.699,336.726 316.5,340C 316.779,343.721 315.112,346.055 311.5,347C 241.167,347.667 170.833,347.667 100.5,347C 96.7229,344.089 95.5563,340.256 97,335.5C 98.1451,334.364 99.3117,333.364 100.5,332.5 Z"/></g>
<g><path style="opacity:1" fill="#030303" d="M 100.5,373.5 C 137.168,373.333 173.835,373.5 210.5,374C 218.073,378.187 218.406,382.854 211.5,388C 174.5,388.667 137.5,388.667 100.5,388C 97.3171,386.982 95.9838,384.815 96.5,381.5C 96.6667,380.167 96.8333,378.833 97,377.5C 98.1022,376.051 99.2689,374.718 100.5,373.5 Z"/></g>
</svg>
