<?xml version="1.0" encoding="UTF-8"?>
<svg version="1.1" xmlns="http://www.w3.org/2000/svg" width="512" height="512">
<path d="M0 0 C6.93566027 6.31915713 11.52763503 15.19593606 16.3125 23.1875 C21.24310499 31.35730503 26.23762852 39.48151968 31.3125 47.5625 C36.79736191 56.30346802 42.19477192 65.09284035 47.54296875 73.91796875 C51.74266168 80.83566519 56.01145178 87.70742727 60.3125 94.5625 C65.79696547 103.30372022 71.1947681 112.09283404 76.54296875 120.91796875 C80.74266168 127.83566519 85.01145178 134.70742727 89.3125 141.5625 C94.79696547 150.30372022 100.1947681 159.09283404 105.54296875 167.91796875 C109.74266456 174.83566993 114.01173145 181.70724812 118.3125 188.5625 C123.44115071 196.74340834 128.53055594 204.94670365 133.5625 213.1875 C134.14708984 214.14140625 134.73167969 215.0953125 135.33398438 216.078125 C140.4890806 224.54590435 143.90175269 230.42639853 142.8125 240.5625 C140.18773692 248.43678924 132.78261862 252.71981891 125.8125 256.5625 C120.09367203 259.01342627 115.30733909 259.27531117 109.3125 257.5625 C103.46684479 254.80461752 99.56008458 249.23285817 96.8125 243.5625 C88.88092871 244.12363408 81.28614563 245.60535827 73.53173828 247.32226562 C72.22653035 247.60698384 70.92121397 247.89120529 69.61579895 248.17497253 C66.10064987 248.94055546 62.58705379 249.71305237 59.07371759 250.48690605 C55.38627208 251.2978829 51.69743758 252.10249299 48.00875854 252.90783691 C41.82306215 254.25925784 35.63826435 255.6147237 29.45410156 256.97314453 C20.73434787 258.88853332 12.01304998 260.79681297 3.29140496 262.70356846 C-9.03444355 265.39866994 -21.35953609 268.09722998 -33.68310547 270.80273438 C-34.89666214 271.06873947 -36.11021881 271.33474457 -37.36054993 271.60881042 C-38.47067947 271.8527504 -39.58080902 272.09669037 -40.72457886 272.34802246 C-41.68869123 272.55965782 -42.65280361 272.77129318 -43.64613152 272.98934174 C-45.8356853 273.48315475 -48.01303861 274.00649093 -50.1875 274.5625 C-49.548125 275.655625 -48.90875 276.74875 -48.25 277.875 C-45.71827625 282.20343092 -45.16860928 285.44112206 -45.125 290.4375 C-44.9075084 294.78485655 -44.9075084 294.78485655 -42.5546875 298.21484375 C-41.16916988 298.99716073 -39.75700482 299.73382532 -38.32421875 300.42578125 C-33.19412662 303.15495275 -29.91255472 308.12378581 -28.1875 313.5625 C-28.0972839 315.58174851 -28.05738936 317.60374362 -28.0625 319.625 C-27.93709742 322.77807051 -27.93709742 322.77807051 -27.1875 325.5625 C-25.33917737 327.17072189 -23.69098624 327.7669752 -21.390625 328.58203125 C-16.5739214 330.72563516 -13.3457796 335.50918616 -10.8125 340 C-8.94123047 347.67220505 -9.2528269 353.90375279 -11.1875 361.5625 C-10.39085937 362.16384766 -10.39085937 362.16384766 -9.578125 362.77734375 C-3.32112112 367.81263337 0.08087611 372.40629355 1.22265625 380.453125 C1.58568084 387.71361687 0.23833174 393.70678415 -4.1875 399.5625 C-9.75544843 405.30574337 -16.74550702 409.1863326 -23.5625 413.25 C-24.64789063 413.91322266 -25.73328125 414.57644531 -26.8515625 415.25976562 C-33.96225092 419.52360234 -40.52254781 422.39396168 -48.52954102 424.3996582 C-52.38873565 425.62647153 -55.40536783 427.23794507 -58.86328125 429.3359375 C-59.47334518 429.70095367 -60.08340912 430.06596985 -60.71195984 430.44204712 C-62.64596647 431.59965613 -64.57359833 432.7672854 -66.5 433.9375 C-85.84833266 445.68128849 -100.33031674 449.48636585 -122.625 444.625 C-124.04976004 444.32958925 -125.47489088 444.03596109 -126.90039062 443.74414062 C-130.33392397 443.0373124 -133.76188788 442.30689151 -137.1875 441.5625 C-137.79198975 442.34262451 -138.39647949 443.12274902 -139.01928711 443.92651367 C-142.06287667 447.62673172 -145.78315155 450.16527814 -149.62890625 452.98828125 C-152.45149459 455.82810677 -153.10626186 457.76163043 -154.31762695 461.45532227 C-155.92301389 465.34420653 -158.72196101 468.26901997 -161.5 471.375 C-162.05623047 472.02919922 -162.61246094 472.68339844 -163.18554688 473.35742188 C-167.10236931 477.82141392 -170.5468081 481.16533227 -176.7718668 481.84443188 C-180.04567177 481.96058004 -183.30761835 481.97913424 -186.58349609 481.96655273 C-188.45285072 481.97684761 -188.45285072 481.97684761 -190.35997009 481.98735046 C-193.76725322 482.00248865 -197.173988 482.00411979 -200.58126402 481.99840808 C-203.43150124 481.99531071 -206.28168929 482.0014149 -209.1319195 482.00744683 C-215.85979808 482.02148003 -222.58754966 482.01994143 -229.31542969 482.00854492 C-236.24218789 481.99707035 -243.16855861 482.01113067 -250.09526575 482.0379414 C-256.05472574 482.06013946 -262.01406446 482.06672641 -267.97356284 482.06086498 C-271.52739532 482.0575033 -275.08097959 482.05985726 -278.63477707 482.07711601 C-282.60090922 482.09553746 -286.5665696 482.08135575 -290.53271484 482.06420898 C-291.70077164 482.07387695 -292.86882843 482.08354492 -294.07228088 482.09350586 C-301.38328961 482.02740858 -307.39892686 481.25266688 -312.80934715 475.9827795 C-317.83403602 470.09896523 -316.90074829 461.67480572 -316.78442383 454.38989258 C-316.75002263 452.00157127 -316.76381695 449.61694142 -316.78320312 447.22851562 C-316.77630525 445.69269278 -316.76663338 444.15687936 -316.75390625 442.62109375 C-316.75886612 441.91673691 -316.76382599 441.21238007 -316.76893616 440.48667908 C-316.61586441 433.96825621 -314.36244969 429.73393604 -309.76953125 425.1484375 C-308.39861328 424.05402344 -308.39861328 424.05402344 -307 422.9375 C-306.48590576 422.52274414 -305.97181152 422.10798828 -305.44213867 421.68066406 C-300.31537249 417.57804535 -295.06292057 413.63164222 -289.82836914 409.66821289 C-284.59514473 405.68970762 -279.4930761 401.57636201 -274.4375 397.375 C-268.51663907 392.45463 -262.52423675 387.67265912 -256.39453125 383.015625 C-254.05859122 381.23905618 -251.74868701 379.43290818 -249.44921875 377.609375 C-248.82168701 377.11203857 -248.19415527 376.61470215 -247.54760742 376.10229492 C-246.34408771 375.14646111 -245.1423061 374.18843295 -243.94262695 373.2277832 C-235.51976735 366.54766957 -235.51976735 366.54766957 -232.08203125 366.5859375 C-231.39496094 366.70195312 -230.70789063 366.81796875 -230 366.9375 C-226.54822193 367.09939244 -225.36061387 366.68575908 -222.48828125 364.640625 C-220.74164648 363.03933064 -219.0271037 361.4021037 -217.3515625 359.7265625 C-213.14757734 355.52257734 -210.41673356 355.31170495 -204.7578125 355.19921875 C-199.03563832 353.78171967 -195.82735017 347.87392926 -192.76171875 343.16796875 C-192.36926468 342.57575027 -191.97681061 341.9835318 -191.57246399 341.37336731 C-190.33445452 339.50248862 -189.10462835 337.62639502 -187.875 335.75 C-187.03113675 334.47165004 -186.18674062 333.19365168 -185.34179688 331.91601562 C-183.28419175 328.80221566 -181.23388449 325.68368895 -179.1875 322.5625 C-179.8475 321.9025 -180.5075 321.2425 -181.1875 320.5625 C-184.60741523 320.75792373 -186.44943247 321.72684979 -189.375 323.5625 C-194.46256889 326.57531195 -199.86347381 327.15776935 -205.65234375 326.12109375 C-220.3062986 321.85413518 -227.69849935 302.91163572 -234.93041992 290.68164062 C-235.9441483 288.97273359 -236.97184903 287.27211933 -238.00390625 285.57421875 C-240.72516563 280.94897591 -240.93724589 275.79021961 -239.7265625 270.578125 C-237.48992951 263.78928604 -233.51803064 258.70511383 -227.3125 255.125 C-226.28125 254.609375 -225.25 254.09375 -224.1875 253.5625 C-224.22875 252.263125 -224.27 250.96375 -224.3125 249.625 C-224.25623734 240.65110552 -222.51285138 234.14247357 -216.1875 227.5625 C-213.31077882 225.03523967 -210.31310213 222.77086936 -207.1875 220.5625 C-205.95 219.6034375 -205.95 219.6034375 -204.6875 218.625 C-200.51854329 216.8531934 -195.59745049 216.79175697 -191.2668457 218.17675781 C-187.62692255 218.8520048 -184.89379522 216.45524999 -181.9375 214.5625 C-180.96296875 213.99982422 -180.96296875 213.99982422 -179.96875 213.42578125 C-177.82001728 212.14459131 -177.82001728 212.14459131 -175.1875 209.5625 C-175.19523437 207.8609375 -175.19523437 207.8609375 -175.203125 206.125 C-175.1875 202.5625 -175.1875 202.5625 -174.00463867 200.9855957 C-169.2685533 196.80445109 -163.7260394 193.84077697 -158.25 190.75 C-150.91700126 186.46147279 -145.18844283 182.53486127 -140.1875 175.5625 C-138.94258709 173.97659798 -137.69718784 172.39106006 -136.44482422 170.81103516 C-135.03852989 169.03217963 -133.64620344 167.24294901 -132.25390625 165.453125 C-128.90827987 161.17968296 -125.45915728 156.99421834 -122 152.8125 C-117.72689675 147.64586227 -113.48072625 142.4636556 -109.30859375 137.21484375 C-106.45554033 133.64721342 -103.57099326 130.10554387 -100.6875 126.5625 C-96.54524334 121.47169767 -92.42255026 116.3668999 -88.33203125 111.234375 C-86.08886271 108.43960764 -83.8269877 105.66074944 -81.56274414 102.88305664 C-76.90593906 97.16999951 -72.28145749 91.4380903 -67.75 85.625 C-62.54096353 78.950176 -57.16118041 72.42279501 -51.765625 65.8984375 C-48.17515335 61.5548713 -44.61435171 57.1876756 -41.0625 52.8125 C-40.53027832 52.15717285 -39.99805664 51.5018457 -39.44970703 50.82666016 C-38.46772957 49.61630117 -37.48791738 48.40418078 -36.51074219 47.18994141 C-35.30296693 45.70451155 -34.06319477 44.2452447 -32.8203125 42.7890625 C-30.90413824 40.63628046 -30.90413824 40.63628046 -31.1875 37.6875 C-32.17434433 34.60361148 -33.59896116 32.17055389 -35.25390625 29.40625 C-37.70557701 24.5644567 -37.56000871 20.01833968 -36.1875 14.9375 C-33.0580475 6.75601655 -24.65274964 2.40141397 -17.1875 -1.4375 C-11.52033878 -3.3672183 -5.35805681 -2.41637856 0 0 Z " fill="#010101" transform="translate(316.1875,26.4375)"/>
<path d="M0 0 C1.89013672 2.30297852 1.89013672 2.30297852 3.6796875 5.37890625 C4.00906815 5.93358582 4.33844879 6.48826538 4.67781067 7.05975342 C5.75828314 8.88575899 6.8161174 10.72390579 7.875 12.5625 C8.62807117 13.84185511 9.38305997 15.12008325 10.13989258 16.3972168 C11.29949004 18.35424782 12.45800242 20.31181824 13.61073303 22.27290344 C17.18959972 28.35807141 20.91979809 34.34257782 24.6875 40.3125 C29.52079079 48.00471471 34.29177942 55.73060888 39 63.5 C43.77124278 71.37312252 48.6072262 79.2018265 53.5 87 C58.98446547 95.74122022 64.3822681 104.53033404 69.73046875 113.35546875 C73.93016168 120.27316519 78.19895178 127.14492727 82.5 134 C87.98446547 142.74122022 93.3822681 151.53033404 98.73046875 160.35546875 C103.53744558 168.27347778 108.44228327 176.1275766 113.3659668 183.97338867 C118.51938626 192.19848096 123.58110793 200.4771907 128.609375 208.77929688 C129.15722656 209.68357422 129.70507812 210.58785156 130.26953125 211.51953125 C130.99039917 212.71219604 130.99039917 212.71219604 131.72583008 213.92895508 C132.78015705 215.6426657 133.88390661 217.32585992 135 219 C134.8120113 221.68928282 134.33138251 222.69881356 132.328125 224.51953125 C131.64234375 224.94621094 130.9565625 225.37289062 130.25 225.8125 C129.57453125 226.25207031 128.8990625 226.69164062 128.203125 227.14453125 C125.31138054 228.26738947 123.93562912 227.95732499 121 227 C119.27758789 225.04833984 119.27758789 225.04833984 117.72265625 222.4609375 C117.13419922 221.49994141 116.54574219 220.53894531 115.93945312 219.54882812 C115.32005859 218.50146484 114.70066406 217.45410156 114.0625 216.375 C113.40572266 215.29412109 112.74894531 214.21324219 112.07226562 213.09960938 C110.03450794 209.741119 108.0172514 206.37083551 106 203 C104.24138045 200.09962183 102.47647928 197.20314793 100.71069336 194.30712891 C99.56227887 192.42266055 98.41598466 190.53689856 97.27172852 188.64990234 C93.07291474 181.72942796 88.80206183 174.85668824 84.5 168 C79.01553453 159.25877978 73.6177319 150.46966596 68.26953125 141.64453125 C63.45844869 133.71975931 58.55019827 125.85844236 53.62084961 118.00683594 C49.20380702 110.95935504 44.86785837 103.8661556 40.5625 96.75 C33.20854881 83.67616961 33.20854881 83.67616961 24 72 C20.54213985 71.49992206 20.54213985 71.49992206 17 72 C14.83333333 73.5 14.83333333 73.5 14 76 C14.26578445 81.8826958 17.09572997 86.02054897 20.125 90.875 C20.65561035 91.74213623 21.1862207 92.60927246 21.73291016 93.50268555 C23.476467 96.34283328 25.23589264 99.1725755 27 102 C27.59748047 102.95890137 28.19496094 103.91780273 28.81054688 104.90576172 C31.29851369 108.89460713 33.79032709 112.88098975 36.28955078 116.86279297 C40.58348054 123.70798265 44.81273317 130.58911504 49 137.5 C54.33922493 146.30851861 59.76657445 155.05783418 65.23852539 163.78442383 C71.91763968 174.44450158 78.51250048 185.15606457 85.08154297 195.88427734 C86.46160487 198.12560465 87.85055707 200.3595558 89.25048828 202.58837891 C89.62142105 203.18213821 89.99235382 203.77589752 90.37452698 204.38764954 C91.4187002 206.05820772 92.46716903 207.72607869 93.51586914 209.39379883 C95 212 95 212 95 214 C91.12530536 214.83475675 87.25021917 215.66768174 83.375 216.5 C82.1389502 216.76554688 80.90290039 217.03109375 79.62939453 217.3046875 C72.28826783 218.87918452 64.94341019 220.43456493 57.59375 221.96875 C42.60091742 225.10057053 27.62897614 228.26170353 12.72021484 231.77685547 C2.20668233 234.23229124 -8.36748892 236.37547563 -18.94555664 238.53100586 C-28.2270202 240.4228802 -37.48386599 242.39753884 -46.72265625 244.48779297 C-51.54052216 245.5713996 -56.36380526 246.6302 -61.1875 247.6875 C-62.1571167 247.90229004 -63.1267334 248.11708008 -64.12573242 248.33837891 C-69.07285235 249.42062898 -73.97491796 250.36752079 -79 251 C-84.18818665 244.05806012 -88.61337986 236.73754749 -93.03222656 229.29394531 C-97.09368123 222.46841052 -101.27243433 215.7237346 -105.5 209 C-112.1474037 198.41988389 -118.62323467 187.74512903 -125 177 C-122.49605407 172.48426304 -119.39937603 168.65183037 -116.125 164.6875 C-114.95307947 163.2565477 -113.7812058 161.82555703 -112.609375 160.39453125 C-112.01060547 159.66572754 -111.41183594 158.93692383 -110.79492188 158.18603516 C-107.97902331 154.7565526 -105.17537992 151.31715992 -102.375 147.875 C-101.83367432 147.21000488 -101.29234863 146.54500977 -100.73461914 145.85986328 C-97.29857229 141.62857415 -93.91464576 137.36043853 -90.5625 133.0625 C-85.34814636 126.38125126 -79.96295453 119.84753241 -74.5625 113.31640625 C-67.00785683 104.17685845 -59.5483205 94.95891046 -52.15625 85.6875 C-48.71788725 81.4020044 -45.24498273 77.1446273 -41.77734375 72.8828125 C-38.22227851 68.51115455 -34.69047918 64.12216808 -31.1796875 59.71484375 C-29.36069231 57.44924938 -27.53123103 55.19326702 -25.6953125 52.94140625 C-25.1075 52.22017578 -24.5196875 51.49894531 -23.9140625 50.75585938 C-22.74075403 49.31740368 -21.5663134 47.87987054 -20.390625 46.44335938 C-19.85179687 45.78271484 -19.31296875 45.12207031 -18.7578125 44.44140625 C-18.2745752 43.85045166 -17.79133789 43.25949707 -17.29345703 42.65063477 C-16.12180693 41.15544294 -15.05369132 39.58053698 -14 38 C-13.34 38 -12.68 38 -12 38 C-10.43957805 40.43390293 -8.98239697 42.86093364 -7.5625 45.375 C-6.77848174 46.76142055 -5.98833291 48.14439635 -5.19140625 49.5234375 C-4.84279541 50.14138184 -4.49418457 50.75932617 -4.13500977 51.39599609 C-2.92538221 53.30887611 -2.92538221 53.30887611 0 55 C3.57176115 54.91832511 3.57176115 54.91832511 7 54 C9.33592164 51.1407488 9.33592164 51.1407488 8.83666992 47.69091797 C7.95789963 43.8142768 6.7237696 41.29616369 4.61328125 37.9453125 C3.5759082 36.28048828 3.5759082 36.28048828 2.51757812 34.58203125 C1.78272825 33.42957515 1.04770126 32.27723197 0.3125 31.125 C-0.40407259 29.98114323 -1.11957607 28.83661599 -1.83398438 27.69140625 C-5.41222377 21.98869046 -9.04017172 16.38603685 -13.07739258 10.99560547 C-14.32417348 8.29881079 -13.8941693 6.78275886 -13 4 C-11.328125 2.3828125 -11.328125 2.3828125 -9.25 1.125 C-8.57453125 0.69445313 -7.8990625 0.26390625 -7.203125 -0.1796875 C-4.28650077 -1.26566461 -2.94051773 -1.00666622 0 0 Z " fill="#FCCE65" transform="translate(309,41)"/>
<path d="M0 0 C6.26450236 3.19135026 9.6825264 8.27054672 13.2421875 14.16796875 C13.83386719 15.14443359 14.42554688 16.12089844 15.03515625 17.12695312 C15.94587891 18.64192383 15.94587891 18.64192383 16.875 20.1875 C17.47441406 21.17814453 18.07382813 22.16878906 18.69140625 23.18945312 C19.88386372 25.16179329 21.07328044 27.13597534 22.25952148 29.11206055 C23.415948 31.03089478 24.58209129 32.94390779 25.75805664 34.85083008 C26.57197876 36.17763794 26.57197876 36.17763794 27.40234375 37.53125 C27.88695068 38.31435547 28.37155762 39.09746094 28.87084961 39.90429688 C30.46652248 42.86586572 30.83674782 44.72907669 30 48 C26.55402667 52.09791423 23.56323947 54.68735211 18.25 55.75 C15.21704515 55.67778679 14.27719265 55.28473136 12.1328125 53.08203125 C10.29529179 50.44825156 8.62263747 47.77120271 7 45 C2.53263184 37.34091901 2.53263184 37.34091901 -4.72265625 32.5859375 C-10.52762152 31.09237868 -15.98390753 31.22185905 -21.5625 33.375 C-25.81154698 36.20769799 -26.46615221 38.27115443 -27.75 43.125 C-30.7681242 53.14869714 -35.91565515 58.29295349 -44.0234375 64.7265625 C-46.27370849 66.89398974 -46.27370849 66.89398974 -46.4140625 70.0859375 C-46.18757419 73.18678242 -46.18757419 73.18678242 -44 76 C-39.84775489 76.6443139 -37.42305701 76.87203316 -33.80078125 74.65234375 C-32.42451446 73.57626085 -31.07565639 72.46386118 -29.76171875 71.3125 C-28 70 -28 70 -25 70 C-23.7800293 71.39501953 -23.7800293 71.39501953 -22.57421875 73.3828125 C-22.1143457 74.12716553 -21.65447266 74.87151855 -21.18066406 75.63842773 C-20.68791992 76.45899658 -20.19517578 77.27956543 -19.6875 78.125 C-18.6139656 79.86891105 -17.53971749 81.6123829 -16.46484375 83.35546875 C-15.9013623 84.27634277 -15.33788086 85.1972168 -14.75732422 86.14599609 C-10.64990589 92.8166991 -6.41203557 99.40563031 -2.18359375 106 C-0.31688877 108.91260479 1.51511013 111.83563325 3.27734375 114.8125 C8.3166409 123.05674892 14.02497023 128.32056834 23.48828125 130.98046875 C25.73128247 131.47198292 27.98561067 131.91584795 30.25 132.296875 C33.12258379 133.03134245 34.18900971 133.71110949 36 136 C34.51665923 139.92699157 32.49499035 141.1963829 28.87890625 143.19921875 C27.35233398 144.05290039 27.35233398 144.05290039 25.79492188 144.92382812 C24.72822266 145.50583984 23.66152344 146.08785156 22.5625 146.6875 C21.49966797 147.28111328 20.43683594 147.87472656 19.34179688 148.48632812 C5.9229758 155.92991199 -5.05384973 154.17336449 -19.58422852 151.11914062 C-21.95539305 150.62124281 -24.32968505 150.14133716 -26.70507812 149.6640625 C-28.22937748 149.35259242 -29.75347414 149.04012836 -31.27734375 148.7265625 C-31.97947495 148.58376862 -32.68160614 148.44097473 -33.40501404 148.29385376 C-39.87966485 146.92385504 -43.88792998 145.61119215 -48.25 140.5625 C-49.42369141 139.21091797 -49.42369141 139.21091797 -50.62109375 137.83203125 C-53.63414452 134.24506605 -56.6037543 130.62572768 -59.55078125 126.984375 C-62.3181057 123.61238795 -65.15142531 120.30330623 -68 117 C-72.40111864 111.89453566 -76.70430125 106.72177766 -80.953125 101.48828125 C-83.88802184 97.92047727 -86.92671669 94.44879703 -90 91 C-88.95863892 90.04577148 -88.95863892 90.04577148 -87.89624023 89.07226562 C-84.24143359 85.40792143 -81.51648184 81.13818581 -78.66015625 76.84375 C-77.75504555 75.49742493 -77.75504555 75.49742493 -76.83164978 74.12390137 C-74.90330597 71.25277756 -72.98282186 68.3764937 -71.0625 65.5 C-69.80715017 63.62856435 -68.55129497 61.7574676 -67.29492188 59.88671875 C-66.04159512 58.01827716 -64.78833994 56.14978755 -63.53515625 54.28125 C-62.91266998 53.35417236 -62.29018372 52.42709473 -61.64883423 51.47192383 C-58.46732299 46.72371606 -55.31758511 41.95857003 -52.21826172 37.15625 C-51.60333359 36.21164917 -50.98840546 35.26704834 -50.35484314 34.29382324 C-49.19816298 32.51488671 -48.05071372 30.72989642 -46.91481018 28.93762207 C-41.95679339 21.34450234 -36.04564395 15.94574669 -28.2578125 11.2890625 C-27.25492188 10.68449219 -26.25203125 10.07992188 -25.21875 9.45703125 C-23.68734375 8.55017578 -23.68734375 8.55017578 -22.125 7.625 C-21.08085937 6.99722656 -20.03671875 6.36945313 -18.9609375 5.72265625 C-7.83323256 -0.95108389 -7.83323256 -0.95108389 0 0 Z " fill="#FCE4CD" transform="translate(213,304)"/>
<path d="M0 0 C3.81286932 4.43630055 6.6708399 9.2900464 9.625 14.3125 C13.98482449 21.66852129 18.42483969 28.95910369 23.05322266 36.1496582 C26 40.78544207 26 40.78544207 26 43 C22.12530536 43.83475675 18.25021917 44.66768174 14.375 45.5 C12.52092529 45.89832031 12.52092529 45.89832031 10.62939453 46.3046875 C3.28826783 47.87918452 -4.05658981 49.43456493 -11.40625 50.96875 C-26.39908258 54.10057053 -41.37102386 57.26170353 -56.27978516 60.77685547 C-66.79331767 63.23229124 -77.36748892 65.37547563 -87.94555664 67.53100586 C-97.2270202 69.4228802 -106.48386599 71.39753884 -115.72265625 73.48779297 C-120.54052216 74.5713996 -125.36380526 75.6302 -130.1875 76.6875 C-131.1571167 76.90229004 -132.1267334 77.11708008 -133.12573242 77.33837891 C-138.07285235 78.42062898 -142.97491796 79.36752079 -148 80 C-154.51980725 71.27631424 -159.94990922 61.89770353 -165.49267578 52.5390625 C-167.97951461 48.35002398 -170.48991894 44.17514036 -173 40 C-172.32984863 39.86013672 -171.65969727 39.72027344 -170.96923828 39.57617188 C-156.6841457 36.58296737 -142.4484188 33.44139099 -128.25 30.0625 C-117.18904884 27.43047485 -106.11404806 24.89803975 -95 22.5 C-83.97011791 20.11956129 -72.97764859 17.61067497 -62 15 C-46.76583954 11.37733993 -31.48866358 7.9816672 -16.17919922 4.69238281 C-13.39600243 4.0862435 -10.62203759 3.44957728 -7.84765625 2.8046875 C-4 2 -4 2 0 2 C0 1.34 0 0.68 0 0 Z " fill="#F3B253" transform="translate(378,212)"/>
<path d="M0 0 C3.71398952 1.49717618 5.49740759 3.55425274 7.9375 6.6875 C11.62977181 11.32402493 15.41643529 15.84591329 19.3125 20.3125 C20.42845523 21.59499134 21.54434021 22.87754381 22.66015625 24.16015625 C23.21461426 24.79711426 23.76907227 25.43407227 24.34033203 26.09033203 C30.54872623 33.23391241 36.72823972 40.39645872 42.6875 47.75 C45.58914046 51.32974121 48.58009459 54.78489108 51.6875 58.1875 C60.3010788 67.74129339 60.3010788 67.74129339 62 71 C61.6875 73.625 61.6875 73.625 60 76 C59.38033859 77.02428101 58.76067719 78.04856201 58.12223816 79.10388184 C56.33281468 81.21228544 55.33899061 81.92174436 52.61800575 82.54988098 C49.51632375 82.75496959 46.46488585 82.76448175 43.35668945 82.71289062 C42.17898987 82.71697937 41.00129028 82.72106812 39.78790283 82.72528076 C36.56650516 82.73025984 33.34665069 82.70853585 30.12547326 82.67422676 C26.75386249 82.64410506 23.38226662 82.64650179 20.01054382 82.64489746 C14.35210301 82.63751993 8.69414857 82.60762039 3.03588867 82.5625 C-4.23129448 82.50466843 -11.49808701 82.48404457 -18.76547527 82.4751358 C-25.01189406 82.46718242 -31.25822768 82.44218477 -37.5045855 82.41444206 C-39.51394155 82.40624093 -41.52329457 82.40039149 -43.53265953 82.39485168 C-47.27022255 82.38116362 -51.00742452 82.35391933 -54.74487305 82.32226562 C-56.41946342 82.31891205 -56.41946342 82.31891205 -58.12788391 82.31549072 C-59.14152008 82.30407043 -60.15515625 82.29265015 -61.19950867 82.28088379 C-62.0834666 82.27493446 -62.96742453 82.26898514 -63.87816906 82.26285553 C-66 82 -66 82 -68 80 C-69.67748883 71.60318914 -71.10054254 59.29137153 -66.63037109 51.66259766 C-63.04917642 47.71034669 -58.6926486 44.96352356 -54.12011719 42.27783203 C-51.02214612 40.41063022 -48.25849419 38.19189564 -45.4375 35.9375 C-44.39335938 35.14085937 -43.34921875 34.34421875 -42.2734375 33.5234375 C-38.01849498 30.261746 -33.84644362 26.89724451 -29.66699219 23.53979492 C-25.3612962 20.08291394 -21.03381446 16.65565421 -16.6875 13.25 C-11.09634735 8.86878504 -5.53554606 4.45139533 0 0 Z " fill="#395365" transform="translate(83,411)"/>
<path d="M0 0 C2.66182872 1.26566357 3.44436516 2.77490846 4.92822266 5.30932617 C5.75640503 6.69958008 5.75640503 6.69958008 6.60131836 8.11791992 C7.18486084 9.12467773 7.76840332 10.13143555 8.36962891 11.16870117 C9.62132147 13.27861724 10.87394635 15.38798046 12.12744141 17.49682617 C12.76069336 18.5699707 13.39394531 19.64311523 14.04638672 20.7487793 C16.88053377 25.51296434 19.81080059 30.21549768 22.74462891 34.91870117 C26.61184071 41.14836399 30.45943184 47.3888019 34.24462891 53.66870117 C34.62401611 54.29518555 35.00340332 54.92166992 35.39428711 55.56713867 C37.93212891 59.79868645 37.93212891 59.79868645 37.93212891 60.91870117 C37.25408203 61.00506836 36.57603516 61.09143555 35.87744141 61.18041992 C34.94673828 61.32092773 34.01603516 61.46143555 33.05712891 61.60620117 C31.69974609 61.79762695 31.69974609 61.79762695 30.31494141 61.99291992 C21.25074208 64.47353798 13.3233762 70.00828484 5.49462891 75.04370117 C4.51558594 75.66374023 3.53654297 76.2837793 2.52783203 76.92260742 C-2.37336558 79.92888316 -2.37336558 79.92888316 -6.73999023 83.61743164 C-8.06787109 84.91870117 -8.06787109 84.91870117 -10.06787109 84.91870117 C-10.33970215 85.48943359 -10.6115332 86.06016602 -10.89160156 86.64819336 C-12.09221225 88.96568598 -13.43361378 91.0804456 -14.88818359 93.24682617 C-15.42314453 94.04604492 -15.95810547 94.84526367 -16.50927734 95.66870117 C-17.06486328 96.49370117 -17.62044922 97.31870117 -18.19287109 98.16870117 C-18.75619141 99.00916992 -19.31951172 99.84963867 -19.89990234 100.71557617 C-21.28714958 102.7846907 -22.6765348 104.852335 -24.06787109 106.91870117 C-26.44491742 106.53645458 -27.76971421 106.2131102 -29.50512695 104.49951172 C-33.83661538 98.4177516 -37.75788554 92.11332532 -41.63037109 85.73120117 C-42.68265235 84.00582549 -43.73618259 82.28121644 -44.78974915 80.55662537 C-45.5012468 79.39169152 -46.21225558 78.22645894 -46.92277527 77.06092834 C-49.25023309 73.24541438 -51.60038996 69.44484542 -53.96630859 65.65307617 C-54.56499756 64.69296631 -55.16368652 63.73285645 -55.78051758 62.74365234 C-56.90808821 60.93778374 -58.0377231 59.13320198 -59.16967773 57.33007812 C-59.67104248 56.52530029 -60.17240723 55.72052246 -60.68896484 54.89135742 C-61.126521 54.19276611 -61.56407715 53.4941748 -62.01489258 52.77441406 C-64.27229471 48.79608956 -64.52534325 45.41717734 -64.06787109 40.91870117 C-60.72717103 35.38926659 -55.88232813 32.69091899 -50.39599609 29.43432617 C-47.96260527 28.12949484 -47.96260527 28.12949484 -47.06787109 25.91870117 C-47.19677734 24.66186523 -47.32568359 23.4050293 -47.45849609 22.11010742 C-47.4889762 19.51753969 -47.46828436 18.37128507 -45.72998047 16.40649414 C-43.81969533 15.05760103 -41.8873783 13.94450949 -39.81787109 12.85620117 C-39.13595703 12.4546582 -38.45404297 12.05311523 -37.75146484 11.6394043 C-32.72822449 8.81566045 -32.72822449 8.81566045 -29.90087891 9.25683594 C-28.06787109 9.91870117 -28.06787109 9.91870117 -27.06787109 10.91870117 C-20.23264053 11.85687007 -16.4199747 9.10559487 -10.88037109 5.35620117 C-9.3110802 4.30193345 -7.73449943 3.25841393 -6.14990234 2.22729492 C-5.46130127 1.76121826 -4.7727002 1.2951416 -4.06323242 0.81494141 C-2.06787109 -0.08129883 -2.06787109 -0.08129883 0 0 Z " fill="#FB6F5B" transform="translate(172.06787109375,228.081298828125)"/>
<path d="M0 0 C1.89013672 2.30297852 1.89013672 2.30297852 3.6796875 5.37890625 C4.00906815 5.93358582 4.33844879 6.48826538 4.67781067 7.05975342 C5.75828314 8.88575899 6.8161174 10.72390579 7.875 12.5625 C8.62807117 13.84185511 9.38305997 15.12008325 10.13989258 16.3972168 C11.29949004 18.35424782 12.45800242 20.31181824 13.61073303 22.27290344 C17.18959972 28.35807141 20.91979809 34.34257782 24.6875 40.3125 C29.52079079 48.00471471 34.29177942 55.73060888 39 63.5 C43.77124278 71.37312252 48.6072262 79.2018265 53.5 87 C58.98446547 95.74122022 64.3822681 104.53033404 69.73046875 113.35546875 C73.93016168 120.27316519 78.19895178 127.14492727 82.5 134 C87.98446547 142.74122022 93.3822681 151.53033404 98.73046875 160.35546875 C103.53744558 168.27347778 108.44228327 176.1275766 113.3659668 183.97338867 C118.51938626 192.19848096 123.58110793 200.4771907 128.609375 208.77929688 C129.15722656 209.68357422 129.70507812 210.58785156 130.26953125 211.51953125 C130.75010986 212.31464111 131.23068848 213.10975098 131.72583008 213.92895508 C132.78015705 215.6426657 133.88390661 217.32585992 135 219 C134.8120113 221.68928282 134.33138251 222.69881356 132.328125 224.51953125 C131.64234375 224.94621094 130.9565625 225.37289062 130.25 225.8125 C129.57453125 226.25207031 128.8990625 226.69164062 128.203125 227.14453125 C125.31138054 228.26738947 123.93562912 227.95732499 121 227 C119.27758789 225.04833984 119.27758789 225.04833984 117.72265625 222.4609375 C117.13419922 221.49994141 116.54574219 220.53894531 115.93945312 219.54882812 C115.32005859 218.50146484 114.70066406 217.45410156 114.0625 216.375 C113.40572266 215.29412109 112.74894531 214.21324219 112.07226562 213.09960938 C110.03450794 209.741119 108.0172514 206.37083551 106 203 C104.24138045 200.09962183 102.47647928 197.20314793 100.71069336 194.30712891 C99.56227887 192.42266055 98.41598466 190.53689856 97.27172852 188.64990234 C93.07291474 181.72942796 88.80206183 174.85668824 84.5 168 C79.01553453 159.25877978 73.6177319 150.46966596 68.26953125 141.64453125 C63.45844869 133.71975931 58.55019827 125.85844236 53.62084961 118.00683594 C49.20380702 110.95935504 44.86785837 103.8661556 40.5625 96.75 C33.20854881 83.67616961 33.20854881 83.67616961 24 72 C21.31160615 71.73008094 18.70858064 71.91262643 16 72 C14.68144905 69.75335738 13.37006028 67.50302694 12.0625 65.25 C11.50272461 64.29867187 11.50272461 64.29867187 10.93164062 63.328125 C7.43074404 57.27252009 7.43074404 57.27252009 7 54 C7.66 53.01 8.32 52.02 9 51 C8.74216902 45.7763212 7.37788647 42.33471398 4.61328125 37.9453125 C3.92169922 36.83542969 3.23011719 35.72554687 2.51757812 34.58203125 C1.78272825 33.42957515 1.04770126 32.27723197 0.3125 31.125 C-0.40407259 29.98114323 -1.11957607 28.83661599 -1.83398438 27.69140625 C-5.41222377 21.98869046 -9.04017172 16.38603685 -13.07739258 10.99560547 C-14.32417348 8.29881079 -13.8941693 6.78275886 -13 4 C-11.328125 2.3828125 -11.328125 2.3828125 -9.25 1.125 C-8.57453125 0.69445313 -7.8990625 0.26390625 -7.203125 -0.1796875 C-4.28650077 -1.26566461 -2.94051773 -1.00666622 0 0 Z " fill="#F96E5A" transform="translate(309,41)"/>
<path d="M0 0 C2.8961955 3.48406088 5.34576944 7.03598301 7.671875 10.921875 C8.66767578 12.58283203 8.66767578 12.58283203 9.68359375 14.27734375 C10.02245605 14.84694824 10.36131836 15.41655273 10.71044922 16.00341797 C11.75686714 17.7615377 12.80963502 19.51573588 13.86328125 21.26953125 C19 29.86423679 19 29.86423679 19 31 C18.32195312 31.08636719 17.64390625 31.17273438 16.9453125 31.26171875 C16.01460938 31.40222656 15.08390625 31.54273438 14.125 31.6875 C12.76761719 31.87892578 12.76761719 31.87892578 11.3828125 32.07421875 C2.31861317 34.55483681 -5.60875271 40.08958366 -13.4375 45.125 C-14.90606445 46.05505859 -14.90606445 46.05505859 -16.40429688 47.00390625 C-21.30549448 50.01018199 -21.30549448 50.01018199 -25.67211914 53.69873047 C-27 55 -27 55 -29 55 C-29.27183105 55.57073242 -29.54366211 56.14146484 -29.82373047 56.72949219 C-31.02434116 59.0469848 -32.36574269 61.16174443 -33.8203125 63.328125 C-34.35527344 64.12734375 -34.89023438 64.9265625 -35.44140625 65.75 C-35.99699219 66.575 -36.55257812 67.4 -37.125 68.25 C-37.96998047 69.51070312 -37.96998047 69.51070312 -38.83203125 70.796875 C-40.21927849 72.86598953 -41.60866371 74.93363383 -43 77 C-45.37053302 76.61810542 -46.69789622 76.29920788 -48.42626953 74.58740234 C-52.8085993 68.41164389 -56.87374428 62.05337402 -60.875 55.625 C-61.56335938 54.53316406 -62.25171875 53.44132812 -62.9609375 52.31640625 C-63.610625 51.27613281 -64.2603125 50.23585938 -64.9296875 49.1640625 C-65.81503174 47.74794678 -65.81503174 47.74794678 -66.71826172 46.30322266 C-68 44 -68 44 -68 42 C-66.02587891 40.55810547 -66.02587891 40.55810547 -63.2265625 38.8671875 C-62.18677246 38.23377441 -61.14698242 37.60036133 -60.07568359 36.94775391 C-58.92548971 36.25677937 -57.77526091 35.56586294 -56.625 34.875 C-55.44696111 34.16011189 -54.26939556 33.44444325 -53.09228516 32.72802734 C-50.63433536 31.23292922 -48.17434981 29.74126596 -45.71289062 28.25195312 C-39.91485989 24.74012853 -34.14604703 21.18094074 -28.375 17.625 C-27.29766602 16.96226074 -26.22033203 16.29952148 -25.11035156 15.61669922 C-16.71553671 10.45036118 -8.34607785 5.24466523 0 0 Z " fill="#D53C37" transform="translate(191,258)"/>
<path d="M0 0 C2.86188717 2.54777761 4.54056696 5.47874315 6.5 8.75 C12.26682924 17.43700871 18.87154554 21.53052778 29 23.75 C30.0725 23.93046875 31.145 24.1109375 32.25 24.296875 C35.12258379 25.03134245 36.18900971 25.71110949 38 28 C36.51665923 31.92699157 34.49499035 33.1963829 30.87890625 35.19921875 C29.35233398 36.05290039 29.35233398 36.05290039 27.79492188 36.92382812 C26.72822266 37.50583984 25.66152344 38.08785156 24.5625 38.6875 C23.49966797 39.28111328 22.43683594 39.87472656 21.34179688 40.48632812 C7.9229758 47.92991199 -3.05384973 46.17336449 -17.58422852 43.11914062 C-19.95539305 42.62124281 -22.32968505 42.14133716 -24.70507812 41.6640625 C-26.22937748 41.35259242 -27.75347414 41.04012836 -29.27734375 40.7265625 C-29.97947495 40.58376862 -30.68160614 40.44097473 -31.40501404 40.29385376 C-37.87966485 38.92385504 -41.88792998 37.61119215 -46.25 32.5625 C-47.01828125 31.67691406 -47.7865625 30.79132813 -48.578125 29.87890625 C-59.62823062 16.74353877 -59.62823062 16.74353877 -61 14 C-56.37744185 13.92544261 -51.90492091 13.95926719 -47.3125 14.5 C-28.05001416 16.50401638 -16.6607588 11.45955789 -1 1 C-0.67 0.67 -0.34 0.34 0 0 Z " fill="#EBD2BB" transform="translate(211,412)"/>
<path d="M0 0 C8.92270825 8.82642003 17.22445927 18.15098174 25 28 C25.88171875 29.07121094 25.88171875 29.07121094 26.78125 30.1640625 C27.1834375 30.76992188 27.585625 31.37578125 28 32 C27.091566 36.31506151 24.58452256 40.39809329 21 43 C17.1143049 43.88370986 13.29422254 43.75805095 9.32495117 43.68115234 C8.144039 43.6820285 6.96312683 43.68290466 5.74642944 43.68380737 C2.51686253 43.68034851 -0.71113511 43.65030732 -3.94038987 43.60836363 C-7.31823772 43.57080016 -10.69611797 43.56732693 -14.07414246 43.56021118 C-20.4668543 43.5415785 -26.8589489 43.492364 -33.25138921 43.43211424 C-40.53060212 43.36499903 -47.80984486 43.3320477 -55.08929026 43.30194163 C-70.05987049 43.23926267 -85.02987345 43.1337595 -100 43 C-100 42.67 -100 42.34 -100 42 C-99.21010178 42.01633987 -98.42020355 42.03267975 -97.60636902 42.04951477 C-90.11864097 42.19269302 -82.63408644 42.27222104 -75.14509106 42.28240681 C-71.29558138 42.28983066 -67.44942605 42.32082251 -63.60083008 42.40795898 C-46.23936406 43.69221851 -46.23936406 43.69221851 -30.66455078 38.24560547 C-27.75837704 35.19915728 -25.93137344 31.73136997 -24 28 C-22.26799073 25.73947902 -20.39646181 23.62281188 -18.5 21.5 C-17.59219214 20.43341719 -16.68688992 19.36469184 -15.78515625 18.29296875 C-15.33285645 17.75849121 -14.88055664 17.22401367 -14.41455078 16.67333984 C-12.91936322 14.9046109 -11.4263156 13.13409148 -9.93359375 11.36328125 C-9.43214844 10.76902344 -8.93070312 10.17476563 -8.4140625 9.5625 C-7.45108588 8.42119438 -6.48881237 7.27929504 -5.52734375 6.13671875 C-3.74092265 4.02066042 -1.95924098 1.95924098 0 0 Z " fill="#17404D" transform="translate(117,450)"/>
<path d="M0 0 C2.93350708 0.09600569 4.03741536 0.32244921 6.625 1.875 C8.72283925 5.37139875 8.62134999 8.43870539 8.125 12.375 C7.04961518 16.14035955 5.5972685 19.72058055 4.109375 23.33984375 C3.69713684 24.37258926 3.28489868 25.40533478 2.86016846 26.46937561 C1.5445673 29.75572521 0.20994036 33.03396554 -1.125 36.3125 C-2.00773217 38.51187983 -2.88925485 40.7117455 -3.76953125 42.91210938 C-6.11091895 48.74451901 -8.46162602 54.57195728 -10.875 60.375 C-11.22703491 61.23956818 -11.57906982 62.10413635 -11.94177246 62.99490356 C-12.28164185 63.80297455 -12.62151123 64.61104553 -12.97167969 65.44360352 C-13.26709656 66.15557388 -13.56251343 66.86754425 -13.86688232 67.60108948 C-14.875 69.375 -14.875 69.375 -17.875 71.375 C-21.71193587 71.79357482 -23.98703064 71.92144269 -27.3125 69.875 C-29.4929075 66.386348 -29.37860752 63.33970988 -28.875 59.375 C-27.7992736 55.60972843 -26.34727443 52.02943387 -24.859375 48.41015625 C-24.44713684 47.37741074 -24.03489868 46.34466522 -23.61016846 45.28062439 C-22.2945673 41.99427479 -20.95994036 38.71603446 -19.625 35.4375 C-18.74226783 33.23812017 -17.86074515 31.0382545 -16.98046875 28.83789062 C-10.84207386 13.54711518 -10.84207386 13.54711518 -7.71582031 6.30639648 C-7.25529266 5.23844093 -7.25529266 5.23844093 -6.78546143 4.14891052 C-4.96282127 0.59774355 -4.06885388 0.39376005 0 0 Z " fill="#000000" transform="translate(397.875,3.625)"/>
<path d="M0 0 C2.18386718 0.2155791 4.36847305 0.42378966 6.55371094 0.625 C9.74901483 0.91966985 12.94139326 1.23672697 16.1340332 1.55883789 C17.10797531 1.64442459 18.08191742 1.73001129 19.08537292 1.81819153 C24.34667458 2.37717769 27.79090593 2.95091741 31.55981445 7.00805664 C32.22387695 9.00805664 32.22387695 9.00805664 32.18481445 11.00805664 C32.20415039 11.99805664 32.20415039 11.99805664 32.22387695 13.00805664 C31.16293412 16.20336681 29.37333702 17.23230498 26.55981445 19.00805664 C23.71434417 19.19346678 21.36712076 19.16022738 18.56762695 18.87915039 C17.78477325 18.8176329 17.00191956 18.75611542 16.19534302 18.69273376 C13.64778847 18.48633256 11.10439144 18.24819788 8.55981445 18.00805664 C6.83303848 17.85977337 5.1061489 17.71280724 3.37915039 17.56713867 C-1.04222437 17.18558488 -5.45923419 16.76763432 -9.87573242 16.33349609 C-12.59709772 16.06743669 -15.31933359 15.81195915 -18.04174805 15.55688477 C-19.80222628 15.38629501 -21.5626454 15.21509377 -23.32299805 15.04321289 C-24.52159958 14.93215965 -24.52159958 14.93215965 -25.74441528 14.81886292 C-38.72031935 13.51293956 -38.72031935 13.51293956 -42.44018555 10.25805664 C-43.76650075 7.27384742 -43.84459333 5.24331892 -43.44018555 2.00805664 C-37.67041643 -8.15772704 -10.03803676 -1.00525173 0 0 Z " fill="#000000" transform="translate(480.440185546875,172.991943359375)"/>
<path d="M0 0 C2.4375 1.5625 2.4375 1.5625 4 4 C4.5625 7.4375 4.5625 7.4375 4 11 C-0.36770218 16.43390786 -6.49527882 19.65650912 -12.375 23.25 C-13.44468018 23.9095166 -14.51436035 24.5690332 -15.61645508 25.24853516 C-17.75447415 26.56451192 -19.89449376 27.87724469 -22.03662109 29.18652344 C-24.61086502 30.76186401 -27.17629214 32.35016461 -29.73828125 33.9453125 C-31.05419079 34.75601513 -32.37055278 35.56598412 -33.6875 36.375 C-34.80511719 37.06335938 -35.92273438 37.75171875 -37.07421875 38.4609375 C-40.89229526 40.46937828 -43.4916331 41.4209396 -47.6875 40.25 C-50 39 -50 39 -52 36 C-52.44369396 32.5983463 -52.41113542 30.6899514 -50.640625 27.71875 C-46.75178045 23.71485087 -42.16818207 21.18632578 -37.375 18.375 C-35.29901713 17.14140222 -33.22350197 15.90701702 -31.1484375 14.671875 C-29.59721191 13.75245117 -29.59721191 13.75245117 -28.01464844 12.81445312 C-25.22125619 11.13316942 -22.46855183 9.40415819 -19.7265625 7.640625 C-18.92428223 7.12967285 -18.12200195 6.6187207 -17.29541016 6.09228516 C-15.80579241 5.14008322 -14.32317534 4.17680533 -12.84912109 3.20068359 C-8.42517158 0.40588451 -5.39038553 -0.66127406 0 0 Z " fill="#000000" transform="translate(455,90)"/>
<path d="M0 0 C2.81798034 0.3453105 3.83154008 0.81005861 5.74609375 2.96875 C9.99699123 9.33037024 13.86113159 15.78535664 17.32421875 22.609375 C20.81500066 29.07449438 24.26674098 32.10469862 31 35 C31.99 35.495 31.99 35.495 33 36 C32.9071875 37.7015625 32.9071875 37.7015625 32.8125 39.4375 C32.83994657 47.20487884 35.70672622 54.30548681 41 60 C43.63426884 61.91874605 43.63426884 61.91874605 46 63 C45.34 65.64 44.68 68.28 44 71 C40.88221677 71.54561206 38.78403585 71.52542558 36.11035156 69.73364258 C31.11226444 65.38416691 27.61806844 60.93128601 24.25 55.25 C23.21779177 53.56359157 22.18522929 51.87739993 21.15234375 50.19140625 C20.37286377 48.90387451 20.37286377 48.90387451 19.57763672 47.59033203 C17.53352939 44.23409885 15.43908599 40.91134833 13.33569336 37.59204102 C12.32567276 35.99760394 11.31992183 34.40045362 10.31860352 32.80053711 C8.02151169 29.13719363 5.69163954 25.51865945 3.2109375 21.9765625 C2.78321045 21.35370361 2.3554834 20.73084473 1.91479492 20.08911133 C0.77566328 18.44012367 -0.38663782 16.80720739 -1.55078125 15.17578125 C-3.52391146 10.85191371 -2.97731522 8.61350272 -2 4 C-0.9375 1.5 -0.9375 1.5 0 0 Z " fill="#314859" transform="translate(200,350)"/>
<path d="M0 0 C2.69990662 1.79993774 4.5418865 3.083773 6 6 C6.36655482 9.88548114 6.5460173 12.17459857 4.35864258 15.48120117 C0.42146573 19.6857197 -4.53009565 22.31573148 -9.45288086 25.21313477 C-11.30757771 26.30959005 -13.14479984 27.43186168 -14.98242188 28.55664062 C-16.1709067 29.26464879 -17.36033087 29.971083 -18.55078125 30.67578125 C-20.15433472 31.6335144 -20.15433472 31.6335144 -21.7902832 32.6105957 C-25.49173589 34.21285989 -28.00539222 34.41044364 -32 34 C-35.54264431 31.45853778 -36.77457662 29.72931094 -38.0625 25.5625 C-37.98235268 20.99410282 -36.87150989 19.5369142 -34 16 C-31.38724241 14.05189439 -28.60828567 12.49588706 -25.75 10.9375 C-24.28583255 10.11439343 -22.82228834 9.29017721 -21.359375 8.46484375 C-20.63943359 8.06378418 -19.91949219 7.66272461 -19.17773438 7.24951172 C-16.30198418 5.59950169 -13.5163356 3.8220409 -10.73535156 2.01782227 C-7.15134459 -0.08427749 -4.07407615 -0.40740762 0 0 Z " fill="#E9D0B9" transform="translate(285,367)"/>
<path d="M0 0 C3.73892951 1.50224846 5.54093605 3.60165298 8 6.75 C11.5802494 11.24886603 15.23945187 15.65082361 19 20 C23.29943179 24.98723299 27.50297094 30.03905131 31.65234375 35.15234375 C34.40947684 38.49668655 37.23143525 41.78075797 40.0625 45.0625 C44.84410613 50.6066768 49.48423748 56.23576197 54 62 C52.47427344 65.32635882 51.06655496 66.95563002 48 69 C44.16054818 67.48147523 42.32508945 65.22197262 39.8125 62 C36.80880624 58.22448968 33.75707006 54.55939005 30.5 51 C27.47717579 47.68010514 24.57487839 44.30235888 21.75 40.8125 C17.59766245 35.68356738 13.30077571 30.69676372 8.96704102 25.72167969 C3.5812541 19.53432784 -1.71849648 13.276416 -7 7 C-4.78071806 4.09197539 -3.07030857 2.04687238 0 0 Z " fill="#909EA3" transform="translate(107,400)"/>
<path d="M0 0 C3.80703755 2.02501998 4.7651981 3.25415866 6.0625 7.375 C5.98424434 11.91382802 4.77364916 13.45582892 2 17 C-0.71728516 19.04223633 -0.71728516 19.04223633 -3.7890625 20.83203125 C-4.89507812 21.48494141 -6.00109375 22.13785156 -7.140625 22.81054688 C-8.30194319 23.47810844 -9.4634031 24.14542352 -10.625 24.8125 C-11.7949883 25.49812611 -12.96426676 26.18496503 -14.1328125 26.87304688 C-25.52709341 33.54855141 -25.52709341 33.54855141 -32 33 C-34.75329021 31.20437595 -36.52627461 29.94745078 -38 27 C-38.53985746 23.04104527 -38.30263215 21.43595548 -35.99609375 18.11328125 C-32.78469979 14.44327929 -28.91906156 12.27099965 -24.6875 9.9375 C-23.23244118 9.11439702 -21.77801152 8.29018081 -20.32421875 7.46484375 C-19.60903076 7.06434814 -18.89384277 6.66385254 -18.15698242 6.2512207 C-15.31547285 4.60292002 -12.5809334 2.80503791 -9.85351562 0.97509766 C-6.3810023 -0.85172245 -3.8611506 -0.56967796 0 0 Z " fill="#EAD0B9" transform="translate(296,401)"/>
<path d="M0 0 C3.05455846 3.81819807 5.53898603 7.35249661 8.0390625 11.5078125 C8.40599213 12.115112 8.77292175 12.7224115 9.15097046 13.34811401 C10.31235436 15.27173246 11.46884472 17.19823537 12.625 19.125 C13.78930311 21.05828247 14.95460865 22.99095587 16.12045288 24.92330933 C17.17400365 26.67064268 18.22500856 28.41951032 19.27587891 30.16845703 C20.47538356 32.13841667 21.72063088 34.08094632 23 36 C22.8120113 38.68928282 22.33138251 39.69881356 20.328125 41.51953125 C19.29945313 42.15955078 19.29945313 42.15955078 18.25 42.8125 C17.57453125 43.25207031 16.8990625 43.69164062 16.203125 44.14453125 C13.29745824 45.27279547 11.94707139 44.98291434 9 44 C7.16650391 41.8737793 7.16650391 41.8737793 5.4765625 39.07421875 C4.8475 38.04876953 4.2184375 37.02332031 3.5703125 35.96679688 C2.92835938 34.88462891 2.28640625 33.80246094 1.625 32.6875 C0.67367188 31.12805664 0.67367188 31.12805664 -0.296875 29.53710938 C-4.62506341 22.41326458 -8.81453347 15.20830347 -13 8 C-8.71 5.36 -4.42 2.72 0 0 Z " fill="#D23B36" transform="translate(421,224)"/>
<path d="M0 0 C3.43256536 1.4031925 4.82375209 2.81439525 6.6640625 6.0078125 C7.14198242 6.82282227 7.61990234 7.63783203 8.11230469 8.47753906 C8.61149414 9.35120117 9.11068359 10.22486328 9.625 11.125 C10.68357504 12.93566866 11.74349233 14.7455532 12.8046875 16.5546875 C13.33545898 17.46444336 13.86623047 18.37419922 14.41308594 19.31152344 C16.78831167 23.33552125 19.26031644 27.29611729 21.75 31.25 C22.18006348 31.93465332 22.61012695 32.61930664 23.05322266 33.32470703 C24.03382321 34.88418216 25.01662884 36.44227047 26 38 C21.94769487 41.49939994 19.38389589 42.57773366 14 43 C8.97250567 36.84101477 4.69134616 30.48727528 0.6875 23.625 C-0.34975859 21.86689134 -1.38749802 20.10906624 -2.42578125 18.3515625 C-2.87348877 17.58666504 -3.32119629 16.82176758 -3.7824707 16.03369141 C-4.80537057 14.32509788 -5.8953781 12.65693285 -7 11 C-7.5625 8.125 -7.5625 8.125 -7 5 C-4.87632603 2.96635709 -2.54117495 1.46506515 0 0 Z " fill="#314859" transform="translate(99,294)"/>
<path d="M0 0 C0.66 0.33 1.32 0.66 2 1 C-0.74007251 9.71841255 -8.80567336 13.66616403 -16.15600586 18.15820312 C-17.93674368 19.24953649 -19.70572962 20.35832611 -21.47460938 21.46875 C-22.6165202 22.17295821 -23.75907743 22.87611955 -24.90234375 23.578125 C-26.44136353 24.52800293 -26.44136353 24.52800293 -28.01147461 25.49707031 C-31.09581589 27.04818582 -33.57034017 27.71396081 -37 28 C-37.33 27.67 -37.66 27.34 -38 27 C-37.82159976 22.3615938 -37.21715926 19.6444999 -33.81005859 16.43652344 C-29.62488906 13.115032 -24.9553396 10.4823313 -20.375 7.75 C-19.32570313 7.11320312 -18.27640625 6.47640625 -17.1953125 5.8203125 C-7.03897661 -0.29953092 -7.03897661 -0.29953092 0 0 Z " fill="#F9E0CA" transform="translate(285,367)"/>
<path d="M0 0 C3.73892951 1.50224846 5.54093605 3.60165298 8 6.75 C10.68635016 10.15061383 13.39277784 13.47506863 16.2890625 16.69921875 C16.84207031 17.32022461 17.39507812 17.94123047 17.96484375 18.58105469 C19.05949178 19.80512875 20.16351537 21.02089166 21.27734375 22.22753906 C22.7890625 23.93359375 22.7890625 23.93359375 25 27 C24.67141769 30.34191284 24.06280963 30.94485008 21.4375 33.25 C20.633125 33.8275 19.82875 34.405 19 35 C15.28601048 33.50282382 13.50259241 31.44574726 11.0625 28.3125 C7.13472014 23.3732183 3.0826511 18.57090943 -1.0625 13.8125 C-1.64700928 13.14065674 -2.23151855 12.46881348 -2.83374023 11.77661133 C-4.22120768 10.18328695 -5.61041214 8.59147543 -7 7 C-4.78071806 4.09197539 -3.07030857 2.04687238 0 0 Z " fill="#C6CED8" transform="translate(107,400)"/>
<path d="M0 0 C0.495 1.485 0.495 1.485 1 3 C-3.41603832 9.31833176 -8.87392667 12.81007021 -15.4375 16.6875 C-16.35337891 17.24244141 -17.26925781 17.79738281 -18.21289062 18.36914062 C-20.79865396 19.93025115 -23.39695295 21.46793726 -26 23 C-26.69826904 23.42071777 -27.39653809 23.84143555 -28.1159668 24.27490234 C-31.60799585 26.34693428 -33.88197787 27.4991542 -38 27 C-38.46721178 23.07542105 -38.2793396 21.40427859 -36 18.10546875 C-32.78508661 14.4439606 -28.91580437 12.26920346 -24.6875 9.9375 C-23.23244118 9.11439702 -21.77801152 8.29018081 -20.32421875 7.46484375 C-19.60862793 7.06467041 -18.89303711 6.66449707 -18.15576172 6.25219727 C-15.31844515 4.60411157 -12.59732513 2.79479326 -9.8840332 0.95068359 C-6.5760278 -0.7185367 -3.62980517 -0.32408975 0 0 Z " fill="#FAE2CB" transform="translate(296,401)"/>
<path d="M0 0 C2.8100346 1.79363911 4.50940468 3.01880935 6 6 C6.42200521 10.74755856 5.86368868 13.20053903 3 17 C0.46515003 18.99661342 -2.23631591 20.65281427 -5 22.3125 C-6.08667969 22.9940918 -6.08667969 22.9940918 -7.1953125 23.68945312 C-12.59175282 27 -12.59175282 27 -16 27 C-15.38125 26.278125 -14.7625 25.55625 -14.125 24.8125 C-10.15379384 19.55649184 -9.72474682 15.15416581 -9.875 8.6875 C-9.88402344 7.94693359 -9.89304687 7.20636719 -9.90234375 6.44335938 C-9.92575787 4.62876533 -9.96162385 2.81433929 -10 1 C-6.79826746 -0.60086627 -3.47422941 -0.49917089 0 0 Z " fill="#E1C9B3" transform="translate(267,338)"/>
<path d="M0 0 C2.9375 1.5 2.9375 1.5 5 4 C6.11071177 7.56596937 6.38005346 10.72163836 5.3125 14.3125 C3.74447056 16.32853786 2.16391855 17.64755091 0 19 C-0.66 19 -1.32 19 -2 19 C-3.66837122 16.59078898 -5.19386588 14.20151477 -6.6875 11.6875 C-7.33041992 10.65206055 -7.33041992 10.65206055 -7.98632812 9.59570312 C-8.38658203 8.92861328 -8.78683594 8.26152344 -9.19921875 7.57421875 C-9.75355591 6.65515747 -9.75355591 6.65515747 -10.3190918 5.7175293 C-11 4 -11 4 -10 1 C-6.78349664 -0.60825168 -3.48825188 -0.46109077 0 0 Z " fill="#E4CBB5" transform="translate(250,308)"/>
<path d="M0 0 C5.3589756 2.42670593 8.6725819 6.65041212 11 12 C10.67 12.66 10.34 13.32 10 14 C9.071875 13.360625 8.14375 12.72125 7.1875 12.0625 C2.47804127 9.01520317 -0.66547626 8.88683923 -6.1875 8.9375 C-7.45980469 8.94652344 -8.73210937 8.95554687 -10.04296875 8.96484375 C-11.01878906 8.97644531 -11.99460938 8.98804688 -13 9 C-12.4140625 2.84765625 -12.4140625 2.84765625 -12 1 C-8.28055101 -0.8597245 -4.05935482 -0.4315801 0 0 Z " fill="#E5CCB6" transform="translate(205,327)"/>
<path d="M0 0 C0.33 0 0.66 0 1 0 C1.3125 2.6875 1.3125 2.6875 1 6 C-2.44597333 10.09791423 -5.43676053 12.68735211 -10.75 13.75 C-12.859375 13.734375 -12.859375 13.734375 -15 13 C-17.83414103 9.95276566 -19.94002425 6.60495756 -22 3 C-21.34 2.67 -20.68 2.34 -20 2 C-19.39929688 2.30421875 -18.79859375 2.6084375 -18.1796875 2.921875 C-13.34160962 5.31490277 -7.41284761 4.38975107 -2.375 3 C-1.59125 2.67 -0.8075 2.34 0 2 C0 1.34 0 0.68 0 0 Z " fill="#E9CFB9" transform="translate(242,346)"/>
<path d="M0 0 C0.8125 1.625 0.8125 1.625 1 4 C-1.57856327 7.68366181 -3.6875406 10.40279281 -8 12 C-9.19287411 8.12315913 -10 5.08378077 -10 1 C-6.78548731 -0.60725635 -3.56387464 -0.05748185 0 0 Z " fill="#F9E0CA" transform="translate(267,338)"/>
<path d="M0 0 C0.33 0.99 0.66 1.98 1 3 C0.00390625 4.82421875 0.00390625 4.82421875 -1.4375 6.6875 C-1.91058594 7.31011719 -2.38367188 7.93273437 -2.87109375 8.57421875 C-3.24363281 9.04472656 -3.61617187 9.51523437 -4 10 C-7.1206107 9.41851975 -7.79302568 9.27120773 -9.8125 6.625 C-11 4 -11 4 -10 1 C-6.78548731 -0.60725635 -3.56387464 -0.05748185 0 0 Z " fill="#F7DFC8" transform="translate(250,308)"/>
</svg>
