<?xml version="1.0" encoding="UTF-8"?>
<svg version="1.1" xmlns="http://www.w3.org/2000/svg" width="64" height="64">
<path d="M0 0 C1.44221924 -0.00430527 1.44221924 -0.00430527 2.91357422 -0.00869751 C4.94434194 -0.01073701 6.97512935 -0.00521512 9.00585938 0.00732422 C12.11372823 0.02337927 15.22029658 0.00747145 18.328125 -0.01171875 C20.3020862 -0.0097363 22.2760466 -0.00589258 24.25 0 C25.17925293 -0.00607269 26.10850586 -0.01214539 27.06591797 -0.0184021 C30.59916107 0.02010435 33.41748565 0.11139417 36.70898438 1.44677734 C38.88254745 4.44254687 38.69636943 7.46179025 38.65625 11.0234375 C38.6600769 11.76674316 38.66390381 12.51004883 38.66784668 13.27587891 C38.67056636 14.84604244 38.663201 16.41625123 38.64648438 17.98632812 C38.62507203 20.39034994 38.64628034 22.79138368 38.671875 25.1953125 C38.66923173 26.72136077 38.66410676 28.24740717 38.65625 29.7734375 C38.66434692 30.49225098 38.67244385 31.21106445 38.68078613 31.95166016 C38.62528204 34.904549 38.466967 36.92711264 36.70898438 39.35009766 C32.61565504 41.0107889 28.62573224 40.82547053 24.25 40.796875 C23.28852051 40.79974518 22.32704102 40.80261536 21.33642578 40.80557251 C19.30565806 40.80761201 17.27487065 40.80209012 15.24414062 40.78955078 C12.13627177 40.77349573 9.02970342 40.78940355 5.921875 40.80859375 C3.9479138 40.8066113 1.9739534 40.80276758 0 40.796875 C-0.92925293 40.80294769 -1.85850586 40.80902039 -2.81591797 40.8152771 C-6.34916107 40.77677065 -9.16748565 40.68548083 -12.45898438 39.35009766 C-14.63254745 36.35432813 -14.44636943 33.33508475 -14.40625 29.7734375 C-14.4100769 29.03013184 -14.41390381 28.28682617 -14.41784668 27.52099609 C-14.42056636 25.95083256 -14.413201 24.38062377 -14.39648438 22.81054688 C-14.37507203 20.40652506 -14.39628034 18.00549132 -14.421875 15.6015625 C-14.41923173 14.07551423 -14.41410676 12.54946783 -14.40625 11.0234375 C-14.41434692 10.30462402 -14.42244385 9.58581055 -14.43078613 8.84521484 C-14.37528204 5.892326 -14.216967 3.86976236 -12.45898438 1.44677734 C-8.36565504 -0.2139139 -4.37573224 -0.02859553 0 0 Z M-5.875 6.3984375 C-2.23015229 9.31431567 1.17725122 11.84637766 5.125 14.2734375 C6.135625 14.91023438 7.14625 15.54703125 8.1875 16.203125 C10.99216007 17.67076583 10.99216007 17.67076583 13.54296875 16.8515625 C14.39503906 16.37203125 15.24710938 15.8925 16.125 15.3984375 C16.68654785 15.09244629 17.2480957 14.78645508 17.82666016 14.47119141 C19.71369332 13.43225184 21.57648953 12.35822836 23.4375 11.2734375 C24.40526367 10.71462891 24.40526367 10.71462891 25.39257812 10.14453125 C26.97175945 9.23211537 28.54861864 8.31568241 30.125 7.3984375 C30.125 7.0684375 30.125 6.7384375 30.125 6.3984375 C18.245 6.3984375 6.365 6.3984375 -5.875 6.3984375 Z M-7.875 12.3984375 C-7.875 19.6584375 -7.875 26.9184375 -7.875 34.3984375 C5.325 34.3984375 18.525 34.3984375 32.125 34.3984375 C32.125 27.1384375 32.125 19.8784375 32.125 12.3984375 C27.69705278 14.93994196 27.69705278 14.93994196 23.27050781 17.48388672 C21.55996451 18.46352563 19.84243144 19.43092522 18.125 20.3984375 C17.43921875 20.83414063 16.7534375 21.26984375 16.046875 21.71875 C13.04280202 22.78116605 11.18205793 22.25765885 8.125 21.3984375 C5.4117659 20.04288335 2.86899071 18.46460914 0.3125 16.8359375 C-3.60569407 13.9075654 -3.60569407 13.9075654 -7.875 12.3984375 Z " fill="#E7E9EC" transform="translate(19.875,11.6015625)"/>
</svg>
